<svg xmlns="http://www.w3.org/2000/svg" width="36" height="36" viewBox="0 0 36 36" fill="none">
    <path d="M22.463 4.52819L23.9028 1.9308C23.9212 1.89748 23.933 1.86084 23.9373 1.82299C23.9416 1.78513 23.9384 1.7468 23.9279 1.71017C23.9174 1.67355 23.8998 1.63935 23.8761 1.60953C23.8524 1.57971 23.823 1.55486 23.7897 1.53638C23.7224 1.49908 23.643 1.49003 23.569 1.51124C23.4951 1.53244 23.4326 1.58216 23.3953 1.64946L21.9396 4.27563C20.6976 3.73115 19.3562 3.45003 18 3.45003C16.6439 3.45003 15.3025 3.73115 14.0605 4.27563L12.6047 1.64946C12.5674 1.58216 12.5049 1.53244 12.4309 1.51124C12.357 1.49003 12.2776 1.49908 12.2103 1.53638C12.143 1.57369 12.0933 1.63621 12.0721 1.71017C12.0509 1.78414 12.0599 1.8635 12.0972 1.9308L13.537 4.5282C12.1665 5.20376 11.0085 6.24371 10.1901 7.53398C9.37164 8.82425 8.92435 10.315 8.89728 11.8427H27.1028C27.0757 10.315 26.6284 8.82425 25.81 7.53397C24.9915 6.24369 23.8335 5.20374 22.463 4.52819ZM13.7987 8.51159C13.6483 8.51159 13.5013 8.467 13.3763 8.38347C13.2513 8.29994 13.1539 8.18121 13.0963 8.0423C13.0388 7.90339 13.0237 7.75054 13.0531 7.60308C13.0824 7.45561 13.1548 7.32016 13.2611 7.21384C13.3674 7.10753 13.5029 7.03513 13.6504 7.00579C13.7978 6.97646 13.9507 6.99152 14.0896 7.04905C14.2285 7.10659 14.3472 7.20403 14.4307 7.32904C14.5143 7.45406 14.5589 7.60103 14.5589 7.75139C14.5586 7.95294 14.4785 8.14616 14.336 8.28868C14.1934 8.4312 14.0002 8.51136 13.7987 8.51159ZM22.2013 8.51159C22.051 8.51159 21.904 8.467 21.779 8.38347C21.654 8.29994 21.5565 8.18121 21.499 8.0423C21.4415 7.90339 21.4264 7.75054 21.4557 7.60308C21.4851 7.45561 21.5575 7.32016 21.6638 7.21384C21.7701 7.10753 21.9056 7.03513 22.053 7.00579C22.2005 6.97646 22.3533 6.99152 22.4923 7.04905C22.6312 7.10659 22.7499 7.20403 22.8334 7.32904C22.9169 7.45406 22.9615 7.60103 22.9615 7.75139C22.9613 7.95294 22.8811 8.14616 22.7386 8.28868C22.5961 8.4312 22.4029 8.51136 22.2013 8.51159ZM8.89714 25.7571C8.89714 26.3407 9.129 26.9005 9.54171 27.3132C9.95442 27.7259 10.5142 27.9578 11.0978 27.9578H12.5582V32.4592C12.5575 32.7277 12.6098 32.9936 12.712 33.2418C12.8142 33.4901 12.9644 33.7157 13.154 33.9058C13.3435 34.0959 13.5688 34.2467 13.8167 34.3496C14.0647 34.4525 14.3305 34.5054 14.5989 34.5054C14.8674 34.5054 15.1332 34.4525 15.3811 34.3496C15.6291 34.2467 15.8543 34.0959 16.0439 33.9058C16.2334 33.7157 16.3836 33.4901 16.4859 33.2418C16.5881 32.9936 16.6403 32.7277 16.6396 32.4592V27.9578H19.3604V32.4592C19.3597 32.7277 19.4119 32.9936 19.5141 33.2418C19.6164 33.4901 19.7666 33.7157 19.9561 33.9058C20.1457 34.0959 20.3709 34.2467 20.6189 34.3496C20.8668 34.4525 21.1326 34.5054 21.4011 34.5054C21.6695 34.5054 21.9353 34.4525 22.1833 34.3496C22.4312 34.2467 22.6565 34.0959 22.846 33.9058C23.0356 33.7157 23.1858 33.4901 23.288 33.2418C23.3902 32.9936 23.4425 32.7277 23.4418 32.4592V27.9578H24.9022C25.4859 27.9578 26.0456 27.7259 26.4583 27.3132C26.8711 26.9005 27.1029 26.3407 27.1029 25.7571V12.5629H8.89714V25.7571ZM6.09622 12.2128C5.55519 12.2134 5.03649 12.4286 4.65392 12.8111C4.27136 13.1937 4.05616 13.7124 4.05555 14.2535V22.7561C4.05482 23.0246 4.10707 23.2906 4.2093 23.5388C4.31152 23.787 4.46172 24.0126 4.65129 24.2027C4.84086 24.3928 5.06607 24.5436 5.31402 24.6465C5.56196 24.7494 5.82778 24.8024 6.09623 24.8024C6.36468 24.8024 6.6305 24.7494 6.87845 24.6465C7.1264 24.5436 7.35161 24.3928 7.54117 24.2027C7.73074 24.0126 7.88094 23.787 7.98317 23.5388C8.0854 23.2906 8.13764 23.0246 8.13691 22.7561V14.2535C8.1363 13.7124 7.92111 13.1937 7.53853 12.8111C7.15596 12.4286 6.63726 12.2134 6.09622 12.2128ZM29.9038 12.2128C29.3627 12.2134 28.844 12.4286 28.4615 12.8111C28.0789 13.1937 27.8637 13.7124 27.8631 14.2535V22.7561C27.8624 23.0246 27.9146 23.2906 28.0168 23.5388C28.1191 23.787 28.2693 24.0126 28.4588 24.2027C28.6484 24.3928 28.8736 24.5436 29.1216 24.6465C29.3695 24.7494 29.6353 24.8024 29.9038 24.8024C30.1722 24.8024 30.438 24.7494 30.686 24.6465C30.9339 24.5436 31.1591 24.3928 31.3487 24.2027C31.5383 24.0126 31.6885 23.787 31.7907 23.5388C31.8929 23.2906 31.9452 23.0246 31.9445 22.7561V14.2535C31.9438 13.7124 31.7286 13.1937 31.3461 12.8111C30.9635 12.4286 30.4448 12.2134 29.9038 12.2128Z" fill="#7CB342"/>
</svg>