<svg width="80" height="80" viewBox="0 0 80 80" fill="none" xmlns="http://www.w3.org/2000/svg">
<circle cx="40" cy="40" r="40" fill="#ED008C"/>
<path d="M39.9999 39.7912L54.6351 31.8083C54.1697 30.2769 53.2256 28.935 51.9414 27.9796C50.6572 27.0242 49.1005 26.5056 47.4999 26.5H32.4999C30.8993 26.5056 29.3427 27.0242 28.0585 27.9796C26.7743 28.935 25.8302 30.2769 25.3647 31.8083L39.9999 39.7912Z" fill="#F6EEFF"/>
<path d="M40.7187 42.8173C40.4983 42.9374 40.2513 43.0004 40.0002 43.0004C39.7492 43.0004 39.5022 42.9374 39.2817 42.8173L25.0002 35.0273V46.0004C25.0026 47.9889 25.7935 49.8951 27.1995 51.3012C28.6055 52.7072 30.5118 53.4981 32.5002 53.5004H47.5002C49.4887 53.4981 51.3949 52.7072 52.801 51.3012C54.207 49.8951 54.9979 47.9889 55.0002 46.0004V35.0273L40.7187 42.8173Z" fill="#F6EEFF"/>
</svg>
