<svg width="60" height="60" viewBox="0 0 60 60" fill="none" xmlns="http://www.w3.org/2000/svg">
<rect width="60" height="60" fill="#ED008C"/>
<path d="M30 29.826L42.196 23.1736C41.8081 21.8974 41.0213 20.7792 39.9512 19.983C38.881 19.1868 37.5838 18.7547 36.25 18.75H23.75C22.4161 18.7547 21.1189 19.1868 20.0488 19.983C18.9786 20.7792 18.1918 21.8974 17.804 23.1736L30 29.826Z" fill="white"/>
<path d="M30.599 32.3471C30.4153 32.4472 30.2094 32.4997 30.0002 32.4997C29.791 32.4997 29.5852 32.4472 29.4015 32.3471L17.5002 25.8555V34.9997C17.5022 36.6567 18.1613 38.2453 19.333 39.417C20.5047 40.5887 22.0932 41.2478 23.7502 41.2497H36.2502C37.9072 41.2478 39.4958 40.5887 40.6675 39.417C41.8392 38.2453 42.4983 36.6567 42.5002 34.9997V25.8555L30.599 32.3471Z" fill="white"/>
</svg>
