<svg width="135" height="50" viewBox="0 0 135 50" fill="none" xmlns="http://www.w3.org/2000/svg">
<g id="Logo" clip-path="url(#clip0_1_4)">
<g id="&#208;&#161;&#208;&#187;&#208;&#190;&#208;&#185;_x0020_1">
<path id="Vector" fill-rule="evenodd" clip-rule="evenodd" d="M0.00354501 36.722L0.000976562 36.7194V12.9946L0.0129627 12.9827C0.310047 5.7636 6.25858 0 13.5513 0H120.867C128.349 0 134.416 6.06753 134.416 13.5503V24.8711C134.416 28.4978 132.97 31.9301 130.409 34.4908L118.87 46.0317C116.322 48.5796 112.892 50 109.288 50H13.5513C6.15926 50 0.14909 44.0797 0.00354501 36.722ZM13.5513 2.12753H120.867C127.175 2.12753 132.289 7.24217 132.289 13.5503V24.8711C132.289 28.0458 130.994 30.9164 128.904 32.9866L117.365 44.5266C115.298 46.5942 112.442 47.8725 109.288 47.8725H13.5513C7.24315 47.8725 2.12851 42.7587 2.12851 36.4506C2.12851 36.2597 2.13365 36.0696 2.14306 35.8812L2.12851 35.8667V13.8765L2.13365 13.8713C2.13022 13.7643 2.12851 13.6573 2.12851 13.5503C2.12851 7.24217 7.24315 2.12753 13.5513 2.12753Z" fill="url(#paint0_linear_1_4)"/>
<path id="Vector_2" d="M13.5508 13.55H18.6046V22.8966L22.4453 13.55H27.387L23.1516 23.8846L27.5848 36.4221H22.4453L19.1414 26.3127L18.6046 27.2168V36.4221H13.5508V13.55ZM29.5608 13.55H39.8397V16.9943H34.6155V22.6706H38.5966V26.1723H34.6155V33.0052H39.8962V36.4221H29.5608V13.55ZM48.254 36.7611C46.0708 36.7611 44.4467 36.1815 43.3833 35.024C42.3191 33.8665 41.7506 32.0266 41.6753 29.5035L45.9954 28.8546C46.0143 30.304 46.1881 31.3443 46.5177 31.9744C46.8473 32.6054 47.3413 32.9204 47.9997 32.9204C48.8473 32.9204 49.2711 32.3648 49.2711 31.2544C49.2711 30.37 49.0682 29.6071 48.6641 28.9676C48.2591 28.3272 47.6238 27.6406 46.7574 26.906L44.7806 25.1834C43.802 24.3555 43.0443 23.4754 42.5083 22.543C41.9715 21.6115 41.7036 20.5054 41.7036 19.2255C41.7036 17.3051 42.2729 15.8274 43.4116 14.7923C44.5503 13.7564 46.1179 13.2393 48.1127 13.2393C50.2779 13.2393 51.7513 13.8694 52.5321 15.1313C53.3138 16.3925 53.7325 17.9267 53.789 19.734L49.4397 20.27C49.4029 19.0842 49.2942 18.2323 49.1152 17.7144C48.9372 17.1972 48.5459 16.9378 47.944 16.9378C47.5108 16.9378 47.1769 17.1219 46.9415 17.4892C46.706 17.8556 46.5879 18.2657 46.5879 18.7169C46.5879 19.4892 46.7625 20.1381 47.1101 20.6655C47.4586 21.1929 48.0185 21.7948 48.7908 22.4728L50.6829 24.1389C51.8121 25.0986 52.6871 26.1158 53.3087 27.1885C53.9294 28.2613 54.241 29.5318 54.241 31.0001C54.241 32.0737 53.991 33.0471 53.4919 33.923C52.9936 34.7988 52.2924 35.4906 51.3883 35.9983C50.4851 36.5068 49.4397 36.7611 48.254 36.7611ZM58.7589 17.3051H55.3138V13.55H67.2579V17.3051H63.8419V36.4221H58.7589V17.3051ZM69.263 13.55H79.5411V16.9943H74.3177V22.6706H78.2988V26.1723H74.3177V33.0052H79.5976V36.4221H69.263V13.55ZM87.9562 36.7611C85.7722 36.7611 84.1489 36.1815 83.0847 35.024C82.0214 33.8665 81.452 32.0266 81.3767 29.5035L85.6968 28.8546C85.7165 30.304 85.8903 31.3443 86.2191 31.9744C86.5487 32.6054 87.0435 32.9204 87.7019 32.9204C88.5487 32.9204 88.9724 32.3648 88.9724 31.2544C88.9724 30.37 88.7704 29.6071 88.3654 28.9676C87.9613 28.3272 87.3261 27.6406 86.4596 26.906L84.4828 25.1834C83.5042 24.3555 82.7465 23.4754 82.2097 22.543C81.6738 21.6115 81.4049 20.5054 81.4049 19.2255C81.4049 17.3051 81.9743 15.8274 83.1138 14.7923C84.2525 13.7564 85.8192 13.2393 87.8149 13.2393C89.9801 13.2393 91.4527 13.8694 92.2344 15.1313C93.0152 16.3925 93.4347 17.9267 93.4903 19.734L89.142 20.27C89.1043 19.0842 88.9964 18.2323 88.8175 17.7144C88.6385 17.1972 88.2481 16.9378 87.6454 16.9378C87.2131 16.9378 86.8783 17.1219 86.6429 17.4892C86.4083 17.8556 86.2901 18.2657 86.2901 18.7169C86.2901 19.4892 86.4639 20.1381 86.8124 20.6655C87.1608 21.1929 87.7208 21.7948 88.493 22.4728L90.3851 24.1389C91.5144 25.0986 92.3893 26.1158 93.0109 27.1885C93.6316 28.2613 93.9424 29.5318 93.9424 31.0001C93.9424 32.0737 93.6933 33.0471 93.1941 33.923C92.695 34.7988 91.9947 35.4906 91.0906 35.9983C90.1873 36.5068 89.142 36.7611 87.9562 36.7611ZM96.4278 13.55H101.482V36.4221H96.4278V13.55Z" fill="#2B2A29"/>
<path id="Vector_3" d="M105.279 13.5503H107.406V20.7411L110.908 13.5503H112.884L109.873 20.2702L113.374 28.7983H111.303L108.385 21.6452L107.406 23.414V28.7983H105.279V13.5503ZM114.127 27.2735L118.607 15.0751H114.409V13.5503H120.866V14.4724L116.141 27.2735H120.866V28.7983H114.127V27.2735Z" fill="#2B2A29"/>
<path id="Vector_4" d="M110.334 31.3677H105.279V36.4224H110.334V31.3677Z" fill="#2B2A29"/>
</g>
</g>
<defs>
<linearGradient id="paint0_linear_1_4" x1="87.3531" y1="47.8725" x2="120.867" y2="2.12753" gradientUnits="userSpaceOnUse">
<stop stop-color="#594B97"/>
<stop offset="1" stop-color="#E5097F"/>
</linearGradient>
<clipPath id="clip0_1_4">
<rect width="134.418" height="50" fill="white"/>
</clipPath>
</defs>
</svg>
