<svg width="1266" height="713" viewBox="0 0 1266 713" fill="none" xmlns="http://www.w3.org/2000/svg">
<rect width="1266" height="713" fill="#F8F8FB"/>
<path d="M547.758 368V348.56H550.47V357.2H551.478L554.958 348.56H557.67L553.83 357.8L558.15 368H555.438L551.502 358.52H550.47V368H547.758ZM561.7 368.192C561.156 368.192 560.676 368.04 560.26 367.736C559.844 367.416 559.516 367.016 559.276 366.536C559.036 366.04 558.916 365.52 558.916 364.976C558.916 364.112 559.06 363.384 559.348 362.792C559.636 362.2 560.028 361.704 560.524 361.304C561.036 360.888 561.62 360.528 562.276 360.224C562.948 359.92 563.652 359.624 564.388 359.336V358.352C564.388 357.792 564.356 357.328 564.292 356.96C564.228 356.592 564.092 356.32 563.884 356.144C563.692 355.952 563.396 355.856 562.996 355.856C562.644 355.856 562.356 355.936 562.132 356.096C561.924 356.256 561.772 356.488 561.676 356.792C561.58 357.08 561.532 357.424 561.532 357.824V358.52L558.988 358.424C559.02 356.888 559.372 355.76 560.044 355.04C560.716 354.304 561.756 353.936 563.164 353.936C564.54 353.936 565.516 354.312 566.092 355.064C566.668 355.816 566.956 356.904 566.956 358.328V364.664C566.956 365.096 566.964 365.512 566.98 365.912C567.012 366.312 567.044 366.688 567.076 367.04C567.124 367.376 567.164 367.696 567.196 368H564.844C564.796 367.744 564.732 367.424 564.652 367.04C564.588 366.64 564.54 366.28 564.508 365.96C564.348 366.504 564.036 367.016 563.572 367.496C563.124 367.96 562.5 368.192 561.7 368.192ZM562.708 365.984C562.964 365.984 563.204 365.912 563.428 365.768C563.652 365.624 563.852 365.464 564.028 365.288C564.204 365.096 564.324 364.944 564.388 364.832V360.896C563.988 361.12 563.612 361.344 563.26 361.568C562.908 361.792 562.596 362.032 562.324 362.288C562.068 362.528 561.86 362.808 561.7 363.128C561.556 363.432 561.484 363.784 561.484 364.184C561.484 364.744 561.588 365.184 561.796 365.504C562.004 365.824 562.308 365.984 562.708 365.984ZM569.433 372.56V354.128H572.001V355.232C572.305 354.88 572.673 354.576 573.105 354.32C573.537 354.064 574.049 353.936 574.641 353.936C575.361 353.936 575.929 354.128 576.345 354.512C576.777 354.88 577.097 355.352 577.305 355.928C577.513 356.488 577.649 357.064 577.713 357.656C577.777 358.232 577.809 358.728 577.809 359.144V362.504C577.809 363.48 577.713 364.408 577.521 365.288C577.329 366.152 576.977 366.856 576.465 367.4C575.969 367.928 575.265 368.192 574.353 368.192C573.857 368.192 573.417 368.072 573.033 367.832C572.649 367.576 572.305 367.288 572.001 366.968V372.56H569.433ZM573.849 366.176C574.297 366.176 574.617 366.016 574.809 365.696C575.001 365.36 575.121 364.912 575.169 364.352C575.217 363.792 575.241 363.176 575.241 362.504V359.144C575.241 358.568 575.209 358.04 575.145 357.56C575.081 357.064 574.945 356.672 574.737 356.384C574.529 356.096 574.201 355.952 573.753 355.952C573.417 355.952 573.097 356.024 572.793 356.168C572.489 356.312 572.225 356.48 572.001 356.672V365.552C572.241 365.728 572.513 365.88 572.817 366.008C573.121 366.12 573.465 366.176 573.849 366.176ZM581.704 368V356.048H579.112V354.128H586.888V356.048H584.272V368H581.704ZM590.529 368.192C589.985 368.192 589.505 368.04 589.089 367.736C588.673 367.416 588.345 367.016 588.105 366.536C587.865 366.04 587.745 365.52 587.745 364.976C587.745 364.112 587.889 363.384 588.177 362.792C588.465 362.2 588.857 361.704 589.353 361.304C589.865 360.888 590.449 360.528 591.105 360.224C591.777 359.92 592.481 359.624 593.217 359.336V358.352C593.217 357.792 593.185 357.328 593.121 356.96C593.057 356.592 592.921 356.32 592.713 356.144C592.521 355.952 592.225 355.856 591.825 355.856C591.473 355.856 591.185 355.936 590.961 356.096C590.753 356.256 590.601 356.488 590.505 356.792C590.409 357.08 590.361 357.424 590.361 357.824V358.52L587.817 358.424C587.849 356.888 588.201 355.76 588.873 355.04C589.545 354.304 590.585 353.936 591.993 353.936C593.369 353.936 594.345 354.312 594.921 355.064C595.497 355.816 595.785 356.904 595.785 358.328V364.664C595.785 365.096 595.793 365.512 595.809 365.912C595.841 366.312 595.873 366.688 595.905 367.04C595.953 367.376 595.993 367.696 596.025 368H593.673C593.625 367.744 593.561 367.424 593.481 367.04C593.417 366.64 593.369 366.28 593.337 365.96C593.177 366.504 592.865 367.016 592.401 367.496C591.953 367.96 591.329 368.192 590.529 368.192ZM591.537 365.984C591.793 365.984 592.033 365.912 592.257 365.768C592.481 365.624 592.681 365.464 592.857 365.288C593.033 365.096 593.153 364.944 593.217 364.832V360.896C592.817 361.12 592.441 361.344 592.089 361.568C591.737 361.792 591.425 362.032 591.153 362.288C590.897 362.528 590.689 362.808 590.529 363.128C590.385 363.432 590.313 363.784 590.313 364.184C590.313 364.744 590.417 365.184 590.625 365.504C590.833 365.824 591.137 365.984 591.537 365.984ZM603.745 368V354.128H606.313V359.96H609.601V354.128H612.169V368H609.601V361.832H606.313V368H603.745ZM618.601 368.192C617.513 368.192 616.673 367.984 616.081 367.568C615.489 367.136 615.073 366.512 614.833 365.696C614.609 364.864 614.497 363.848 614.497 362.648V359.48C614.497 358.248 614.617 357.224 614.857 356.408C615.097 355.592 615.513 354.976 616.105 354.56C616.713 354.144 617.545 353.936 618.601 353.936C619.769 353.936 620.625 354.176 621.169 354.656C621.729 355.136 622.097 355.832 622.273 356.744C622.449 357.64 622.537 358.72 622.537 359.984V361.112H617.065V363.896C617.065 364.456 617.113 364.912 617.209 365.264C617.321 365.616 617.489 365.88 617.713 366.056C617.953 366.216 618.257 366.296 618.625 366.296C619.009 366.296 619.297 366.208 619.489 366.032C619.697 365.84 619.833 365.576 619.897 365.24C619.977 364.888 620.017 364.48 620.017 364.016V363.176H622.513V363.704C622.513 365.096 622.217 366.192 621.625 366.992C621.033 367.792 620.025 368.192 618.601 368.192ZM617.065 359.72H620.017V358.472C620.017 357.896 619.985 357.416 619.921 357.032C619.857 356.632 619.721 356.336 619.513 356.144C619.321 355.936 619.009 355.832 618.577 355.832C618.161 355.832 617.841 355.928 617.617 356.12C617.409 356.312 617.265 356.64 617.185 357.104C617.105 357.552 617.065 358.176 617.065 358.976V359.72ZM633.611 368.24C632.971 368.24 632.419 368.152 631.955 367.976C631.491 367.8 631.107 367.528 630.803 367.16C630.499 366.776 630.275 366.304 630.131 365.744C629.987 365.184 629.915 364.52 629.915 363.752H632.099C632.099 364.696 632.235 365.376 632.507 365.792C632.779 366.208 633.163 366.416 633.659 366.416C634.091 366.416 634.403 366.304 634.595 366.08C634.787 365.856 634.907 365.552 634.955 365.168C635.003 364.768 635.027 364.328 635.027 363.848C635.027 363.24 634.939 362.792 634.763 362.504C634.603 362.2 634.315 362 633.899 361.904C633.499 361.808 632.939 361.76 632.219 361.76V359.936C633.339 359.936 634.083 359.768 634.451 359.432C634.835 359.096 635.027 358.544 635.027 357.776C635.027 357.088 634.883 356.592 634.595 356.288C634.307 355.984 633.947 355.832 633.515 355.832C633.035 355.832 632.651 355.984 632.363 356.288C632.075 356.592 631.931 357.2 631.931 358.112H629.747C629.747 357.072 629.899 356.248 630.203 355.64C630.523 355.032 630.971 354.6 631.547 354.344C632.139 354.072 632.827 353.936 633.611 353.936C634.475 353.936 635.171 354.112 635.699 354.464C636.243 354.816 636.635 355.28 636.875 355.856C637.131 356.416 637.259 357.008 637.259 357.632C637.259 358.432 637.131 359.056 636.875 359.504C636.635 359.952 636.331 360.272 635.963 360.464C635.611 360.656 635.267 360.768 634.931 360.8C635.283 360.864 635.635 360.984 635.987 361.16C636.355 361.32 636.659 361.632 636.899 362.096C637.155 362.544 637.283 363.248 637.283 364.208C637.283 365.52 636.979 366.52 636.371 367.208C635.763 367.896 634.843 368.24 633.611 368.24ZM641.435 368.192C640.891 368.192 640.411 368.04 639.995 367.736C639.579 367.416 639.251 367.016 639.011 366.536C638.771 366.04 638.651 365.52 638.651 364.976C638.651 364.112 638.795 363.384 639.083 362.792C639.371 362.2 639.763 361.704 640.259 361.304C640.771 360.888 641.355 360.528 642.011 360.224C642.683 359.92 643.387 359.624 644.123 359.336V358.352C644.123 357.792 644.091 357.328 644.027 356.96C643.963 356.592 643.827 356.32 643.619 356.144C643.427 355.952 643.131 355.856 642.731 355.856C642.379 355.856 642.091 355.936 641.867 356.096C641.659 356.256 641.507 356.488 641.411 356.792C641.315 357.08 641.267 357.424 641.267 357.824V358.52L638.723 358.424C638.755 356.888 639.107 355.76 639.779 355.04C640.451 354.304 641.491 353.936 642.899 353.936C644.275 353.936 645.251 354.312 645.827 355.064C646.403 355.816 646.691 356.904 646.691 358.328V364.664C646.691 365.096 646.699 365.512 646.715 365.912C646.747 366.312 646.779 366.688 646.811 367.04C646.859 367.376 646.899 367.696 646.931 368H644.579C644.531 367.744 644.467 367.424 644.387 367.04C644.323 366.64 644.275 366.28 644.243 365.96C644.083 366.504 643.771 367.016 643.307 367.496C642.859 367.96 642.235 368.192 641.435 368.192ZM642.443 365.984C642.699 365.984 642.939 365.912 643.163 365.768C643.387 365.624 643.587 365.464 643.763 365.288C643.939 365.096 644.059 364.944 644.123 364.832V360.896C643.723 361.12 643.347 361.344 642.995 361.568C642.643 361.792 642.331 362.032 642.059 362.288C641.803 362.528 641.595 362.808 641.435 363.128C641.291 363.432 641.219 363.784 641.219 364.184C641.219 364.744 641.323 365.184 641.531 365.504C641.739 365.824 642.043 365.984 642.443 365.984ZM649.167 368V354.128H654.759V355.976H651.735V368H649.167ZM656.128 372.56V354.128H658.696V355.232C659 354.88 659.368 354.576 659.8 354.32C660.232 354.064 660.744 353.936 661.336 353.936C662.056 353.936 662.624 354.128 663.04 354.512C663.472 354.88 663.792 355.352 664 355.928C664.208 356.488 664.344 357.064 664.408 357.656C664.472 358.232 664.504 358.728 664.504 359.144V362.504C664.504 363.48 664.408 364.408 664.216 365.288C664.024 366.152 663.672 366.856 663.16 367.4C662.664 367.928 661.96 368.192 661.048 368.192C660.552 368.192 660.112 368.072 659.728 367.832C659.344 367.576 659 367.288 658.696 366.968V372.56H656.128ZM660.544 366.176C660.992 366.176 661.312 366.016 661.504 365.696C661.696 365.36 661.816 364.912 661.864 364.352C661.912 363.792 661.936 363.176 661.936 362.504V359.144C661.936 358.568 661.904 358.04 661.84 357.56C661.776 357.064 661.64 356.672 661.432 356.384C661.224 356.096 660.896 355.952 660.448 355.952C660.112 355.952 659.792 356.024 659.488 356.168C659.184 356.312 658.92 356.48 658.696 356.672V365.552C658.936 365.728 659.208 365.88 659.512 366.008C659.816 366.12 660.16 366.176 660.544 366.176ZM666.6 371.48V369.512C667.224 369.512 667.72 369.48 668.088 369.416C668.456 369.368 668.72 369.264 668.88 369.104C669.04 368.96 669.12 368.752 669.12 368.48C669.12 368.336 669.064 368.016 668.952 367.52C668.84 367.024 668.72 366.496 668.592 365.936L665.808 354.128H668.4L670.272 364.496L672.072 354.128H674.664L671.352 368.768C671.208 369.44 670.944 369.968 670.56 370.352C670.176 370.752 669.68 371.04 669.072 371.216C668.48 371.392 667.76 371.48 666.912 371.48H666.6ZM675.014 368L678.494 360.92L675.23 354.128H677.678L680.63 360.8H680.822V354.128H682.934V360.8H683.126L686.054 354.128H688.502L685.238 360.92L688.718 368H686.342L683.126 361.184H682.934V368H680.822V361.184H680.606L677.39 368H675.014ZM693.952 368.192C692.864 368.192 692.024 367.984 691.432 367.568C690.84 367.136 690.424 366.512 690.184 365.696C689.96 364.864 689.848 363.848 689.848 362.648V359.48C689.848 358.248 689.968 357.224 690.208 356.408C690.448 355.592 690.864 354.976 691.456 354.56C692.064 354.144 692.896 353.936 693.952 353.936C695.12 353.936 695.976 354.176 696.52 354.656C697.08 355.136 697.448 355.832 697.624 356.744C697.8 357.64 697.888 358.72 697.888 359.984V361.112H692.416V363.896C692.416 364.456 692.464 364.912 692.56 365.264C692.672 365.616 692.84 365.88 693.064 366.056C693.304 366.216 693.608 366.296 693.976 366.296C694.36 366.296 694.648 366.208 694.84 366.032C695.048 365.84 695.184 365.576 695.248 365.24C695.328 364.888 695.368 364.48 695.368 364.016V363.176H697.864V363.704C697.864 365.096 697.568 366.192 696.976 366.992C696.384 367.792 695.376 368.192 693.952 368.192ZM692.416 359.72H695.368V358.472C695.368 357.896 695.336 357.416 695.272 357.032C695.208 356.632 695.072 356.336 694.864 356.144C694.672 355.936 694.36 355.832 693.928 355.832C693.512 355.832 693.192 355.928 692.968 356.12C692.76 356.312 692.616 356.64 692.536 357.104C692.456 357.552 692.416 358.176 692.416 358.976V359.72ZM700.214 368V354.128H702.782V359.96H706.07V354.128H708.638V368H706.07V361.832H702.782V368H700.214ZM713.318 368.192C712.774 368.192 712.294 368.04 711.878 367.736C711.462 367.416 711.134 367.016 710.894 366.536C710.654 366.04 710.534 365.52 710.534 364.976C710.534 364.112 710.678 363.384 710.966 362.792C711.254 362.2 711.646 361.704 712.142 361.304C712.654 360.888 713.238 360.528 713.894 360.224C714.566 359.92 715.27 359.624 716.006 359.336V358.352C716.006 357.792 715.974 357.328 715.91 356.96C715.846 356.592 715.71 356.32 715.502 356.144C715.31 355.952 715.014 355.856 714.614 355.856C714.262 355.856 713.974 355.936 713.75 356.096C713.542 356.256 713.39 356.488 713.294 356.792C713.198 357.08 713.15 357.424 713.15 357.824V358.52L710.606 358.424C710.638 356.888 710.99 355.76 711.662 355.04C712.334 354.304 713.374 353.936 714.782 353.936C716.158 353.936 717.134 354.312 717.71 355.064C718.286 355.816 718.574 356.904 718.574 358.328V364.664C718.574 365.096 718.582 365.512 718.598 365.912C718.63 366.312 718.662 366.688 718.694 367.04C718.742 367.376 718.782 367.696 718.814 368H716.462C716.414 367.744 716.35 367.424 716.27 367.04C716.206 366.64 716.158 366.28 716.126 365.96C715.966 366.504 715.654 367.016 715.19 367.496C714.742 367.96 714.118 368.192 713.318 368.192ZM714.326 365.984C714.582 365.984 714.822 365.912 715.046 365.768C715.27 365.624 715.47 365.464 715.646 365.288C715.822 365.096 715.942 364.944 716.006 364.832V360.896C715.606 361.12 715.23 361.344 714.878 361.568C714.526 361.792 714.214 362.032 713.942 362.288C713.686 362.528 713.478 362.808 713.318 363.128C713.174 363.432 713.102 363.784 713.102 364.184C713.102 364.744 713.206 365.184 713.414 365.504C713.622 365.824 713.926 365.984 714.326 365.984Z" fill="#7B7984"/>
</svg>
