<svg width="1070" height="750" viewBox="0 0 1070 750" fill="none" xmlns="http://www.w3.org/2000/svg">
<rect width="1070" height="750" rx="12" fill="white"/>
<path d="M269.4 51.8735H74.2255V218.844H269.4V51.8735Z" fill="white" stroke="#DEE3ED" stroke-width="8.43091" stroke-miterlimit="10"/>
<path d="M358.096 51.7666H269.393V117.572H358.096V51.7666Z" fill="white" stroke="#DEE3ED" stroke-width="8.43091" stroke-miterlimit="10"/>
<path d="M522.387 51.8735H358.096V117.566H522.387V51.8735Z" fill="white" stroke="#DEE3ED" stroke-width="8.43091" stroke-miterlimit="10"/>
<path d="M858.383 51.8735H696.562V117.566H858.383V51.8735Z" fill="white" stroke="#DEE3ED" stroke-width="8.43091" stroke-miterlimit="10"/>
<path d="M1036.26 51.8735H858.383V228.43H1036.26V51.8735Z" fill="white" stroke="#DEE3ED" stroke-width="8.43091" stroke-miterlimit="10"/>
<path d="M696.562 165.471H575.504V257.17H696.562V165.471Z" fill="white" stroke="#DEE3ED" stroke-width="8.43091" stroke-miterlimit="10"/>
<path d="M696.562 257.17H575.504V348.868H696.562V257.17Z" fill="white" stroke="#DEE3ED" stroke-width="8.43091" stroke-miterlimit="10"/>
<path d="M696.562 348.868H575.504V440.567H696.562V348.868Z" fill="white" stroke="#DEE3ED" stroke-width="8.43091" stroke-miterlimit="10"/>
<path d="M696.62 440.733H575.005V543.103H696.62V440.733Z" stroke="#DEE3ED" stroke-width="8.43091" stroke-miterlimit="10"/>
<path d="M489.196 205.114H385.275V244.856H489.196V205.114Z" fill="white" stroke="#DEE3ED" stroke-width="8.43091" stroke-miterlimit="10"/>
<path d="M489.196 244.85H385.275V295.489H489.196V244.85Z" fill="white" stroke="#DEE3ED" stroke-width="8.43091" stroke-miterlimit="10"/>
<path d="M489.283 295.496H385.275V325.69H489.283V295.496Z" fill="white" stroke="#DEE3ED" stroke-width="8.43091" stroke-miterlimit="10"/>
<path d="M489.196 365.294H385.132V452.975H489.196V365.294Z" fill="white" stroke="#DEE3ED" stroke-width="8.43091" stroke-miterlimit="10"/>
<path d="M489.283 452.975H385.132V532.271H489.283V452.975Z" fill="white" stroke="#DEE3ED" stroke-width="8.43091" stroke-miterlimit="10"/>
<path d="M117.22 599.11H15.9258V696.282H117.22V599.11Z" fill="white" stroke="#DEE3ED" stroke-width="8.43091" stroke-miterlimit="10"/>
<path d="M218.515 599.11H117.221V696.282H218.515V599.11Z" fill="white" stroke="#DEE3ED" stroke-width="8.43091" stroke-miterlimit="10"/>
<path d="M320.047 599.11H218.752V696.282H320.047V599.11Z" fill="white" stroke="#DEE3ED" stroke-width="8.43091" stroke-miterlimit="10"/>
<path d="M421.335 598.48H320.041V695.652H421.335V598.48Z" fill="white" stroke="#DEE3ED" stroke-width="8.43091" stroke-miterlimit="10"/>
<path d="M753.39 602.064H652.095V699.236H753.39V602.064Z" fill="white" stroke="#DEE3ED" stroke-width="8.43091" stroke-miterlimit="10"/>
<path d="M854.679 602.064H753.384V699.236H854.679V602.064Z" fill="white" stroke="#DEE3ED" stroke-width="8.43091" stroke-miterlimit="10"/>
<path d="M955.973 602.064H854.679V699.236H955.973V602.064Z" fill="white" stroke="#DEE3ED" stroke-width="8.43091" stroke-miterlimit="10"/>
<path d="M1057.27 602.064H955.973V699.236H1057.27V602.064Z" fill="white" stroke="#DEE3ED" stroke-width="8.43091" stroke-miterlimit="10"/>
<path d="M1006.62 480.259H886.797V541.782H1006.62V480.259Z" fill="white" stroke="#DEE3ED" stroke-width="8.43091" stroke-miterlimit="10"/>
<path d="M385.132 452.886H300.04V532.265H385.132V452.886Z" fill="white" stroke="#DEE3ED" stroke-width="8.43091" stroke-miterlimit="10"/>
<path d="M66.5731 452.886H15.9258V525.425H66.5731V452.886Z" fill="white" stroke="#DEE3ED" stroke-width="8.43091" stroke-miterlimit="10"/>
<path d="M66.5731 525.425H15.9258V597.964H66.5731V525.425Z" fill="white" stroke="#DEE3ED" stroke-width="8.43091" stroke-miterlimit="10"/>
<path d="M1057.26 539.112H1006.61V602.07H1057.26V539.112Z" fill="white" stroke="#DEE3ED" stroke-width="8.43091" stroke-miterlimit="10"/>
<path d="M489.196 325.684H385.132V365.288H489.196V325.684Z" fill="white" stroke="#DEE3ED" stroke-width="8.43091" stroke-miterlimit="10"/>
<path d="M490.53 698.612C332.539 699.242 174.541 699.872 16.5494 700.502C16.3436 617.961 16.1316 535.427 15.9258 452.887C138.787 452.918 261.647 452.943 384.508 452.975C384.764 370.352 385.02 287.736 385.275 205.114V165.472H269.4V218.851H74.2254V50.0093" stroke="#DEE3ED" stroke-width="8.43091" stroke-miterlimit="10"/>
<path d="M74.2255 51.8735L1036.26 51.8735V228.43H858.383V165.472H696.562V541.845H834.722V480.259H1057.26V699.242H607.542" stroke="#DEE3ED" stroke-width="8.43091" stroke-miterlimit="10"/>
<path d="M1057.26 480.259H1006.61V543.218H1057.26V480.259Z" fill="white" stroke="#DEE3ED" stroke-width="8.43091" stroke-miterlimit="10"/>
<path d="M1021.84 559.928C1023.26 559.928 1024.41 558.769 1024.41 557.339C1024.41 555.909 1023.26 554.75 1021.84 554.75C1020.43 554.75 1019.28 555.909 1019.28 557.339C1019.28 558.769 1020.43 559.928 1021.84 559.928Z" fill="white"/>
<path d="M1021.49 576.348V585.355C1021.48 586.992 1019.06 586.992 1019.04 585.355V576.348H1015.89L1019.28 564.312H1018.73L1016.76 571.164C1016.26 572.682 1014.23 572.065 1014.7 570.446L1016.91 563.033C1017.17 562.183 1018.23 560.677 1020.07 560.64H1023.62C1025.41 560.677 1026.48 562.195 1026.78 563.033L1028.99 570.446C1029.43 572.059 1027.42 572.72 1026.93 571.164L1024.96 564.312H1024.33L1027.81 576.348H1024.57V585.355C1024.59 586.992 1022.19 586.986 1022.2 585.355V576.348H1021.49Z" fill="white"/>
<path d="M1042.84 559.928C1044.26 559.928 1045.41 558.769 1045.41 557.339C1045.41 555.909 1044.26 554.75 1042.84 554.75C1041.43 554.75 1040.28 555.909 1040.28 557.339C1040.28 558.769 1041.43 559.928 1042.84 559.928Z" fill="white"/>
<path d="M1040.12 560.646C1038.15 560.646 1036.88 562.372 1036.88 564.072V572.046C1036.86 573.602 1039.08 573.602 1039.09 572.046V564.714H1039.64V584.964C1039.61 587.08 1042.57 587.017 1042.56 584.964V573.167H1043.04V584.964C1043.07 587.017 1046.05 587.08 1046.04 584.964V564.714H1046.59V572.046C1046.57 573.614 1048.77 573.614 1048.8 572.046V564.072C1048.77 562.372 1047.46 560.677 1045.48 560.646H1040.11H1040.12Z" fill="white"/>
<path d="M1033.96 555.065H1031.04V586.394H1033.96V555.065Z" fill="white"/>
<path d="M849.745 496.433C847.8 496.433 846.702 497.454 846.702 499.526V520.953C846.702 522.899 847.687 523.913 849.633 523.913H870.937C872.883 523.913 873.869 522.943 873.869 520.953V499.526C873.869 497.498 872.883 496.433 870.875 496.433C870.875 496.433 849.739 496.427 849.745 496.433Z" fill="#E3E3E3"/>
<path d="M850.138 516.689H853.912V512.809H857.66V508.904H861.464V505.075H865.25V501.271H870.863V503.211H867.127V507.034H863.341V510.907H859.562V514.762H855.77V518.648H850.138V516.689Z" fill="#B2B2B2"/>
<path d="M884.327 480.259H834.722V541.845H884.327V480.259Z" fill="white" stroke="#DEE3ED" stroke-width="8.43091" stroke-miterlimit="10"/>
<path d="M333.063 478.149C331.117 478.149 330.019 479.17 330.019 481.242V502.669C330.019 504.615 331.005 505.629 332.95 505.629H354.255C356.2 505.629 357.186 504.659 357.186 502.669V481.242C357.186 479.214 356.2 478.149 354.192 478.149C354.192 478.149 333.056 478.143 333.063 478.149Z" fill="#E3E3E3"/>
<path d="M333.456 498.405H337.222V494.525H340.977V490.62H344.781V486.791H348.561V482.98H354.18V484.926H350.444V488.743H346.658V492.623H342.879V496.478H339.087V500.364H333.456V498.405Z" fill="#B2B2B2"/>
<path d="M1021.79 560.022C1023.2 560.022 1024.35 558.863 1024.35 557.434C1024.35 556.004 1023.2 554.845 1021.79 554.845C1020.37 554.845 1019.22 556.004 1019.22 557.434C1019.22 558.863 1020.37 560.022 1021.79 560.022Z" fill="#DEE3ED"/>
<path d="M1021.43 576.448V585.455C1021.42 587.093 1019.01 587.093 1018.99 585.455V576.448H1015.83L1019.22 564.412H1018.67L1016.7 571.265C1016.2 572.783 1014.17 572.166 1014.65 570.547L1016.85 563.134C1017.11 562.283 1018.17 560.778 1020.01 560.74H1023.57C1025.36 560.778 1026.42 562.296 1026.72 563.134L1028.93 570.547C1029.38 572.159 1027.36 572.821 1026.88 571.265L1024.91 564.412H1024.28L1027.75 576.448H1024.51V585.455C1024.54 587.093 1022.14 587.086 1022.14 585.455V576.448H1021.43Z" fill="#DEE3ED"/>
<path d="M1042.79 560.022C1044.2 560.022 1045.35 558.863 1045.35 557.434C1045.35 556.004 1044.2 554.845 1042.79 554.845C1041.37 554.845 1040.22 556.004 1040.22 557.434C1040.22 558.863 1041.37 560.022 1042.79 560.022Z" fill="#DEE3ED"/>
<path d="M1040.06 560.747C1038.09 560.747 1036.82 562.472 1036.82 564.173V572.147C1036.81 573.702 1039.03 573.702 1039.03 572.147V564.815H1039.59V585.065C1039.56 587.181 1042.51 587.118 1042.51 585.065V573.268H1042.98V585.065C1043.02 587.118 1045.99 587.181 1045.98 585.065V564.815H1046.53V572.147C1046.51 573.715 1048.72 573.715 1048.74 572.147V564.173C1048.71 562.472 1047.4 560.778 1045.42 560.747H1040.05H1040.06Z" fill="#DEE3ED"/>
<path d="M1033.9 555.166H1030.98V586.495H1033.9V555.166Z" fill="#DEE3ED"/>
<path d="M1020.98 499.344C1022.4 499.344 1023.55 498.185 1023.55 496.755C1023.55 495.325 1022.4 494.166 1020.98 494.166C1019.57 494.166 1018.42 495.325 1018.42 496.755C1018.42 498.185 1019.57 499.344 1020.98 499.344Z" fill="#DEE3ED"/>
<path d="M1020.63 515.77V524.776C1020.62 526.414 1018.2 526.414 1018.18 524.776V515.77H1015.03L1018.42 503.733H1017.87L1015.89 510.586C1015.4 512.104 1013.37 511.487 1013.84 509.868L1016.05 502.455C1016.31 501.605 1017.37 500.099 1019.21 500.062H1022.76C1024.55 500.099 1025.62 501.617 1025.92 502.455L1028.12 509.868C1028.57 511.481 1026.56 512.142 1026.07 510.586L1024.1 503.733H1023.47L1026.95 515.77H1023.71V524.776C1023.73 526.414 1021.33 526.408 1021.34 524.776V515.77H1020.63Z" fill="#DEE3ED"/>
<path d="M1041.98 499.344C1043.4 499.344 1044.55 498.185 1044.55 496.755C1044.55 495.325 1043.4 494.166 1041.98 494.166C1040.57 494.166 1039.42 495.325 1039.42 496.755C1039.42 498.185 1040.57 499.344 1041.98 499.344Z" fill="#DEE3ED"/>
<path d="M1039.26 500.068C1037.29 500.068 1036.02 501.794 1036.02 503.494V511.468C1036 513.024 1038.22 513.024 1038.23 511.468V504.137H1038.78V524.386C1038.75 526.502 1041.71 526.439 1041.7 524.386V512.589H1042.18V524.386C1042.21 526.439 1045.19 526.502 1045.18 524.386V504.137H1045.73V511.468C1045.71 513.036 1047.91 513.036 1047.94 511.468V503.494C1047.91 501.794 1046.6 500.099 1044.62 500.068H1039.25H1039.26Z" fill="#DEE3ED"/>
<path d="M1033.1 494.488H1030.18V525.816H1033.1V494.488Z" fill="#DEE3ED"/>
<path d="M30.2388 480.203C31.6544 480.203 32.802 479.044 32.802 477.614C32.802 476.184 31.6544 475.025 30.2388 475.025C28.8231 475.025 27.6755 476.184 27.6755 477.614C27.6755 479.044 28.8231 480.203 30.2388 480.203Z" fill="#DEE3ED"/>
<path d="M29.8833 496.629V505.636C29.8708 507.273 27.4573 507.273 27.4385 505.636V496.629H24.2828L27.6755 484.593H27.1205L25.1497 491.445C24.6508 492.963 22.6239 492.346 23.0979 490.727L25.3056 483.314C25.5613 482.464 26.6216 480.958 28.4613 480.921H32.0162C33.8061 480.958 34.8726 482.476 35.1719 483.314L37.3797 490.727C37.8287 492.34 35.8143 493.001 35.3278 491.445L33.3571 484.593H32.7272L36.201 496.629H32.9642V505.636C32.9891 507.273 30.588 507.267 30.5943 505.636V496.629H29.8833Z" fill="#DEE3ED"/>
<path d="M51.2311 480.203C52.6468 480.203 53.7944 479.044 53.7944 477.614C53.7944 476.184 52.6468 475.025 51.2311 475.025C49.8155 475.025 48.6679 476.184 48.6679 477.614C48.6679 479.044 49.8155 480.203 51.2311 480.203Z" fill="#DEE3ED"/>
<path d="M48.512 480.927C46.5412 480.927 45.2752 482.653 45.2752 484.353V492.327C45.2565 493.883 47.4767 493.883 47.483 492.327V484.996H48.038V505.245C48.0068 507.361 50.963 507.298 50.9567 505.245V493.448H51.4307V505.245C51.4681 507.298 54.443 507.361 54.4305 505.245V484.996H54.9856V492.327C54.9606 493.895 57.1684 493.895 57.1933 492.327V484.353C57.1621 482.653 55.8525 480.958 53.8755 480.927H48.5058H48.512Z" fill="#DEE3ED"/>
<path d="M42.3502 475.347H39.4315V506.675H42.3502V475.347Z" fill="#DEE3ED"/>
<path d="M30.8624 551.375C32.2781 551.375 33.4257 550.216 33.4257 548.786C33.4257 547.356 32.2781 546.197 30.8624 546.197C29.4468 546.197 28.2992 547.356 28.2992 548.786C28.2992 550.216 29.4468 551.375 30.8624 551.375Z" fill="#DEE3ED"/>
<path d="M30.5069 567.801V576.807C30.4945 578.445 28.0809 578.445 28.0622 576.807V567.801H24.9065L28.2992 555.765H27.7441L25.7734 562.617C25.2744 564.135 23.2476 563.518 23.7215 561.899L25.9293 554.486C26.185 553.636 27.2452 552.13 29.085 552.093H32.6399C34.4298 552.13 35.4962 553.648 35.7956 554.486L38.0033 561.899C38.4524 563.512 36.4379 564.173 35.9515 562.617L33.9807 555.765H33.3508L36.8246 567.801H33.5878V576.807C33.6128 578.445 31.2117 578.439 31.2179 576.807V567.801H30.5069Z" fill="#DEE3ED"/>
<path d="M51.8548 551.375C53.2704 551.375 54.418 550.216 54.418 548.786C54.418 547.356 53.2704 546.197 51.8548 546.197C50.4392 546.197 49.2916 547.356 49.2916 548.786C49.2916 550.216 50.4392 551.375 51.8548 551.375Z" fill="#DEE3ED"/>
<path d="M49.1356 552.099C47.1649 552.099 45.8989 553.825 45.8989 555.525V563.499C45.8802 565.055 48.1004 565.055 48.1066 563.499V556.168H48.6617V576.417C48.6305 578.533 51.5866 578.47 51.5804 576.417V564.62H52.0544V576.417C52.0918 578.47 55.0666 578.533 55.0542 576.417V556.168H55.6092V563.499C55.5843 565.067 57.792 565.067 57.817 563.499V555.525C57.7858 553.825 56.4761 552.13 54.4991 552.099H49.1294H49.1356Z" fill="#DEE3ED"/>
<path d="M42.9739 546.519H40.0552V577.847H42.9739V546.519Z" fill="#DEE3ED"/>
<path d="M426.587 331.592C424.641 331.592 423.543 332.612 423.543 334.684V356.111C423.543 358.058 424.528 359.072 426.474 359.072H447.779C449.724 359.072 450.71 358.102 450.71 356.111V334.684C450.71 332.656 449.724 331.592 447.716 331.592C447.716 331.592 426.58 331.585 426.587 331.592Z" fill="#E3E3E3"/>
<path d="M426.979 351.841H430.753V347.968H434.501V344.063H438.305V340.227H442.091V336.423H447.704V338.363H443.974V342.186H440.189V346.059H436.409V349.914H432.611V353.8H426.979V351.841Z" fill="#B2B2B2"/>
<path d="M174.585 118.53H161.893C156.864 118.53 152.788 122.647 152.788 127.725V140.826C152.788 145.905 156.864 150.022 161.893 150.022H174.585C179.613 150.022 183.69 145.905 183.69 140.826V127.725C183.69 122.647 179.613 118.53 174.585 118.53Z" fill="#8000FF"/>
<path d="M170.386 129.975L164.292 136.13L166.325 138.183L172.419 132.028L170.386 129.975Z" fill="white"/>
<path d="M160.229 136.127L159.211 137.156C158.931 137.439 158.931 137.898 159.211 138.181L164.289 143.313C164.569 143.596 165.023 143.596 165.303 143.313L166.322 142.284C166.602 142.001 166.602 141.542 166.322 141.259L161.243 136.127C160.963 135.844 160.509 135.844 160.229 136.127Z" fill="white"/>
<path d="M161.242 133.058L160.224 134.087C159.943 134.37 159.943 134.828 160.224 135.111L167.337 142.295C167.617 142.578 168.071 142.578 168.351 142.295L169.37 141.266C169.65 140.983 169.65 140.525 169.37 140.242L162.256 133.058C161.976 132.775 161.522 132.775 161.242 133.058Z" fill="#D8D8D8"/>
<path d="M171.399 124.848L170.381 125.877C170.101 126.159 170.101 126.618 170.381 126.901L175.461 132.031C175.741 132.314 176.195 132.314 176.475 132.031L177.494 131.003C177.774 130.72 177.774 130.261 177.494 129.978L172.414 124.848C172.134 124.565 171.679 124.565 171.399 124.848Z" fill="white"/>
<path d="M168.358 125.868L167.339 126.897C167.059 127.18 167.059 127.638 167.339 127.921L174.453 135.105C174.733 135.388 175.187 135.388 175.467 135.105L176.486 134.076C176.766 133.793 176.766 133.335 176.486 133.052L169.372 125.868C169.092 125.585 168.638 125.585 168.358 125.868Z" fill="#D8D8D8"/>
<path d="M160.73 139.725L159.716 140.749L161.748 142.802L162.762 141.778L160.73 139.725Z" fill="white"/>
<path d="M174.96 125.355L173.946 126.379L175.978 128.431L176.992 127.407L174.96 125.355Z" fill="white"/>
<path d="M72.8222 633.732H60.1308C55.102 633.732 51.0253 637.849 51.0253 642.928V656.029C51.0253 661.107 55.102 665.224 60.1308 665.224H72.8222C77.851 665.224 81.9276 661.107 81.9276 656.029V642.928C81.9276 637.849 77.851 633.732 72.8222 633.732Z" fill="#009D00"/>
<path d="M78.1545 646.827L67.1968 642.487C67.0846 642.443 66.9661 642.443 66.8538 642.487L55.6654 646.827C55.4845 646.896 55.366 647.072 55.366 647.268C55.366 647.463 55.4845 647.639 55.6654 647.715L56.7318 648.137V649.837C56.42 650.007 56.2017 650.335 56.2017 650.719C56.2017 650.996 56.314 651.248 56.4948 651.431V653.982C56.4948 654.379 56.8129 654.693 57.1996 654.693C57.5863 654.693 57.9043 654.372 57.9043 653.982V651.431C58.0852 651.248 58.1974 650.996 58.1974 650.719C58.1974 650.335 57.9792 650.007 57.6673 649.837V648.515L60.3865 649.592C60.3865 649.592 60.3865 649.604 60.3865 649.611C60.3865 653.239 63.3177 656.186 66.9037 656.186C70.4898 656.186 73.421 653.232 73.421 649.604V649.567C73.421 649.567 73.421 649.56 73.421 649.554L78.1483 647.721C78.3292 647.652 78.4476 647.475 78.4476 647.28C78.4476 647.085 78.3292 646.909 78.1483 646.833L78.1545 646.827ZM66.91 655.223C63.9601 655.223 61.534 652.892 61.3469 649.957L66.6231 652.048C66.6792 652.067 66.7353 652.08 66.7977 652.08C66.8601 652.08 66.91 652.067 66.9661 652.048L72.4792 649.907C72.3171 652.861 69.8786 655.216 66.91 655.216V655.223ZM66.7915 651.097L57.3804 647.368L57.1372 647.274L67.0284 643.438L76.6827 647.261L66.7977 651.097H66.7915Z" fill="white"/>
<path d="M174.092 633.732H161.401C156.372 633.732 152.295 637.849 152.295 642.928V656.029C152.295 661.107 156.372 665.224 161.401 665.224H174.092C179.121 665.224 183.197 661.107 183.197 656.029V642.928C183.197 637.849 179.121 633.732 174.092 633.732Z" fill="#009D00"/>
<path d="M179.43 646.827L168.473 642.487C168.361 642.443 168.242 642.443 168.13 642.487L156.941 646.827C156.76 646.896 156.642 647.072 156.642 647.268C156.642 647.463 156.76 647.639 156.941 647.715L158.008 648.137V649.837C157.696 650.007 157.478 650.335 157.478 650.719C157.478 650.996 157.59 651.248 157.771 651.431V653.982C157.771 654.379 158.089 654.693 158.476 654.693C158.862 654.693 159.18 654.372 159.18 653.982V651.431C159.361 651.248 159.473 650.996 159.473 650.719C159.473 650.335 159.255 650.007 158.943 649.837V648.515L161.662 649.592C161.662 649.592 161.662 649.604 161.662 649.611C161.662 653.239 164.594 656.186 168.18 656.186C171.766 656.186 174.697 653.232 174.697 649.604V649.567C174.697 649.567 174.697 649.56 174.697 649.554L179.424 647.721C179.605 647.652 179.724 647.475 179.724 647.28C179.724 647.085 179.605 646.909 179.424 646.833L179.43 646.827ZM168.186 655.223C165.236 655.223 162.81 652.892 162.623 649.957L167.899 652.048C167.955 652.067 168.011 652.08 168.074 652.08C168.136 652.08 168.186 652.067 168.242 652.048L173.755 649.907C173.593 652.861 171.155 655.216 168.186 655.216V655.223ZM168.067 651.097L158.656 647.368L158.413 647.274L168.304 643.438L177.959 647.261L168.074 651.097H168.067Z" fill="white"/>
<path d="M275.873 633.732H263.182C258.153 633.732 254.076 637.849 254.076 642.928V656.029C254.076 661.107 258.153 665.224 263.182 665.224H275.873C280.902 665.224 284.979 661.107 284.979 656.029V642.928C284.979 637.849 280.902 633.732 275.873 633.732Z" fill="#009D00"/>
<path d="M281.205 646.827L270.248 642.487C270.135 642.443 270.017 642.443 269.905 642.487L258.716 646.827C258.535 646.896 258.417 647.072 258.417 647.268C258.417 647.463 258.535 647.639 258.716 647.715L259.783 648.137V649.837C259.471 650.007 259.253 650.335 259.253 650.719C259.253 650.996 259.365 651.248 259.546 651.431V653.982C259.546 654.379 259.864 654.693 260.25 654.693C260.637 654.693 260.955 654.372 260.955 653.982V651.431C261.136 651.248 261.248 650.996 261.248 650.719C261.248 650.335 261.03 650.007 260.718 649.837V648.515L263.437 649.592C263.437 649.592 263.437 649.604 263.437 649.611C263.437 653.239 266.369 656.186 269.955 656.186C273.541 656.186 276.472 653.232 276.472 649.604V649.567C276.472 649.567 276.472 649.56 276.472 649.554L281.199 647.721C281.38 647.652 281.498 647.475 281.498 647.28C281.498 647.085 281.38 646.909 281.199 646.833L281.205 646.827ZM269.961 655.223C267.011 655.223 264.585 652.892 264.398 649.957L269.674 652.048C269.73 652.067 269.786 652.08 269.849 652.08C269.911 652.08 269.961 652.067 270.017 652.048L275.53 649.907C275.368 652.861 272.929 655.216 269.961 655.216V655.223ZM269.842 651.097L260.431 647.368L260.188 647.274L270.079 643.438L279.734 647.261L269.849 651.097H269.842Z" fill="white"/>
<path d="M376.831 633.732H364.14C359.111 633.732 355.034 637.849 355.034 642.928V656.029C355.034 661.107 359.111 665.224 364.14 665.224H376.831C381.86 665.224 385.936 661.107 385.936 656.029V642.928C385.936 637.849 381.86 633.732 376.831 633.732Z" fill="#009D00"/>
<path d="M382.17 646.827L371.212 642.487C371.1 642.443 370.981 642.443 370.869 642.487L359.68 646.827C359.5 646.896 359.381 647.072 359.381 647.268C359.381 647.463 359.5 647.639 359.68 647.715L360.747 648.137V649.837C360.435 650.007 360.217 650.335 360.217 650.719C360.217 650.996 360.329 651.248 360.51 651.431V653.982C360.51 654.379 360.828 654.693 361.215 654.693C361.601 654.693 361.919 654.372 361.919 653.982V651.431C362.1 651.248 362.212 650.996 362.212 650.719C362.212 650.335 361.994 650.007 361.682 649.837V648.515L364.402 649.592C364.402 649.592 364.402 649.604 364.402 649.611C364.402 653.239 367.333 656.186 370.919 656.186C374.505 656.186 377.436 653.232 377.436 649.604V649.567C377.436 649.567 377.436 649.56 377.436 649.554L382.163 647.721C382.344 647.652 382.463 647.475 382.463 647.28C382.463 647.085 382.344 646.909 382.163 646.833L382.17 646.827ZM370.925 655.223C367.975 655.223 365.549 652.892 365.362 649.957L370.638 652.048C370.694 652.067 370.75 652.08 370.813 652.08C370.875 652.08 370.925 652.067 370.981 652.048L376.494 649.907C376.332 652.861 373.894 655.216 370.925 655.216V655.223ZM370.806 651.097L361.395 647.368L361.152 647.274L371.043 643.438L380.698 647.261L370.813 651.097H370.806Z" fill="white"/>
<path d="M709.11 633.846H696.419C691.39 633.846 687.313 637.963 687.313 643.042V656.142C687.313 661.221 691.39 665.338 696.419 665.338H709.11C714.139 665.338 718.216 661.221 718.216 656.142V643.042C718.216 637.963 714.139 633.846 709.11 633.846Z" fill="#009D00"/>
<path d="M714.443 646.94L703.485 642.601C703.373 642.557 703.254 642.557 703.142 642.601L691.954 646.94C691.773 647.01 691.654 647.186 691.654 647.381C691.654 647.576 691.773 647.753 691.954 647.828L693.02 648.25V649.951C692.708 650.121 692.49 650.449 692.49 650.833C692.49 651.11 692.602 651.362 692.783 651.544V654.095C692.783 654.492 693.101 654.807 693.488 654.807C693.874 654.807 694.192 654.486 694.192 654.095V651.544C694.373 651.362 694.486 651.11 694.486 650.833C694.486 650.449 694.267 650.121 693.955 649.951V648.628L696.675 649.705C696.675 649.705 696.675 649.718 696.675 649.724C696.675 653.352 699.606 656.3 703.192 656.3C706.778 656.3 709.709 653.346 709.709 649.718V649.68C709.709 649.68 709.709 649.674 709.709 649.667L714.436 647.835C714.617 647.765 714.736 647.589 714.736 647.394C714.736 647.199 714.617 647.022 714.436 646.947L714.443 646.94ZM703.198 655.336C700.248 655.336 697.822 653.006 697.635 650.071L702.911 652.162C702.967 652.181 703.023 652.193 703.086 652.193C703.148 652.193 703.198 652.181 703.254 652.162L708.767 650.02C708.605 652.974 706.167 655.33 703.198 655.33V655.336ZM703.08 651.211L693.669 647.482L693.425 647.387L703.317 643.552L712.971 647.375L703.086 651.211H703.08Z" fill="white"/>
<path d="M810.386 633.846H797.695C792.666 633.846 788.589 637.963 788.589 643.042V656.142C788.589 661.221 792.666 665.338 797.695 665.338H810.386C815.415 665.338 819.492 661.221 819.492 656.142V643.042C819.492 637.963 815.415 633.846 810.386 633.846Z" fill="#009D00"/>
<path d="M815.719 646.94L804.761 642.601C804.649 642.557 804.53 642.557 804.418 642.601L793.23 646.94C793.049 647.01 792.93 647.186 792.93 647.381C792.93 647.576 793.049 647.753 793.23 647.828L794.296 648.25V649.951C793.984 650.121 793.766 650.449 793.766 650.833C793.766 651.11 793.878 651.362 794.059 651.544V654.095C794.059 654.492 794.377 654.807 794.764 654.807C795.15 654.807 795.468 654.486 795.468 654.095V651.544C795.649 651.362 795.762 651.11 795.762 650.833C795.762 650.449 795.543 650.121 795.231 649.951V648.628L797.951 649.705C797.951 649.705 797.951 649.718 797.951 649.724C797.951 653.352 800.882 656.3 804.468 656.3C808.054 656.3 810.985 653.346 810.985 649.718V649.68C810.985 649.68 810.985 649.674 810.985 649.667L815.712 647.835C815.893 647.765 816.012 647.589 816.012 647.394C816.012 647.199 815.893 647.022 815.712 646.947L815.719 646.94ZM804.474 655.336C801.524 655.336 799.098 653.006 798.911 650.071L804.187 652.162C804.243 652.181 804.299 652.193 804.362 652.193C804.424 652.193 804.474 652.181 804.53 652.162L810.043 650.02C809.881 652.974 807.443 655.33 804.474 655.33V655.336ZM804.356 651.211L794.945 647.482L794.701 647.387L804.593 643.552L814.247 647.375L804.362 651.211H804.356Z" fill="white"/>
<path d="M912.161 633.846H899.47C894.441 633.846 890.364 637.963 890.364 643.042V656.142C890.364 661.221 894.441 665.338 899.47 665.338H912.161C917.19 665.338 921.267 661.221 921.267 656.142V643.042C921.267 637.963 917.19 633.846 912.161 633.846Z" fill="#009D00"/>
<path d="M917.493 646.94L906.536 642.601C906.424 642.557 906.305 642.557 906.193 642.601L895.004 646.94C894.824 647.01 894.705 647.186 894.705 647.381C894.705 647.576 894.824 647.753 895.004 647.828L896.071 648.25V649.951C895.759 650.121 895.541 650.449 895.541 650.833C895.541 651.11 895.653 651.362 895.834 651.544V654.095C895.834 654.492 896.152 654.807 896.539 654.807C896.925 654.807 897.243 654.486 897.243 654.095V651.544C897.424 651.362 897.536 651.11 897.536 650.833C897.536 650.449 897.318 650.121 897.006 649.951V648.628L899.725 649.705C899.725 649.705 899.725 649.718 899.725 649.724C899.725 653.352 902.657 656.3 906.243 656.3C909.829 656.3 912.76 653.346 912.76 649.718V649.68C912.76 649.68 912.76 649.674 912.76 649.667L917.487 647.835C917.668 647.765 917.787 647.589 917.787 647.394C917.787 647.199 917.668 647.022 917.487 646.947L917.493 646.94ZM906.249 655.336C903.299 655.336 900.873 653.006 900.686 650.071L905.962 652.162C906.018 652.181 906.074 652.193 906.137 652.193C906.199 652.193 906.249 652.181 906.305 652.162L911.818 650.02C911.656 652.974 909.218 655.33 906.249 655.33V655.336ZM906.13 651.211L896.719 647.482L896.476 647.387L906.367 643.552L916.022 647.375L906.137 651.211H906.13Z" fill="white"/>
<path d="M1013.13 633.846H1000.43C995.405 633.846 991.328 637.963 991.328 643.042V656.142C991.328 661.221 995.405 665.338 1000.43 665.338H1013.13C1018.15 665.338 1022.23 661.221 1022.23 656.142V643.042C1022.23 637.963 1018.15 633.846 1013.13 633.846Z" fill="#009D00"/>
<path d="M1018.46 646.94L1007.5 642.601C1007.39 642.557 1007.27 642.557 1007.16 642.601L995.969 646.94C995.788 647.01 995.669 647.186 995.669 647.381C995.669 647.576 995.788 647.753 995.969 647.828L997.035 648.25V649.951C996.723 650.121 996.505 650.449 996.505 650.833C996.505 651.11 996.617 651.362 996.798 651.544V654.095C996.798 654.492 997.116 654.807 997.503 654.807C997.889 654.807 998.208 654.486 998.208 654.095V651.544C998.388 651.362 998.501 651.11 998.501 650.833C998.501 650.449 998.282 650.121 997.971 649.951V648.628L1000.69 649.705C1000.69 649.705 1000.69 649.718 1000.69 649.724C1000.69 653.352 1003.62 656.3 1007.21 656.3C1010.79 656.3 1013.72 653.346 1013.72 649.718V649.68C1013.72 649.68 1013.72 649.674 1013.72 649.667L1018.45 647.835C1018.63 647.765 1018.75 647.589 1018.75 647.394C1018.75 647.199 1018.63 647.022 1018.45 646.947L1018.46 646.94ZM1007.21 655.336C1004.26 655.336 1001.84 653.006 1001.65 650.071L1006.93 652.162C1006.98 652.181 1007.04 652.193 1007.1 652.193C1007.16 652.193 1007.21 652.181 1007.27 652.162L1012.78 650.02C1012.62 652.974 1010.18 655.33 1007.21 655.33V655.336ZM1007.09 651.211L997.684 647.482L997.44 647.387L1007.33 643.552L1016.99 647.375L1007.1 651.211H1007.09Z" fill="white"/>
<path d="M957.372 117.457H944.68C939.652 117.457 935.575 121.574 935.575 126.652V139.753C935.575 144.832 939.652 148.949 944.68 148.949H957.372C962.401 148.949 966.477 144.832 966.477 139.753V126.652C966.477 121.574 962.401 117.457 957.372 117.457Z" fill="#FF2A4E"/>
<path d="M961.182 137.973H960.539V143.087H961.182V137.973Z" fill="white"/>
<path d="M944.037 137.973H943.394V143.087H944.037V137.973Z" fill="white"/>
<path d="M958.711 142.085H945.864V139.585H958.711V142.085ZM946.506 141.437H958.069V140.234H946.506V141.437Z" fill="white"/>
<path d="M955.15 134.912H954.508V132.846C954.508 132.348 954.028 131.945 953.441 131.945H951.277V131.296H953.441C954.383 131.296 955.15 131.996 955.15 132.846V134.912Z" fill="white"/>
<path d="M946.288 134.912H945.646V132.846C945.646 131.989 946.413 131.296 947.354 131.296H949.207V131.945H947.354C946.768 131.945 946.288 132.348 946.288 132.846V134.912Z" fill="white"/>
<path d="M949.525 130.358H948.882V131.636H949.525V130.358Z" fill="white"/>
<path d="M951.858 130.358H951.215V131.636H951.858V130.358Z" fill="white"/>
<path d="M950.398 130.742C948.72 130.742 947.348 129.375 947.348 127.694V126.346H947.991V127.694C947.991 129.016 949.069 130.093 950.398 130.093C951.726 130.093 952.805 129.016 952.805 127.694V125.08H953.448V127.694C953.448 129.375 952.082 130.742 950.398 130.742Z" fill="white"/>
<path d="M947.491 128.657L946.132 124.406V124.356C946.132 123.575 946.768 122.938 947.541 122.938H947.866C948.19 122.535 948.683 122.302 949.207 122.302H954.645V123.776C954.645 124.733 953.872 125.508 952.917 125.508H948.433C948.19 125.508 947.984 125.71 947.984 125.949V127.297L947.485 128.651L947.491 128.657ZM946.781 124.311L947.348 126.088V125.955C947.348 125.351 947.835 124.866 948.439 124.866H952.924C953.522 124.866 954.009 124.381 954.009 123.782V122.957H949.213C948.845 122.957 948.508 123.14 948.302 123.449L948.209 123.593H947.554C947.142 123.593 946.812 123.915 946.787 124.311H946.781Z" fill="white"/>
<path d="M962.347 138.414H942.234V136.02H962.347V138.414ZM942.876 137.765H961.705V136.669H942.876V137.765Z" fill="white"/>
<path d="M950.648 132.48H950.005V134.912H950.648V132.48Z" fill="white"/>
<path d="M959.259 136.278H958.617V131.359C958.617 131.019 958.312 130.604 957.956 130.478L957.9 130.452L957.589 130.263L957.919 129.703L958.206 129.873C958.798 130.106 959.259 130.748 959.259 131.353V136.272V136.278Z" fill="white"/>
<path d="M957.04 130.767C956.953 130.767 956.865 130.755 956.778 130.736L956.217 130.585C955.955 130.515 955.736 130.345 955.599 130.112C955.468 129.879 955.431 129.608 955.499 129.344C955.618 128.903 956.017 128.594 956.479 128.594C956.566 128.594 956.653 128.607 956.741 128.626L957.302 128.777C957.564 128.846 957.782 129.016 957.919 129.256C958.05 129.489 958.088 129.759 958.019 130.024C957.9 130.465 957.501 130.773 957.04 130.773V130.767ZM956.479 129.237C956.31 129.237 956.167 129.35 956.123 129.508C956.098 129.602 956.111 129.696 956.16 129.778C956.21 129.867 956.291 129.923 956.385 129.948L956.946 130.1C957.146 130.15 957.345 130.03 957.395 129.841C957.42 129.747 957.408 129.652 957.358 129.57C957.308 129.482 957.227 129.426 957.133 129.4L956.572 129.249C956.541 129.243 956.51 129.237 956.479 129.237Z" fill="white"/>
<path d="M950.385 133.482L948.901 131.882L949.369 131.435L950.385 132.531L951.402 131.435L951.87 131.882L950.385 133.482Z" fill="white"/>
<path d="M642.298 378.88H629.606C624.578 378.88 620.501 382.997 620.501 388.076V401.176C620.501 406.255 624.578 410.372 629.606 410.372H642.298C647.327 410.372 651.403 406.255 651.403 401.176V388.076C651.403 382.997 647.327 378.88 642.298 378.88Z" fill="#BF7251"/>
<path d="M629.731 385.777C630.217 385.764 630.704 385.846 631.159 386.023C631.608 386.199 632.032 386.476 632.4 386.841C632.937 387.383 633.273 388.057 633.398 388.762C633.51 389.398 633.46 390.06 633.236 390.671L640.171 397.675C640.745 397.46 641.362 397.41 641.955 397.517C642.622 397.637 643.258 397.958 643.776 398.474C644.443 399.148 644.78 400.036 644.78 400.918C644.78 401.8 644.443 402.688 643.776 403.362C643.108 404.036 642.229 404.376 641.356 404.376C640.483 404.376 639.603 404.036 638.936 403.362C638.45 402.871 638.138 402.266 638.007 401.63C637.888 401.063 637.913 400.471 638.082 399.917L631.084 392.85C630.479 393.07 629.824 393.127 629.195 393.014C628.496 392.888 627.829 392.548 627.292 392.006C626.931 391.641 626.656 391.212 626.482 390.753C626.301 390.28 626.22 389.776 626.238 389.279L626.619 389.291L626.232 389.279C626.238 389.065 626.419 388.901 626.631 388.907C626.731 388.907 626.825 388.958 626.887 389.021L627.486 389.625L628.222 390.368C628.222 390.368 629.145 390.123 629.232 390.098L630.217 389.833C630.217 389.833 630.716 388.044 630.772 387.818C630.567 387.622 630.267 387.276 630.043 387.049L629.438 386.438C629.288 386.287 629.288 386.041 629.438 385.89C629.519 385.808 629.625 385.771 629.725 385.777H629.731ZM642.909 400.503L642.672 399.602L641.78 399.363L640.888 399.123L640.233 399.785L639.578 400.446L639.815 401.347L640.052 402.247L640.944 402.487L641.836 402.726L642.491 402.065L643.146 401.403L642.909 400.503Z" fill="white"/>
<path fill-rule="evenodd" clip-rule="evenodd" d="M630.267 386.419L630.467 386.621C630.71 386.867 630.935 387.144 631.184 387.377L631.446 387.622L631.353 387.975C631.197 388.561 630.953 389.38 630.835 389.833L630.947 390.261L629.388 390.683C629.22 390.727 629.057 390.772 628.889 390.822C628.559 390.91 628.103 391.105 627.804 390.797L626.925 389.909H626.868C626.9 390.123 626.956 390.331 627.037 390.532C627.186 390.923 627.417 391.275 627.71 391.578C628.147 392.019 628.696 392.308 629.301 392.415C629.825 392.51 630.373 392.466 630.879 392.283L631.24 392.151L638.762 399.747L638.656 400.093C638.518 400.553 638.5 401.038 638.593 401.51C638.705 402.052 638.967 402.55 639.36 402.94C639.89 403.475 640.608 403.778 641.356 403.778C642.104 403.778 642.822 403.482 643.352 402.94C643.882 402.405 644.181 401.68 644.181 400.925C644.181 400.169 643.888 399.444 643.352 398.909C642.94 398.493 642.422 398.223 641.849 398.115C641.356 398.027 640.845 398.071 640.377 398.248L640.015 398.38L632.537 390.828L632.668 390.463C632.849 389.953 632.899 389.405 632.799 388.869C632.687 388.258 632.4 387.704 631.97 387.263C631.677 386.967 631.328 386.734 630.935 386.583C630.716 386.495 630.492 386.445 630.261 386.413L630.267 386.419ZM643.158 399.104L643.819 401.586L642.921 402.493L642.023 403.4L640.795 403.066L639.566 402.732L639.236 401.491L638.905 400.251L640.707 398.43L641.936 398.764L643.165 399.098L643.158 399.104Z" fill="white"/>
<path d="M627.829 389.978L627.723 389.581L627.735 389.569L627.723 389.581L627.823 389.965L627.829 389.978Z" fill="white"/>
<path d="M629.887 388.995L629.968 389.405L629.887 388.995Z" fill="white"/>
<path d="M643.97 400.446L643.957 400.459L643.97 400.446Z" fill="white"/>
<path d="M644.25 400.162L644.256 400.156L644.25 400.162Z" fill="white"/>
<path d="M641.15 389.883L640.115 388.958C639.972 388.832 639.547 389.077 639.161 389.512L635.001 394.248C634.621 394.683 634.421 395.143 634.564 395.269L635.6 396.194C635.743 396.32 636.167 396.075 636.554 395.64L640.714 390.904C641.094 390.469 641.294 390.009 641.15 389.883Z" fill="white"/>
<path d="M639.728 390.139L635.532 394.918L635.77 395.131L639.966 390.352L639.728 390.139Z" fill="white"/>
<path d="M634.808 393.568L628.091 400.786C627.623 401.29 627.698 401.951 628.053 402.531C628.191 402.751 628.365 402.965 628.571 403.148C628.777 403.33 629.001 403.488 629.238 403.595C629.856 403.885 630.517 403.885 630.96 403.356L637.271 395.816C637.271 395.816 637.284 395.804 637.284 395.798C637.408 395.653 637.39 395.426 637.24 395.287L635.3 393.555C635.151 393.423 634.932 393.429 634.801 393.568H634.808Z" fill="white"/>
<path d="M627.885 402.203C627.904 402.247 627.922 402.298 627.947 402.342L635.506 393.738L635.406 393.644L627.891 402.203H627.885ZM629.413 403.664C629.463 403.683 629.507 403.696 629.556 403.715L637.078 395.149L636.978 395.054L629.413 403.671V403.664Z" fill="white"/>
<path d="M629.451 402.6C629.696 402.6 629.894 402.4 629.894 402.153C629.894 401.906 629.696 401.706 629.451 401.706C629.206 401.706 629.008 401.906 629.008 402.153C629.008 402.4 629.206 402.6 629.451 402.6Z" fill="white"/>
<path d="M645.772 390.753L644.63 389.726C644.505 389.613 644.312 389.619 644.194 389.739C644.1 389.82 643.982 389.858 643.863 389.858C643.745 389.858 643.62 389.814 643.52 389.726C643.42 389.638 643.364 389.518 643.352 389.399C643.339 389.273 643.364 389.147 643.439 389.04C643.533 388.907 643.508 388.718 643.389 388.611L640.664 386.167C640.533 386.048 640.333 386.06 640.215 386.193L640.14 386.274C639.061 385.248 636.679 383.258 634.134 385.834C634.009 385.96 634.009 386.161 634.134 386.287C634.253 386.407 634.44 386.413 634.564 386.3C635.232 385.79 635.968 385.985 636.647 386.451C637.321 386.911 637.945 387.629 638.419 388.221L638.25 388.41C638.132 388.542 638.144 388.743 638.275 388.863L641.001 391.307C641.125 391.42 641.319 391.414 641.437 391.294C641.531 391.212 641.649 391.175 641.768 391.175C641.886 391.175 642.011 391.219 642.111 391.307C642.21 391.395 642.267 391.515 642.279 391.634C642.292 391.76 642.267 391.886 642.192 391.993C642.098 392.126 642.123 392.315 642.242 392.422L643.383 393.442C643.514 393.562 643.713 393.549 643.832 393.417L645.784 391.194C645.903 391.061 645.89 390.86 645.759 390.74L645.772 390.753Z" fill="white"/>
<path d="M634.546 385.487C634.415 385.601 634.277 385.72 634.147 385.859C634.022 385.985 634.022 386.186 634.147 386.312C634.265 386.432 634.452 386.438 634.577 386.325C635.244 385.815 635.98 386.01 636.66 386.476C637.333 386.936 637.957 387.654 638.431 388.246L638.263 388.435C638.144 388.567 638.157 388.769 638.288 388.888L641.013 391.332C641.138 391.446 641.331 391.439 641.45 391.32C641.543 391.238 641.662 391.2 641.78 391.2C641.899 391.2 642.023 391.244 642.123 391.332C642.223 391.42 642.279 391.54 642.292 391.66C642.304 391.786 642.279 391.912 642.204 392.019C642.111 392.151 642.136 392.34 642.254 392.447L643.321 393.404L644.624 391.924C644.743 391.792 644.73 391.59 644.599 391.471L643.458 390.444C643.333 390.331 643.14 390.337 643.021 390.457C642.928 390.539 642.809 390.576 642.691 390.576C642.572 390.576 642.447 390.532 642.348 390.444C642.248 390.356 642.192 390.236 642.179 390.117C642.167 389.991 642.192 389.865 642.267 389.758C642.36 389.625 642.335 389.436 642.217 389.329L639.491 386.886C639.36 386.766 639.161 386.778 639.042 386.911L638.967 386.993C638.119 386.18 636.454 384.776 634.539 385.481L634.546 385.487Z" fill="white"/>
<path d="M645.772 390.753L644.63 389.726C644.506 389.613 644.312 389.619 644.194 389.739C644.1 389.82 643.982 389.858 643.863 389.858C643.745 389.858 643.62 389.814 643.52 389.726L642.123 391.313C642.223 391.401 642.279 391.521 642.292 391.641C642.304 391.767 642.279 391.893 642.204 392C642.111 392.132 642.136 392.321 642.254 392.428L643.395 393.448C643.526 393.568 643.726 393.555 643.844 393.423L645.796 391.2C645.915 391.068 645.903 390.866 645.772 390.746V390.753Z" fill="white"/>
<path d="M642.167 287.1H629.475C624.446 287.1 620.37 291.217 620.37 296.296V309.396C620.37 314.475 624.446 318.592 629.475 318.592H642.167C647.196 318.592 651.272 314.475 651.272 309.396V296.296C651.272 291.217 647.196 287.1 642.167 287.1Z" fill="#FF9500"/>
<path d="M631.758 294.532C631.621 294.608 631.59 294.683 631.59 294.935C631.59 295.143 631.608 295.193 631.683 295.275C631.739 295.338 631.82 295.37 631.889 295.37C631.976 295.37 632.001 295.389 632.001 295.445C632.001 295.521 631.976 295.521 631.378 295.521C630.86 295.521 630.748 295.527 630.698 295.584C630.642 295.641 630.635 295.987 630.635 298.853V302.052H630.442V298.872C630.442 296.056 630.436 295.685 630.38 295.603C630.324 295.521 630.305 295.521 629.457 295.521C628.471 295.521 628.297 295.552 628.097 295.754C627.841 296.031 627.854 295.836 627.854 298.935C627.854 300.818 627.86 301.775 627.891 301.844C627.91 301.901 627.985 302.008 628.053 302.077C628.284 302.329 628.315 302.336 629.27 302.342L630.136 302.361V302.751L630.118 303.142L629.968 303.161L629.818 303.18L629.706 303.52C629.631 303.765 629.613 303.885 629.631 303.923C629.662 303.98 629.793 303.986 630.517 303.986C631.24 303.986 631.365 303.98 631.403 303.923C631.427 303.885 631.409 303.772 631.328 303.52L631.215 303.18H631.072L630.929 303.161V302.361H631.209C631.664 302.361 631.889 302.254 632.064 301.964C632.113 301.889 632.307 301.391 632.494 300.843L632.843 299.848H634.789C636.66 299.829 636.741 299.842 636.884 299.905C637.072 299.999 637.221 300.182 637.271 300.364C637.296 300.459 637.309 301.183 637.302 302.474V304.433L637.184 304.597C637.121 304.685 636.997 304.798 636.922 304.842C636.772 304.918 636.716 304.924 634.658 304.931H632.544L632.369 304.666L632.182 304.389H629.787L627.386 304.408L627.18 304.502C626.906 304.635 626.7 304.842 626.569 305.107L626.476 305.327V308.981L626.569 309.201C626.7 309.478 626.9 309.68 627.168 309.806L627.386 309.9H630.542C633.454 309.919 633.698 309.906 633.76 309.85C633.835 309.787 633.835 309.686 633.835 307.809V305.838H634.109V307.834C634.109 309.768 634.109 309.831 634.184 309.875C634.278 309.925 644.025 309.932 644.237 309.875C644.443 309.825 644.68 309.648 644.768 309.472C644.849 309.321 644.849 309.302 644.855 304.521V299.734H644.998C645.086 299.734 645.167 299.703 645.254 299.621L645.385 299.508V297.284L645.254 297.171C645.173 297.095 645.092 297.058 645.005 297.058H644.874L644.855 296.566C644.849 296.081 644.836 296.063 644.724 295.905C644.574 295.678 644.35 295.565 644.038 295.533C643.876 295.521 643.795 295.477 643.795 295.401C643.795 295.338 643.757 295.25 643.701 295.2C643.626 295.124 643.57 295.105 643.408 295.105C643.134 295.105 643.034 295.181 643.034 295.382V295.533H642.666L642.647 295.13C642.641 294.752 642.628 294.727 642.535 294.626C642.385 294.475 642.148 294.482 642.005 294.645C641.899 294.759 641.899 294.784 641.899 295.149V295.527H637.358C632.843 295.527 632.818 295.527 632.818 295.452C632.818 295.389 632.843 295.376 632.93 295.376C633.005 295.376 633.08 295.344 633.136 295.281C633.217 295.206 633.23 295.149 633.23 294.96C633.23 294.526 633.174 294.5 632.407 294.5C632.039 294.494 631.783 294.519 631.733 294.538L631.758 294.532ZM632.918 294.929C632.918 295.061 632.918 295.067 632.768 295.067C632.656 295.067 632.6 295.093 632.563 295.149C632.488 295.244 632.481 295.584 632.538 295.729L632.575 295.823H637.34C641.225 295.823 642.111 295.817 642.142 295.773C642.167 295.748 642.192 295.521 642.198 295.263C642.204 294.885 642.223 294.809 642.273 294.809C642.323 294.809 642.335 294.891 642.348 295.263C642.348 295.521 642.373 295.748 642.404 295.773C642.429 295.804 642.566 295.823 642.853 295.823C643.308 295.823 643.339 295.804 643.339 295.54C643.339 295.426 643.358 295.401 643.414 295.401C643.477 295.401 643.489 295.426 643.489 295.565C643.489 295.653 643.508 295.754 643.539 295.773C643.564 295.798 643.701 295.823 643.857 295.823C644.194 295.823 644.375 295.899 644.474 296.056C644.537 296.17 644.549 296.251 644.549 296.705C644.549 296.988 644.568 297.247 644.587 297.278C644.605 297.31 644.705 297.341 644.842 297.354L645.067 297.373V299.426L644.842 299.445C644.705 299.451 644.612 299.483 644.587 299.52C644.562 299.558 644.549 301.467 644.549 304.402C644.549 309.673 644.555 309.365 644.331 309.522C644.225 309.598 644.075 309.598 639.304 309.598H634.377L634.359 307.582L634.34 305.567H633.542V307.589L633.523 309.617H630.561C628.49 309.617 627.542 309.61 627.424 309.579C627.193 309.516 626.906 309.258 626.825 309.018C626.738 308.754 626.738 305.573 626.825 305.315C626.9 305.113 627.068 304.924 627.28 304.805C627.43 304.723 627.467 304.723 629.712 304.698L631.995 304.679L632.076 304.773C632.126 304.83 632.163 304.88 632.163 304.893C632.163 304.905 631.353 304.924 630.361 304.924H628.552L628.29 305.277C628.141 305.472 628.016 305.649 628.016 305.674C628.016 305.806 628.097 305.806 630.548 305.794H632.974L632.98 305.686C632.987 305.623 632.949 305.535 632.874 305.428C632.812 305.34 632.762 305.252 632.762 305.227C632.762 305.201 633.461 305.189 634.801 305.189H636.841L637.04 305.094C637.265 304.981 637.408 304.83 637.521 304.578C637.595 304.408 637.602 304.351 637.602 302.355C637.602 300.068 637.608 300.169 637.327 299.854C637.246 299.766 637.109 299.659 637.034 299.609C636.884 299.527 636.847 299.527 634.783 299.514C633.118 299.508 632.675 299.514 632.656 299.552C632.637 299.577 632.456 300.056 632.263 300.604C631.752 302.059 631.783 302.021 631.272 302.033L630.935 302.052V295.829H631.59L632.244 295.811V295.496C632.263 295.118 632.238 295.067 632.026 295.067C631.883 295.067 631.876 295.067 631.876 294.929V294.79H632.899L632.918 294.922V294.929ZM630.143 298.941V302.052H629.357C628.484 302.052 628.39 302.027 628.228 301.807C628.147 301.7 628.147 301.668 628.147 298.935C628.147 296.201 628.147 296.176 628.228 296.063C628.39 295.842 628.484 295.817 629.357 295.817H630.143V298.928V298.941ZM630.642 302.846C630.642 303.394 630.673 303.469 630.891 303.469C630.997 303.469 631.022 303.488 631.053 303.583L631.091 303.696H629.987L630.012 303.608C630.018 303.558 630.037 303.514 630.037 303.495C630.037 303.476 630.099 303.469 630.174 303.469C630.255 303.469 630.336 303.438 630.38 303.394C630.455 303.318 630.455 303.262 630.455 302.833V302.355H630.648V302.84L630.642 302.846ZM632.469 305.359L632.581 305.523L630.561 305.542C629.45 305.542 628.527 305.542 628.521 305.535C628.515 305.529 628.552 305.447 628.608 305.365L628.715 305.214H632.35L632.469 305.365V305.359Z" stroke="white" stroke-width="0.843091" stroke-miterlimit="10"/>
<path d="M639.13 297.404C639.08 297.423 639.011 297.486 638.967 297.543C638.893 297.637 638.886 297.687 638.886 298.393C638.886 299.023 638.893 299.161 638.949 299.249C639.028 299.388 639.685 299.464 640.919 299.476C641.861 299.482 642.728 299.476 642.834 299.47C643.002 299.445 643.065 299.413 643.171 299.319L643.302 299.186V298.418C643.302 297.587 643.296 297.543 643.077 297.423C642.984 297.373 642.684 297.366 641.094 297.366C640.053 297.373 639.173 297.391 639.13 297.404ZM642.978 298.38C642.984 298.997 642.978 299.073 642.921 299.117C642.872 299.155 642.441 299.168 641.063 299.168H639.261L639.204 299.086C639.155 299.01 639.142 298.884 639.142 298.405C639.142 298.072 639.161 297.782 639.179 297.744C639.217 297.669 639.267 297.669 641.094 297.681H642.965L642.971 298.387L642.978 298.38Z" stroke="white" stroke-width="0.843091" stroke-miterlimit="10"/>
<path d="M640.452 300.541C640.34 300.597 640.165 300.736 640.065 300.849C639.816 301.126 639.716 301.41 639.703 301.8C639.703 302.065 639.722 302.147 639.822 302.367C639.972 302.688 640.19 302.909 640.508 303.06C640.732 303.167 640.801 303.18 641.082 303.18C641.499 303.18 641.786 303.06 642.067 302.751C642.585 302.203 642.597 301.41 642.104 300.843C641.917 300.635 641.543 300.421 641.369 300.44H641.25L641.231 301.152C641.213 301.769 641.206 301.863 641.15 301.901C641.1 301.933 641.063 301.933 641.013 301.901C640.951 301.863 640.938 301.769 640.926 301.152L640.907 300.446H640.77C640.682 300.44 640.564 300.471 640.433 300.534L640.452 300.541ZM640.795 302.115C640.969 302.279 641.169 302.292 641.337 302.166C641.512 302.027 641.543 301.882 641.543 301.309V300.786L641.662 300.862C642.111 301.126 642.31 301.807 642.061 302.279C641.942 302.525 641.668 302.764 641.437 302.846C640.614 303.129 639.797 302.355 640.034 301.517C640.109 301.252 640.227 301.082 640.433 300.912L640.601 300.774L640.62 301.378L640.639 301.983L640.789 302.122L640.795 302.115Z" stroke="white" stroke-width="0.843091" stroke-miterlimit="10"/>
<path d="M639.523 303.822C639.385 303.904 639.348 304.068 639.348 304.528C639.348 304.987 639.348 304.981 639.46 305.088L639.572 305.202H641.088C642.048 305.202 642.616 305.183 642.672 305.164C642.815 305.088 642.859 304.918 642.859 304.49C642.859 304.263 642.84 304.043 642.809 303.986C642.722 303.778 642.678 303.778 641.082 303.778C640.14 303.784 639.566 303.803 639.529 303.828L639.523 303.822ZM642.535 304.483C642.535 304.805 642.529 304.887 642.472 304.905C642.441 304.912 641.818 304.931 641.088 304.931C640.358 304.931 639.735 304.924 639.703 304.905C639.653 304.887 639.641 304.811 639.641 304.483V304.087H642.522V304.483H642.541H642.535Z" stroke="white" stroke-width="0.843091" stroke-miterlimit="10"/>
<path d="M642.098 195.918H629.407C624.378 195.918 620.301 200.035 620.301 205.114V218.214C620.301 223.293 624.378 227.41 629.407 227.41H642.098C647.127 227.41 651.204 223.293 651.204 218.214V205.114C651.204 200.035 647.127 195.918 642.098 195.918Z" fill="#8A9AFF"/>
<path d="M443.213 68.7407H430.522C425.493 68.7407 421.416 72.8578 421.416 77.9364V91.0371C421.416 96.1157 425.493 100.233 430.522 100.233H443.213C448.242 100.233 452.319 96.1157 452.319 91.0371V77.9364C452.319 72.8578 448.242 68.7407 443.213 68.7407Z" fill="#4BD5F9"/>
<path d="M617.838 68.7407H605.146C600.118 68.7407 596.041 72.8578 596.041 77.9364V91.0371C596.041 96.1157 600.118 100.233 605.146 100.233H617.838C622.867 100.233 626.943 96.1157 626.943 91.0371V77.9364C626.943 72.8578 622.867 68.7407 617.838 68.7407Z" fill="#4BD5F9"/>
<path d="M696.338 51.6406H521.85V117.333H696.338V51.6406Z" fill="white" stroke="#DEE3ED" stroke-width="8.43091" stroke-miterlimit="10"/>
<path d="M642.161 214.448H629.163C628.976 214.448 628.82 214.605 628.82 214.794V218.939C628.82 219.128 628.976 219.285 629.163 219.285H642.161C642.348 219.285 642.504 219.128 642.504 218.939V214.794C642.504 214.605 642.348 214.448 642.161 214.448ZM641.818 218.592H629.506V215.141H641.818V218.592Z" fill="white"/>
<path d="M635.662 218.246C636.417 218.246 637.028 217.628 637.028 216.866C637.028 216.104 636.417 215.487 635.662 215.487C634.907 215.487 634.296 216.104 634.296 216.866C634.296 217.628 634.907 218.246 635.662 218.246ZM635.662 216.174C636.042 216.174 636.348 216.482 636.348 216.866C636.348 217.251 636.042 217.559 635.662 217.559C635.282 217.559 634.976 217.251 634.976 216.866C634.976 216.482 635.282 216.174 635.662 216.174Z" fill="white"/>
<path d="M642.161 208.918H629.163C628.976 208.918 628.82 209.075 628.82 209.264V213.409C628.82 213.598 628.976 213.755 629.163 213.755H642.161C642.348 213.755 642.504 213.598 642.504 213.409V209.264C642.504 209.075 642.348 208.918 642.161 208.918ZM641.818 213.062H629.506V209.611H641.818V213.062Z" fill="white"/>
<path d="M635.662 212.716C636.417 212.716 637.028 212.098 637.028 211.336C637.028 210.574 636.417 209.957 635.662 209.957C634.907 209.957 634.296 210.574 634.296 211.336C634.296 212.098 634.907 212.716 635.662 212.716ZM635.662 210.644C636.042 210.644 636.348 210.952 636.348 211.336C636.348 211.721 636.042 212.029 635.662 212.029C635.282 212.029 634.976 211.721 634.976 211.336C634.976 210.952 635.282 210.644 635.662 210.644Z" fill="white"/>
<path d="M642.161 203.394H629.163C628.976 203.394 628.82 203.552 628.82 203.741V207.885C628.82 208.074 628.976 208.231 629.163 208.231H642.161C642.348 208.231 642.504 208.074 642.504 207.885V203.741C642.504 203.552 642.348 203.394 642.161 203.394ZM641.818 207.539H629.506V204.087H641.818V207.539Z" fill="white"/>
<path d="M635.662 207.192C636.417 207.192 637.028 206.575 637.028 205.813C637.028 205.051 636.417 204.433 635.662 204.433C634.907 204.433 634.296 205.051 634.296 205.813C634.296 206.575 634.907 207.192 635.662 207.192ZM635.662 205.12C636.042 205.12 636.348 205.428 636.348 205.813C636.348 206.197 636.042 206.506 635.662 206.506C635.282 206.506 634.976 206.197 634.976 205.813C634.976 205.428 635.282 205.12 635.662 205.12Z" fill="white"/>
<path d="M643.19 201.668H628.141C627.573 201.668 627.118 202.135 627.112 202.708V219.978C627.112 220.551 627.573 221.011 628.141 221.017H628.827V222.743C628.827 222.932 628.983 223.089 629.17 223.089H632.251C632.4 223.089 632.531 222.995 632.575 222.856L633.18 221.017H638.157L638.762 222.856C638.805 222.995 638.936 223.089 639.086 223.089H642.167C642.354 223.089 642.51 222.932 642.51 222.743V221.017H643.196C643.763 221.017 644.219 220.551 644.225 219.978V202.708C644.225 202.135 643.763 201.675 643.196 201.668H643.19ZM632.001 222.39H629.513V221.011H632.456L632.001 222.39ZM641.824 222.39H639.335L638.88 221.011H641.824V222.39ZM643.533 219.972C643.533 220.161 643.377 220.318 643.19 220.318H628.141C627.954 220.318 627.798 220.161 627.798 219.972V202.701C627.798 202.512 627.954 202.355 628.141 202.355H643.19C643.377 202.355 643.533 202.512 643.533 202.701V219.972Z" fill="white"/>
<path fill-rule="evenodd" clip-rule="evenodd" d="M610.984 76.9851C614.794 76.9851 617.875 80.3422 617.875 84.4802C617.875 88.6183 614.788 91.9753 610.984 91.9753C607.18 91.9753 604.092 88.6183 604.092 84.4802C604.092 80.3422 607.18 76.9851 610.984 76.9851ZM610.984 80.3925C613.061 80.3925 614.745 82.2254 614.745 84.4802C614.745 86.735 613.061 88.5679 610.984 88.5679C608.907 88.5679 607.223 86.735 607.223 84.4802C607.223 82.2254 608.907 80.3925 610.984 80.3925Z" fill="white"/>
<path d="M610.984 87.9884C612.761 87.9884 614.202 86.4206 614.202 84.4865C614.202 82.5525 612.761 80.9846 610.984 80.9846C609.207 80.9846 607.766 82.5525 607.766 84.4865C607.766 86.4206 609.207 87.9884 610.984 87.9884Z" fill="white"/>
<path fill-rule="evenodd" clip-rule="evenodd" d="M620.401 75.4861C621.686 75.4861 622.721 77.6086 622.721 79.5612C622.721 82.893 618.075 82.893 618.075 79.5612C618.075 77.6086 619.116 75.4861 620.395 75.4861H620.401Z" fill="white"/>
<path fill-rule="evenodd" clip-rule="evenodd" d="M621.223 92.4855C621.223 92.8949 620.856 93.2287 620.401 93.2287C619.952 93.2287 619.578 92.8949 619.578 92.4855C619.578 87.8814 620.07 84.9589 620.07 80.4871H620.725C620.725 84.9589 621.217 87.8751 621.217 92.4855H621.223Z" fill="white"/>
<path fill-rule="evenodd" clip-rule="evenodd" d="M602.838 92.4855C602.838 92.8949 602.47 93.2287 602.015 93.2287C601.566 93.2287 601.192 92.8949 601.192 92.4855C601.192 87.8814 601.685 84.9589 601.685 80.4871H602.339C602.339 84.9589 602.831 87.8751 602.831 92.4855H602.838Z" fill="white"/>
<path fill-rule="evenodd" clip-rule="evenodd" d="M601.242 75.4861C600.294 79.8761 601.161 82.1687 602.028 82.1561C602.889 82.1435 603.743 79.8509 602.801 75.4861L602.714 79.8887H602.483L602.253 75.5554L602.115 79.8887H601.928L601.791 75.5554L601.567 79.8887H601.33L601.242 75.4861Z" fill="white"/>
<path fill-rule="evenodd" clip-rule="evenodd" d="M436.746 77.4766C440.557 77.4766 443.637 80.8336 443.637 84.9717C443.637 89.1097 440.55 92.4668 436.746 92.4668C432.942 92.4668 429.854 89.1097 429.854 84.9717C429.854 80.8336 432.942 77.4766 436.746 77.4766ZM436.746 80.884C438.823 80.884 440.507 82.7168 440.507 84.9717C440.507 87.2265 438.823 89.0593 436.746 89.0593C434.669 89.0593 432.985 87.2265 432.985 84.9717C432.985 82.7168 434.669 80.884 436.746 80.884Z" fill="white"/>
<path d="M436.746 88.4735C438.523 88.4735 439.964 86.9057 439.964 84.9716C439.964 83.0376 438.523 81.4697 436.746 81.4697C434.969 81.4697 433.528 83.0376 433.528 84.9716C433.528 86.9057 434.969 88.4735 436.746 88.4735Z" fill="white"/>
<path fill-rule="evenodd" clip-rule="evenodd" d="M446.169 75.9712C447.454 75.9712 448.489 78.0938 448.489 80.0463C448.489 83.3781 443.843 83.3781 443.843 80.0463C443.843 78.0938 444.885 75.9712 446.163 75.9712H446.169Z" fill="white"/>
<path fill-rule="evenodd" clip-rule="evenodd" d="M446.992 92.9706C446.992 93.38 446.624 93.7138 446.169 93.7138C445.72 93.7138 445.346 93.38 445.346 92.9706C445.346 88.3665 445.839 85.444 445.839 80.9722H446.493C446.493 85.444 446.985 88.3602 446.985 92.9706H446.992Z" fill="white"/>
<path fill-rule="evenodd" clip-rule="evenodd" d="M428.606 92.9706C428.606 93.38 428.238 93.7138 427.783 93.7138C427.335 93.7138 426.961 93.38 426.961 92.9706C426.961 88.3665 427.453 85.444 427.453 80.9722H428.107C428.107 85.444 428.6 88.3602 428.6 92.9706H428.606Z" fill="white"/>
<path fill-rule="evenodd" clip-rule="evenodd" d="M427.004 75.9712C426.056 80.3612 426.923 82.6538 427.79 82.6412C428.651 82.6286 429.505 80.336 428.564 75.9712L428.476 80.3738H428.246L428.015 76.0405L427.878 80.3738H427.69L427.553 76.0405L427.329 80.3738H427.092L427.004 75.9712Z" fill="white"/>
<path d="M791.621 67.21H778.929C773.9 67.21 769.824 71.327 769.824 76.4056V89.5063C769.824 94.5849 773.9 98.702 778.929 98.702H791.621C796.649 98.702 800.726 94.5849 800.726 89.5063V76.4056C800.726 71.327 796.649 67.21 791.621 67.21Z" fill="#4BD5F9"/>
<path fill-rule="evenodd" clip-rule="evenodd" d="M784.748 74.957C788.558 74.957 791.639 78.3141 791.639 82.4521C791.639 86.5902 788.552 89.9472 784.748 89.9472C780.943 89.9472 777.856 86.5902 777.856 82.4521C777.856 78.3141 780.943 74.957 784.748 74.957ZM784.748 78.3645C786.825 78.3645 788.508 80.1973 788.508 82.4521C788.508 84.707 786.825 86.5398 784.748 86.5398C782.671 86.5398 780.987 84.707 780.987 82.4521C780.987 80.1973 782.671 78.3645 784.748 78.3645Z" fill="white"/>
<path d="M784.748 85.954C786.525 85.954 787.966 84.3862 787.966 82.4521C787.966 80.5181 786.525 78.9502 784.748 78.9502C782.97 78.9502 781.53 80.5181 781.53 82.4521C781.53 84.3862 782.97 85.954 784.748 85.954Z" fill="white"/>
<path fill-rule="evenodd" clip-rule="evenodd" d="M794.171 73.4517C795.456 73.4517 796.491 75.5742 796.491 77.5267C796.491 80.8586 791.845 80.8586 791.845 77.5267C791.845 75.5742 792.886 73.4517 794.165 73.4517H794.171Z" fill="white"/>
<path fill-rule="evenodd" clip-rule="evenodd" d="M794.993 90.4511C794.993 90.8605 794.626 91.1943 794.171 91.1943C793.722 91.1943 793.348 90.8605 793.348 90.4511C793.348 85.847 793.84 82.9245 793.84 78.4526H794.495C794.495 82.9245 794.987 85.8407 794.987 90.4511H794.993Z" fill="white"/>
<path fill-rule="evenodd" clip-rule="evenodd" d="M776.608 90.4511C776.608 90.8605 776.24 91.1943 775.785 91.1943C775.337 91.1943 774.963 90.8605 774.963 90.4511C774.963 85.847 775.455 82.9245 775.455 78.4526H776.109C776.109 82.9245 776.602 85.8407 776.602 90.4511H776.608Z" fill="white"/>
<path fill-rule="evenodd" clip-rule="evenodd" d="M775.006 73.4517C774.058 77.8416 774.925 80.1343 775.792 80.1217C776.653 80.1091 777.507 77.8165 776.565 73.4517L776.478 77.8542H776.247L776.017 73.5209L775.879 77.8542H775.692L775.555 73.5209L775.331 77.8542H775.094L775.006 73.4517Z" fill="white"/>
<path d="M317.739 67.7896H305.048C300.019 67.7896 295.942 71.9066 295.942 76.9852V90.0859C295.942 95.1645 300.019 99.2816 305.048 99.2816H317.739C322.768 99.2816 326.845 95.1645 326.845 90.0859V76.9852C326.845 71.9066 322.768 67.7896 317.739 67.7896Z" fill="#594B97"/>
<path d="M316.316 76.076L312.573 81.114L313.571 81.87L317.314 76.8319L316.316 76.076Z" fill="white"/>
<path d="M319.311 89.878L318.126 89.4749C318.644 87.9003 318.718 87.8184 318.718 87.176C318.718 85.4187 317.378 85.4754 316.38 82.9498C315.85 81.6019 315.912 80.084 316.554 78.7865C316.748 78.396 316.847 77.9614 316.847 77.5268C316.866 76.5947 316.137 75.8263 315.214 75.8011C315.126 75.8011 315.033 75.8011 314.945 75.82L312.6 76.4498L312.301 75.1901C314.733 74.5603 314.796 74.5603 315.132 74.5603C317.353 74.5603 318.837 76.9222 317.627 79.3534C316.735 81.161 317.446 83.1324 318.874 84.5433C319.579 85.2613 319.966 86.2438 319.935 87.2579C319.935 88.083 319.716 88.5491 319.311 89.878Z" fill="white"/>
<path d="M314.945 92.1958H309.956V93.4555H314.945V92.1958Z" fill="white"/>
<path d="M313.698 84.6377H311.203V92.1958H313.698V84.6377Z" fill="white"/>
<path d="M313.698 79.5991H311.203C310.859 79.5991 310.58 79.8811 310.58 80.229V84.008C310.58 84.3559 310.859 84.6378 311.203 84.6378H313.698C314.042 84.6378 314.322 84.3559 314.322 84.008V80.229C314.322 79.8811 314.042 79.5991 313.698 79.5991Z" fill="white"/>
<path d="M310.58 80.8586V83.378H308.709C308.366 83.378 308.085 83.6614 308.085 84.0078V84.6377H305.59V83.378C305.59 81.9861 306.707 80.8586 308.085 80.8586H310.58Z" fill="white"/>
<path d="M308.085 85.8974H305.59C305.247 85.8974 304.967 85.6139 304.967 85.2675C304.967 84.9211 305.247 84.6377 305.59 84.6377H308.085C308.428 84.6377 308.709 84.9211 308.709 85.2675C308.709 85.6139 308.428 85.8974 308.085 85.8974Z" fill="white"/>
<path d="M313.074 75.8201H311.827V79.5991H313.074V75.8201Z" fill="white"/>
<path d="M312.451 77.0797C313.14 77.0797 313.698 76.5157 313.698 75.82C313.698 75.1243 313.14 74.5603 312.451 74.5603C311.762 74.5603 311.203 75.1243 311.203 75.82C311.203 76.5157 311.762 77.0797 312.451 77.0797Z" fill="white"/>
<path d="M308.085 89.6766C308.085 90.3694 307.524 90.9363 306.838 90.9363C306.152 90.9363 305.59 90.3694 305.59 89.6766C305.59 88.4169 306.838 87.1572 306.838 87.1572C306.838 87.1572 308.085 88.4169 308.085 89.6766Z" fill="white"/>
<path d="M443.712 253.781H431.021C425.992 253.781 421.915 257.898 421.915 262.977V276.078C421.915 281.156 425.992 285.273 431.021 285.273H443.712C448.741 285.273 452.818 281.156 452.818 276.078V262.977C452.818 257.898 448.741 253.781 443.712 253.781Z" fill="#9CEF0A"/>
<path d="M440.444 280.827H433.646V276.197L429.561 278.565L425.957 272.406L430.054 269.974L425.932 267.543L429.568 261.383L433.646 263.752V259.122H440.444V263.752L444.51 261.383L448.103 267.543L444.005 269.974L448.128 272.406L444.51 278.565L440.45 276.197V280.827H440.444ZM435.075 279.378H439.01V273.609L443.999 276.537L446.101 272.941L441.099 269.974L446.119 267.008L444.005 263.412L439.016 266.34V260.571H435.081V266.34L430.073 263.412L427.965 267.008L432.967 269.974L427.946 272.941L430.079 276.537L435.081 273.609V279.378H435.075Z" fill="white"/>
<path d="M443.999 299.923H430.435C428.327 299.923 426.618 301.649 426.618 303.778V317.672C426.618 319.801 428.327 321.527 430.435 321.527H443.999C446.107 321.527 447.816 319.801 447.816 317.672V303.778C447.816 301.649 446.107 299.923 443.999 299.923Z" fill="#5B5B5B"/>
<path d="M437.575 309.812L435.53 311.878C435.418 311.991 435.268 312.054 435.106 312.054H432.642V313.497H435.698C435.854 313.497 436.01 313.434 436.122 313.32L438.991 310.423L437.575 309.812Z" fill="white"/>
<path d="M433.141 314.643H431.314V310.902H433.141C433.347 310.902 433.515 311.072 433.515 311.28V314.259C433.515 314.466 433.347 314.637 433.141 314.637V314.643Z" fill="white"/>
<path d="M441.243 311.513C441.243 311.513 441.305 311.544 441.336 311.557C442.022 311.853 442.82 311.532 443.114 310.839C443.126 310.807 443.138 310.776 443.151 310.744L443.469 310.007L441.417 309.226L440.606 311.236L441.243 311.513Z" fill="white"/>
<path d="M431.712 316.148H430.659V309.39H431.712C431.918 309.39 432.086 309.56 432.086 309.768V315.77C432.086 315.978 431.918 316.148 431.712 316.148Z" fill="white"/>
<path d="M442.714 310.555L435.075 307.261C434.788 307.135 434.657 306.801 434.775 306.512L435.237 305.422C435.361 305.132 435.692 305 435.979 305.12L444.997 309.012C445.091 309.056 445.134 309.163 445.097 309.264L444.928 309.661C444.56 310.524 443.575 310.927 442.714 310.555Z" fill="white"/>
<path d="M442.89 309.799C443.127 309.799 443.32 309.605 443.32 309.365C443.32 309.125 443.127 308.93 442.89 308.93C442.652 308.93 442.459 309.125 442.459 309.365C442.459 309.605 442.652 309.799 442.89 309.799Z" fill="white"/>
<path d="M440.394 312.067L434.782 309.648C434.495 309.522 434.364 309.189 434.482 308.899L435.162 307.293L441.816 310.165L441.137 311.771C441.012 312.061 440.681 312.193 440.394 312.073V312.067Z" fill="white"/>
<path d="M442.159 209.441H432.281C427.252 209.441 423.175 213.558 423.175 218.636V228.871C423.175 233.95 427.252 238.067 432.281 238.067H442.159C447.188 238.067 451.265 233.95 451.265 228.871V218.636C451.265 213.558 447.188 209.441 442.159 209.441Z" fill="#9CEF0A"/>
<path d="M440.083 232.53H434.501V228.846L431.152 230.729L428.189 225.829L431.551 223.895L428.164 221.962L431.152 217.062L434.501 218.945V215.26H440.083V218.945L443.419 217.062L446.369 221.962L443.001 223.895L446.388 225.829L443.413 230.729L440.076 228.846V232.53H440.083ZM435.673 231.378H438.904V226.786L443.001 229.117L444.729 226.257L440.619 223.902L444.741 221.54L443.001 218.68L438.904 221.011V216.419H435.673V221.011L431.563 218.68L429.83 221.54L433.933 223.902L429.811 226.257L431.563 229.117L435.673 226.786V231.378Z" fill="white"/>
<path d="M956.934 494.544H944.242C939.214 494.544 935.137 498.661 935.137 503.74V516.84C935.137 521.919 939.214 526.036 944.242 526.036H956.934C961.963 526.036 966.039 521.919 966.039 516.84V503.74C966.039 498.661 961.963 494.544 956.934 494.544Z" fill="#8000FF"/>
<path d="M958.786 513.483L952.824 509.497C952.518 509.333 952.144 509.446 951.982 509.755C951.839 510.019 951.907 510.353 952.138 510.542L957.938 514.428H943.257L950.941 509.282L950.984 509.245C951.015 509.213 951.047 509.182 951.071 509.15C951.096 509.119 951.121 509.087 951.14 509.056C951.159 509.018 951.171 508.98 951.184 508.942C951.184 508.904 951.184 508.86 951.184 508.823V508.13C952.387 508.048 953.298 506.996 953.223 505.78C953.142 504.565 952.101 503.645 950.891 503.721C950.067 503.721 949.319 504.187 948.951 504.93L948.758 505.327C948.583 505.623 948.677 506.014 948.97 506.19C949.263 506.366 949.65 506.272 949.824 505.976C949.843 505.951 949.855 505.919 949.868 505.894L950.067 505.491C950.23 505.163 950.566 504.962 950.928 504.981C951.446 504.981 951.864 505.403 951.864 505.925C951.864 506.448 951.446 506.87 950.928 506.87H950.597C950.254 506.87 949.974 507.154 949.974 507.5V508.419L942.409 513.458C941.972 513.735 941.767 514.271 941.916 514.775C942.085 515.323 942.596 515.688 943.164 515.663H958.032C958.599 515.688 959.11 515.323 959.279 514.775C959.416 514.283 959.216 513.754 958.786 513.483Z" fill="white"/>
<path d="M442.933 395.231H430.241C425.212 395.231 421.136 399.348 421.136 404.427V417.527C421.136 422.606 425.212 426.723 430.241 426.723H442.933C447.961 426.723 452.038 422.606 452.038 417.527V404.427C452.038 399.348 447.961 395.231 442.933 395.231Z" fill="#4BD5F9"/>
<path d="M442.078 476.644H429.387C424.358 476.644 420.281 480.761 420.281 485.84V498.94C420.281 504.019 424.358 508.136 429.387 508.136H442.078C447.107 508.136 451.184 504.019 451.184 498.94V485.84C451.184 480.761 447.107 476.644 442.078 476.644Z" fill="#FF9500"/>
<path d="M435.648 487.616C436.337 487.616 436.896 487.052 436.896 486.356C436.896 485.66 436.337 485.096 435.648 485.096C434.959 485.096 434.401 485.66 434.401 486.356C434.401 487.052 434.959 487.616 435.648 487.616Z" fill="white"/>
<path d="M442.509 492.025H428.788V494.544H442.509V492.025Z" fill="white"/>
<path d="M442.509 496.434H428.788V498.953H442.509V496.434Z" fill="white"/>
<path d="M433.154 489.505V490.765H438.143V489.505C438.143 488.812 437.582 488.246 436.896 488.246H434.401C433.715 488.246 433.154 488.812 433.154 489.505Z" fill="white"/>
<path d="M444.835 410.504V409.767H443.644V406.725C444.024 406.524 444.155 406.077 443.937 405.724C443.793 405.497 443.531 405.359 443.251 405.359C443.182 405.359 443.114 405.371 443.045 405.384L440.775 403.28L440.924 403.135C441.367 402.713 441.355 402.033 440.9 401.624C440.451 401.221 439.74 401.221 439.297 401.624L438.548 402.316L436.746 403.034C436.546 403.116 436.453 403.33 436.54 403.519C436.559 403.564 436.59 403.601 436.621 403.633L438.767 405.617C438.923 405.762 439.172 405.762 439.328 405.617C439.365 405.585 439.39 405.548 439.409 405.503L440.182 403.828L440.22 403.797L442.49 405.9C442.471 405.963 442.459 406.026 442.459 406.089C442.459 406.354 442.608 406.593 442.858 406.725V409.767H441.667V410.504H441.268V407.198C441.268 406.996 441.093 406.832 440.868 406.832H439.677C439.459 406.832 439.278 406.996 439.278 407.198V407.935H438.486C438.268 407.935 438.087 408.098 438.087 408.3V410.504H431.738V409.767H434.12C434.339 409.767 434.52 409.604 434.52 409.402V404.993C434.52 404.792 434.345 404.628 434.12 404.628H428.564C428.345 404.628 428.164 404.792 428.164 404.993V409.402C428.164 409.604 428.339 409.767 428.564 409.767H430.946V410.504H428.171V411.241H428.963V418.963H429.755V418.226H444.043V418.963H444.835V411.241H445.627V410.504H444.835ZM438.904 404.716L437.594 403.501L438.679 403.066L439.372 403.708L438.904 404.716ZM440.363 402.619L439.839 403.104L439.328 402.631L439.852 402.146C439.995 402.014 440.22 402.014 440.363 402.146C440.507 402.279 440.507 402.487 440.363 402.619ZM440.07 408.3V407.563H440.469V410.139H440.07V408.3ZM438.879 408.665H439.278V410.133H438.879V408.665ZM428.956 409.031V405.352H433.721V409.031H428.956ZM444.037 417.489H429.749V411.241H444.037V417.489Z" fill="white"/>
<path d="M432.136 414.548H430.547V415.285H432.136V414.548Z" fill="white"/>
<path d="M433.721 416.022H430.547V416.759H433.721V416.022Z" fill="white"/>
<path d="M431.739 406.826H430.946V407.563H431.739V406.826Z" fill="white"/>
<path d="M614.632 68.4258H601.941C596.912 68.4258 592.835 72.5428 592.835 77.6214V90.7221C592.835 95.8008 596.912 99.9178 601.941 99.9178H614.632C619.661 99.9178 623.738 95.8008 623.738 90.7221V77.6214C623.738 72.5428 619.661 68.4258 614.632 68.4258Z" fill="#4BD5F9"/>
<path fill-rule="evenodd" clip-rule="evenodd" d="M608.165 77.1616C611.976 77.1616 615.056 80.5187 615.056 84.6567C615.056 88.7948 611.969 92.1518 608.165 92.1518C604.361 92.1518 601.274 88.7948 601.274 84.6567C601.274 80.5187 604.361 77.1616 608.165 77.1616ZM608.165 80.5691C610.242 80.5691 611.926 82.4019 611.926 84.6567C611.926 86.9115 610.242 88.7444 608.165 88.7444C606.088 88.7444 604.404 86.9115 604.404 84.6567C604.404 82.4019 606.088 80.5691 608.165 80.5691Z" fill="white"/>
<path d="M608.165 88.1586C609.942 88.1586 611.383 86.5907 611.383 84.6567C611.383 82.7226 609.942 81.1548 608.165 81.1548C606.388 81.1548 604.947 82.7226 604.947 84.6567C604.947 86.5907 606.388 88.1586 608.165 88.1586Z" fill="white"/>
<path fill-rule="evenodd" clip-rule="evenodd" d="M617.588 75.6626C618.873 75.6626 619.908 77.7852 619.908 79.7377C619.908 83.0695 615.262 83.0695 615.262 79.7377C615.262 77.7852 616.304 75.6626 617.582 75.6626H617.588Z" fill="white"/>
<path fill-rule="evenodd" clip-rule="evenodd" d="M618.404 92.6557C618.404 93.0651 618.037 93.3989 617.582 93.3989C617.133 93.3989 616.759 93.0651 616.759 92.6557C616.759 88.0516 617.251 85.1291 617.251 80.6572H617.906C617.906 85.1291 618.398 88.0453 618.398 92.6557H618.404Z" fill="white"/>
<path fill-rule="evenodd" clip-rule="evenodd" d="M600.025 92.6557C600.025 93.0651 599.657 93.3989 599.202 93.3989C598.753 93.3989 598.38 93.0651 598.38 92.6557C598.38 88.0516 598.872 85.1291 598.872 80.6572H599.526C599.526 85.1291 600.019 88.0453 600.019 92.6557H600.025Z" fill="white"/>
<path fill-rule="evenodd" clip-rule="evenodd" d="M598.423 75.6626C597.475 80.0526 598.342 82.3452 599.209 82.3326C600.07 82.32 600.924 80.0274 599.983 75.6626L599.895 80.0652H599.665L599.434 75.7319L599.297 80.0652H599.109L598.972 75.7319L598.748 80.0652H598.511L598.423 75.6626Z" fill="white"/>
<path d="M850.02 496.219C848.074 496.219 846.976 497.24 846.976 499.312V520.739C846.976 522.685 847.962 523.699 849.908 523.699H871.212C873.158 523.699 874.143 522.729 874.143 520.739V499.312C874.143 497.284 873.158 496.219 871.149 496.219C871.149 496.219 850.014 496.213 850.02 496.219Z" fill="#E3E3E3"/>
<path d="M850.407 516.475H854.18V512.595H857.928V508.697H861.738V504.861H865.518V501.057H871.131V502.997H867.401V506.82H863.616V510.693H859.836V514.548H856.044V518.434H850.407V516.475Z" fill="#B2B2B2"/>
</svg>
