<svg width="80" height="80" viewBox="0 0 80 80" fill="none" xmlns="http://www.w3.org/2000/svg">
<circle cx="40" cy="40" r="40" fill="#ED008C"/>
<path d="M51.3333 46.006L47.6891 43.4599C47.2126 43.1276 46.6556 42.9523 46.078 42.9523C45.1595 42.9523 44.2974 43.4028 43.7722 44.1564L42.9263 45.3688C41.5085 44.4179 39.9265 43.0902 38.4183 41.5823C36.9104 40.0745 35.583 38.4924 34.6324 37.0746L35.8442 36.2287C36.4619 35.7986 36.8745 35.1542 37.0055 34.4149C37.1362 33.676 36.9714 32.9295 36.5407 32.3115L33.9952 28.6674C33.4629 27.906 32.6041 27.4512 31.6974 27.4512C31.3832 27.4512 31.075 27.5067 30.7817 27.6149C30.4486 27.7379 30.1382 27.889 29.8339 28.0801L29.3307 28.4344C29.2049 28.5322 29.0879 28.6393 28.9758 28.7514C28.362 29.365 27.9264 30.1417 27.6805 31.0602C26.6316 34.9922 29.2302 40.938 34.1465 45.8544C38.2752 49.983 43.2353 52.5478 47.0906 52.5483H47.0909C47.7512 52.5483 48.3736 52.4714 48.941 52.3198C49.8595 52.0743 50.6362 51.6387 51.2503 51.0245C51.3619 50.913 51.4684 50.796 51.5827 50.6483L51.9373 50.1423C52.1106 49.8655 52.2614 49.5551 52.3861 49.2195C52.8148 48.0604 52.3819 46.7388 51.3333 46.006Z" fill="#F6EEFF"/>
</svg>
