<svg width="60" height="60" viewBox="0 0 60 60" fill="none" xmlns="http://www.w3.org/2000/svg">
<rect width="60" height="60" fill="#ED008C"/>
<path d="M39.4443 35.0053L36.4075 32.8836C36.0104 32.6066 35.5462 32.4606 35.0649 32.4606C34.2995 32.4606 33.5811 32.836 33.1434 33.464L32.4385 34.4743C31.257 33.6819 29.9386 32.5755 28.6818 31.3189C27.4253 30.0624 26.3191 28.744 25.5269 27.5625L26.5368 26.8576C27.0515 26.4991 27.3953 25.9622 27.5045 25.346C27.6134 24.7303 27.4761 24.1082 27.1172 23.5933L24.9959 20.5565C24.5524 19.922 23.8366 19.543 23.0811 19.543C22.8193 19.543 22.5625 19.5892 22.318 19.6794C22.0404 19.7819 21.7817 19.9078 21.5281 20.0671L21.1088 20.3624C21.004 20.4438 20.9065 20.5331 20.8131 20.6265C20.3016 21.1378 19.9386 21.7851 19.7337 22.5505C18.8596 25.8271 21.0251 30.782 25.122 34.879C28.5626 38.3195 32.696 40.4568 35.9088 40.4573H35.909C36.4592 40.4573 36.9779 40.3932 37.4508 40.2668C38.2161 40.0622 38.8634 39.6992 39.3752 39.1874C39.4681 39.0945 39.5569 38.997 39.6521 38.8739L39.9476 38.4523C40.0921 38.2216 40.2177 37.9629 40.3216 37.6832C40.6789 36.7173 40.3182 35.616 39.4443 35.0053Z" fill="white"/>
</svg>
