<svg width="143" height="140" viewBox="0 0 143 140" fill="none" xmlns="http://www.w3.org/2000/svg">
<path d="M5.71429 0H0V5.6H5.71429V0Z" fill="black"/>
<path d="M11.4286 0H5.71429V5.6H11.4286V0Z" fill="black"/>
<path d="M17.1429 0H11.4286V5.6H17.1429V0Z" fill="black"/>
<path d="M22.8571 0H17.1429V5.6H22.8571V0Z" fill="black"/>
<path d="M28.5714 0H22.8571V5.6H28.5714V0Z" fill="black"/>
<path d="M34.2857 0H28.5714V5.6H34.2857V0Z" fill="black"/>
<path d="M40 0H34.2857V5.6H40V0Z" fill="black"/>
<path d="M51.4286 0H45.7143V5.6H51.4286V0Z" fill="black"/>
<path d="M57.1429 0H51.4286V5.6H57.1429V0Z" fill="black"/>
<path d="M80 0H74.2857V5.6H80V0Z" fill="black"/>
<path d="M97.1429 0H91.4286V5.6H97.1429V0Z" fill="black"/>
<path d="M108.571 0H102.857V5.6H108.571V0Z" fill="black"/>
<path d="M114.286 0H108.571V5.6H114.286V0Z" fill="black"/>
<path d="M120 0H114.286V5.6H120V0Z" fill="black"/>
<path d="M125.714 0H120V5.6H125.714V0Z" fill="black"/>
<path d="M131.429 0H125.714V5.6H131.429V0Z" fill="black"/>
<path d="M137.143 0H131.429V5.6H137.143V0Z" fill="black"/>
<path d="M142.857 0H137.143V5.6H142.857V0Z" fill="black"/>
<path d="M5.71429 5.6H0V11.2H5.71429V5.6Z" fill="black"/>
<path d="M40 5.6H34.2857L34.2857 11.2H40V5.6Z" fill="black"/>
<path d="M74.2857 5.6H68.5714V11.2H74.2857V5.6Z" fill="black"/>
<path d="M80 5.6H74.2857V11.2H80V5.6Z" fill="black"/>
<path d="M97.1429 5.6H91.4286V11.2H97.1429V5.6Z" fill="black"/>
<path d="M108.571 5.6H102.857V11.2H108.571V5.6Z" fill="black"/>
<path d="M142.857 5.6H137.143V11.2H142.857V5.6Z" fill="black"/>
<path d="M5.71429 11.2H0V16.8H5.71429V11.2Z" fill="black"/>
<path d="M17.1429 11.2H11.4286V16.8H17.1429V11.2Z" fill="black"/>
<path d="M22.8571 11.2H17.1429V16.8H22.8571V11.2Z" fill="black"/>
<path d="M28.5714 11.2H22.8571V16.8H28.5714V11.2Z" fill="black"/>
<path d="M40 11.2H34.2857V16.8H40V11.2Z" fill="black"/>
<path d="M57.1429 11.2H51.4286V16.8H57.1429V11.2Z" fill="black"/>
<path d="M62.8571 11.2H57.1429V16.8H62.8571V11.2Z" fill="black"/>
<path d="M68.5714 11.2H62.8571V16.8H68.5714V11.2Z" fill="black"/>
<path d="M74.2857 11.2H68.5714V16.8H74.2857V11.2Z" fill="black"/>
<path d="M80 11.2H74.2857V16.8H80V11.2Z" fill="black"/>
<path d="M97.1429 11.2H91.4286V16.8H97.1429V11.2Z" fill="black"/>
<path d="M108.571 11.2H102.857V16.8H108.571V11.2Z" fill="black"/>
<path d="M120 11.2H114.286V16.8H120V11.2Z" fill="black"/>
<path d="M125.714 11.2H120V16.8H125.714V11.2Z" fill="black"/>
<path d="M131.429 11.2H125.714V16.8H131.429V11.2Z" fill="black"/>
<path d="M142.857 11.2H137.143V16.8H142.857V11.2Z" fill="black"/>
<path d="M5.71429 16.8H0V22.4H5.71429V16.8Z" fill="black"/>
<path d="M17.1429 16.8H11.4286V22.4H17.1429V16.8Z" fill="black"/>
<path d="M22.8571 16.8H17.1429V22.4H22.8571V16.8Z" fill="black"/>
<path d="M28.5714 16.8H22.8571V22.4H28.5714V16.8Z" fill="black"/>
<path d="M40 16.8H34.2857V22.4H40V16.8Z" fill="black"/>
<path d="M57.1429 16.8H51.4286V22.4H57.1429V16.8Z" fill="black"/>
<path d="M62.8571 16.8H57.1429V22.4H62.8571V16.8Z" fill="black"/>
<path d="M80 16.8H74.2857V22.4H80V16.8Z" fill="black"/>
<path d="M108.571 16.8H102.857V22.4H108.571V16.8Z" fill="black"/>
<path d="M120 16.8H114.286V22.4H120V16.8Z" fill="black"/>
<path d="M125.714 16.8H120V22.4H125.714V16.8Z" fill="black"/>
<path d="M131.429 16.8H125.714V22.4H131.429V16.8Z" fill="black"/>
<path d="M142.857 16.8H137.143V22.4H142.857V16.8Z" fill="black"/>
<path d="M5.71429 22.4H0V28H5.71429V22.4Z" fill="black"/>
<path d="M17.1429 22.4H11.4286V28H17.1429V22.4Z" fill="black"/>
<path d="M22.8571 22.4H17.1429V28H22.8571V22.4Z" fill="black"/>
<path d="M28.5714 22.4H22.8571V28H28.5714V22.4Z" fill="black"/>
<path d="M40 22.4H34.2857V28H40V22.4Z" fill="black"/>
<path d="M51.4286 22.4H45.7143V28H51.4286V22.4Z" fill="black"/>
<path d="M62.8571 22.4H57.1429V28H62.8571V22.4Z" fill="black"/>
<path d="M68.5714 22.4H62.8571V28H68.5714V22.4Z" fill="black"/>
<path d="M74.2857 22.4H68.5714V28H74.2857V22.4Z" fill="black"/>
<path d="M85.7143 22.4H80V28H85.7143V22.4Z" fill="black"/>
<path d="M108.571 22.4H102.857V28H108.571V22.4Z" fill="black"/>
<path d="M120 22.4H114.286V28H120V22.4Z" fill="black"/>
<path d="M125.714 22.4H120V28H125.714V22.4Z" fill="black"/>
<path d="M131.429 22.4H125.714V28H131.429V22.4Z" fill="black"/>
<path d="M142.857 22.4H137.143V28H142.857V22.4Z" fill="black"/>
<path d="M5.71429 28H0V33.6H5.71429V28Z" fill="black"/>
<path d="M40 28H34.2857V33.6H40V28Z" fill="black"/>
<path d="M85.7143 28H80V33.6H85.7143V28Z" fill="black"/>
<path d="M108.571 28H102.857V33.6H108.571V28Z" fill="black"/>
<path d="M142.857 28H137.143V33.6H142.857V28Z" fill="black"/>
<path d="M5.71429 33.6H0V39.2H5.71429V33.6Z" fill="black"/>
<path d="M11.4286 33.6L5.71429 33.6V39.2H11.4286V33.6Z" fill="black"/>
<path d="M17.1429 33.6H11.4286V39.2H17.1429V33.6Z" fill="black"/>
<path d="M22.8571 33.6H17.1429V39.2H22.8571V33.6Z" fill="black"/>
<path d="M28.5714 33.6H22.8571V39.2H28.5714V33.6Z" fill="black"/>
<path d="M34.2857 33.6L28.5714 33.6V39.2H34.2857L34.2857 33.6Z" fill="black"/>
<path d="M40 33.6H34.2857L34.2857 39.2H40V33.6Z" fill="black"/>
<path d="M51.4286 33.6H45.7143V39.2H51.4286V33.6Z" fill="black"/>
<path d="M62.8571 33.6H57.1429V39.2H62.8571V33.6Z" fill="black"/>
<path d="M74.2857 33.6H68.5714V39.2H74.2857V33.6Z" fill="black"/>
<path d="M85.7143 33.6H80V39.2H85.7143V33.6Z" fill="black"/>
<path d="M97.1429 33.6H91.4286V39.2H97.1429V33.6Z" fill="black"/>
<path d="M108.571 33.6H102.857V39.2H108.571V33.6Z" fill="black"/>
<path d="M114.286 33.6L108.571 33.6V39.2H114.286V33.6Z" fill="black"/>
<path d="M120 33.6H114.286V39.2H120V33.6Z" fill="black"/>
<path d="M125.714 33.6H120V39.2H125.714V33.6Z" fill="black"/>
<path d="M131.429 33.6H125.714V39.2H131.429V33.6Z" fill="black"/>
<path d="M137.143 33.6L131.429 33.6V39.2H137.143V33.6Z" fill="black"/>
<path d="M142.857 33.6H137.143V39.2H142.857V33.6Z" fill="black"/>
<path d="M51.4286 39.2H45.7143V44.8H51.4286V39.2Z" fill="black"/>
<path d="M62.8571 39.2H57.1429V44.8H62.8571V39.2Z" fill="black"/>
<path d="M74.2857 39.2H68.5714V44.8H74.2857V39.2Z" fill="black"/>
<path d="M80 39.2H74.2857V44.8H80V39.2Z" fill="black"/>
<path d="M91.4286 39.2H85.7143L85.7143 44.8H91.4286V39.2Z" fill="black"/>
<path d="M97.1429 39.2H91.4286V44.8H97.1429V39.2Z" fill="black"/>
<path d="M5.71429 44.8H0V50.4H5.71429V44.8Z" fill="black"/>
<path d="M22.8571 44.8H17.1429V50.4H22.8571V44.8Z" fill="black"/>
<path d="M28.5714 44.8H22.8571V50.4H28.5714V44.8Z" fill="black"/>
<path d="M34.2857 44.8H28.5714V50.4H34.2857V44.8Z" fill="black"/>
<path d="M40 44.8H34.2857V50.4H40V44.8Z" fill="black"/>
<path d="M45.7143 44.8H40V50.4H45.7143V44.8Z" fill="black"/>
<path d="M51.4286 44.8H45.7143V50.4H51.4286V44.8Z" fill="black"/>
<path d="M57.1429 44.8H51.4286V50.4H57.1429V44.8Z" fill="black"/>
<path d="M80 44.8H74.2857V50.4H80V44.8Z" fill="black"/>
<path d="M97.1429 44.8H91.4286V50.4H97.1429V44.8Z" fill="black"/>
<path d="M102.857 44.8H97.1429V50.4H102.857V44.8Z" fill="black"/>
<path d="M108.571 44.8H102.857V50.4H108.571V44.8Z" fill="black"/>
<path d="M120 44.8H114.286V50.4H120V44.8Z" fill="black"/>
<path d="M142.857 44.8H137.143V50.4H142.857V44.8Z" fill="black"/>
<path d="M11.4286 50.4H5.71429V56H11.4286V50.4Z" fill="black"/>
<path d="M22.8571 50.4H17.1429V56H22.8571V50.4Z" fill="black"/>
<path d="M28.5714 50.4H22.8571V56H28.5714V50.4Z" fill="black"/>
<path d="M45.7143 50.4H40V56H45.7143V50.4Z" fill="black"/>
<path d="M51.4286 50.4H45.7143V56H51.4286V50.4Z" fill="black"/>
<path d="M74.2857 50.4H68.5714V56H74.2857V50.4Z" fill="black"/>
<path d="M91.4286 50.4H85.7143V56H91.4286V50.4Z" fill="black"/>
<path d="M102.857 50.4H97.1429V56H102.857V50.4Z" fill="black"/>
<path d="M108.571 50.4H102.857V56H108.571V50.4Z" fill="black"/>
<path d="M120 50.4H114.286V56H120V50.4Z" fill="black"/>
<path d="M125.714 50.4H120V56H125.714V50.4Z" fill="black"/>
<path d="M131.429 50.4H125.714V56H131.429V50.4Z" fill="black"/>
<path d="M137.143 50.4H131.429V56H137.143V50.4Z" fill="black"/>
<path d="M142.857 50.4H137.143V56H142.857V50.4Z" fill="black"/>
<path d="M5.71429 56H0V61.6H5.71429V56Z" fill="black"/>
<path d="M11.4286 56H5.71429V61.6H11.4286V56Z" fill="black"/>
<path d="M22.8571 56H17.1429V61.6H22.8571V56Z" fill="black"/>
<path d="M28.5714 56H22.8571V61.6H28.5714V56Z" fill="black"/>
<path d="M34.2857 56H28.5714V61.6H34.2857V56Z" fill="black"/>
<path d="M40 56H34.2857V61.6H40V56Z" fill="black"/>
<path d="M45.7143 56H40V61.6H45.7143V56Z" fill="black"/>
<path d="M57.1429 56H51.4286V61.6H57.1429V56Z" fill="black"/>
<path d="M68.5714 56H62.8571V61.6H68.5714V56Z" fill="black"/>
<path d="M74.2857 56H68.5714V61.6H74.2857V56Z" fill="black"/>
<path d="M85.7143 56H80V61.6H85.7143L85.7143 56Z" fill="black"/>
<path d="M97.1429 56H91.4286V61.6H97.1429V56Z" fill="black"/>
<path d="M102.857 56H97.1429V61.6H102.857V56Z" fill="black"/>
<path d="M108.571 56H102.857V61.6H108.571V56Z" fill="black"/>
<path d="M114.286 56H108.571V61.6H114.286V56Z" fill="black"/>
<path d="M120 56H114.286V61.6H120V56Z" fill="black"/>
<path d="M125.714 56H120V61.6H125.714V56Z" fill="black"/>
<path d="M131.429 56H125.714V61.6H131.429V56Z" fill="black"/>
<path d="M137.143 56H131.429V61.6H137.143V56Z" fill="black"/>
<path d="M5.71429 61.6H0V67.2H5.71429V61.6Z" fill="black"/>
<path d="M28.5714 61.6H22.8571V67.2H28.5714V61.6Z" fill="black"/>
<path d="M34.2857 61.6H28.5714V67.2H34.2857V61.6Z" fill="black"/>
<path d="M45.7143 61.6H40V67.2H45.7143V61.6Z" fill="black"/>
<path d="M57.1429 61.6H51.4286V67.2H57.1429V61.6Z" fill="black"/>
<path d="M62.8571 61.6H57.1429V67.2H62.8571V61.6Z" fill="black"/>
<path d="M85.7143 61.6H80V67.2H85.7143V61.6Z" fill="black"/>
<path d="M91.4286 61.6H85.7143V67.2H91.4286V61.6Z" fill="black"/>
<path d="M120 61.6H114.286V67.2H120V61.6Z" fill="black"/>
<path d="M131.429 61.6H125.714V67.2H131.429V61.6Z" fill="black"/>
<path d="M137.143 61.6H131.429V67.2H137.143V61.6Z" fill="black"/>
<path d="M5.71429 67.2H0V72.8H5.71429V67.2Z" fill="black"/>
<path d="M22.8571 67.2H17.1429V72.8H22.8571V67.2Z" fill="black"/>
<path d="M28.5714 67.2H22.8571V72.8H28.5714V67.2Z" fill="black"/>
<path d="M34.2857 67.2H28.5714V72.8H34.2857V67.2Z" fill="black"/>
<path d="M40 67.2H34.2857V72.8H40V67.2Z" fill="black"/>
<path d="M45.7143 67.2H40V72.8H45.7143V67.2Z" fill="black"/>
<path d="M51.4286 67.2H45.7143V72.8H51.4286V67.2Z" fill="black"/>
<path d="M62.8571 67.2H57.1429V72.8H62.8571V67.2Z" fill="black"/>
<path d="M68.5714 67.2H62.8571V72.8H68.5714V67.2Z" fill="black"/>
<path d="M80 67.2H74.2857V72.8H80V67.2Z" fill="black"/>
<path d="M85.7143 67.2H80V72.8H85.7143V67.2Z" fill="black"/>
<path d="M97.1429 67.2H91.4286V72.8H97.1429V67.2Z" fill="black"/>
<path d="M114.286 67.2H108.571V72.8H114.286V67.2Z" fill="black"/>
<path d="M125.714 67.2H120V72.8H125.714V67.2Z" fill="black"/>
<path d="M131.429 67.2H125.714V72.8H131.429V67.2Z" fill="black"/>
<path d="M142.857 67.2H137.143V72.8H142.857V67.2Z" fill="black"/>
<path d="M5.71429 72.8H0V78.4H5.71429V72.8Z" fill="black"/>
<path d="M11.4286 72.8H5.71429V78.4H11.4286V72.8Z" fill="black"/>
<path d="M45.7143 72.8H40V78.4H45.7143V72.8Z" fill="black"/>
<path d="M51.4286 72.8H45.7143V78.4H51.4286V72.8Z" fill="black"/>
<path d="M57.1429 72.8H51.4286V78.4H57.1429V72.8Z" fill="black"/>
<path d="M74.2857 72.8H68.5714V78.4H74.2857V72.8Z" fill="black"/>
<path d="M85.7143 72.8H80V78.4H85.7143V72.8Z" fill="black"/>
<path d="M91.4286 72.8H85.7143V78.4H91.4286V72.8Z" fill="black"/>
<path d="M97.1429 72.8H91.4286V78.4H97.1429V72.8Z" fill="black"/>
<path d="M102.857 72.8H97.1429V78.4H102.857V72.8Z" fill="black"/>
<path d="M120 72.8H114.286V78.4H120V72.8Z" fill="black"/>
<path d="M131.429 72.8H125.714V78.4H131.429V72.8Z" fill="black"/>
<path d="M137.143 72.8H131.429V78.4H137.143V72.8Z" fill="black"/>
<path d="M142.857 72.8H137.143V78.4H142.857V72.8Z" fill="black"/>
<path d="M5.71429 78.4H0V84H5.71429V78.4Z" fill="black"/>
<path d="M11.4286 78.4H5.71429V84H11.4286V78.4Z" fill="black"/>
<path d="M17.1429 78.4H11.4286V84H17.1429V78.4Z" fill="black"/>
<path d="M40 78.4H34.2857V84H40V78.4Z" fill="black"/>
<path d="M57.1429 78.4H51.4286V84H57.1429V78.4Z" fill="black"/>
<path d="M68.5714 78.4H62.8571V84H68.5714V78.4Z" fill="black"/>
<path d="M74.2857 78.4H68.5714V84H74.2857V78.4Z" fill="black"/>
<path d="M85.7143 78.4H80V84H85.7143V78.4Z" fill="black"/>
<path d="M102.857 78.4H97.1429V84H102.857V78.4Z" fill="black"/>
<path d="M114.286 78.4H108.571V84H114.286V78.4Z" fill="black"/>
<path d="M120 78.4H114.286V84H120V78.4Z" fill="black"/>
<path d="M131.429 78.4H125.714V84H131.429V78.4Z" fill="black"/>
<path d="M11.4286 84H5.71429V89.6H11.4286V84Z" fill="black"/>
<path d="M45.7143 84L40 84V89.6H45.7143V84Z" fill="black"/>
<path d="M74.2857 84H68.5714V89.6H74.2857V84Z" fill="black"/>
<path d="M85.7143 84H80V89.6H85.7143V84Z" fill="black"/>
<path d="M91.4286 84L85.7143 84V89.6H91.4286V84Z" fill="black"/>
<path d="M108.571 84H102.857V89.6H108.571V84Z" fill="black"/>
<path d="M120 84H114.286V89.6H120V84Z" fill="black"/>
<path d="M137.143 84L131.429 84V89.6H137.143V84Z" fill="black"/>
<path d="M5.71429 89.6H0V95.2H5.71429V89.6Z" fill="black"/>
<path d="M34.2857 89.6H28.5714V95.2H34.2857V89.6Z" fill="black"/>
<path d="M40 89.6H34.2857V95.2H40V89.6Z" fill="black"/>
<path d="M45.7143 89.6H40V95.2H45.7143V89.6Z" fill="black"/>
<path d="M57.1429 89.6H51.4286V95.2H57.1429V89.6Z" fill="black"/>
<path d="M62.8571 89.6H57.1429V95.2H62.8571V89.6Z" fill="black"/>
<path d="M74.2857 89.6H68.5714V95.2H74.2857V89.6Z" fill="black"/>
<path d="M91.4286 89.6H85.7143L85.7143 95.2H91.4286V89.6Z" fill="black"/>
<path d="M97.1429 89.6H91.4286V95.2H97.1429V89.6Z" fill="black"/>
<path d="M102.857 89.6H97.1429V95.2H102.857V89.6Z" fill="black"/>
<path d="M108.571 89.6H102.857V95.2H108.571V89.6Z" fill="black"/>
<path d="M114.286 89.6H108.571V95.2H114.286V89.6Z" fill="black"/>
<path d="M120 89.6H114.286V95.2H120V89.6Z" fill="black"/>
<path d="M125.714 89.6H120V95.2H125.714V89.6Z" fill="black"/>
<path d="M137.143 89.6H131.429V95.2H137.143V89.6Z" fill="black"/>
<path d="M51.4286 95.2H45.7143V100.8H51.4286V95.2Z" fill="black"/>
<path d="M62.8571 95.2H57.1429V100.8H62.8571V95.2Z" fill="black"/>
<path d="M74.2857 95.2H68.5714V100.8H74.2857V95.2Z" fill="black"/>
<path d="M91.4286 95.2H85.7143V100.8H91.4286V95.2Z" fill="black"/>
<path d="M97.1429 95.2H91.4286V100.8H97.1429V95.2Z" fill="black"/>
<path d="M120 95.2H114.286V100.8H120V95.2Z" fill="black"/>
<path d="M125.714 95.2H120V100.8H125.714V95.2Z" fill="black"/>
<path d="M131.429 95.2H125.714V100.8H131.429V95.2Z" fill="black"/>
<path d="M5.71429 100.8H0V106.4H5.71429V100.8Z" fill="black"/>
<path d="M11.4286 100.8H5.71429V106.4H11.4286V100.8Z" fill="black"/>
<path d="M17.1429 100.8H11.4286V106.4H17.1429V100.8Z" fill="black"/>
<path d="M22.8571 100.8H17.1429V106.4H22.8571V100.8Z" fill="black"/>
<path d="M28.5714 100.8H22.8571V106.4H28.5714V100.8Z" fill="black"/>
<path d="M34.2857 100.8H28.5714V106.4H34.2857V100.8Z" fill="black"/>
<path d="M40 100.8H34.2857V106.4H40V100.8Z" fill="black"/>
<path d="M51.4286 100.8H45.7143V106.4H51.4286V100.8Z" fill="black"/>
<path d="M74.2857 100.8H68.5714V106.4H74.2857V100.8Z" fill="black"/>
<path d="M91.4286 100.8H85.7143V106.4H91.4286V100.8Z" fill="black"/>
<path d="M97.1429 100.8H91.4286V106.4H97.1429V100.8Z" fill="black"/>
<path d="M108.571 100.8H102.857V106.4H108.571V100.8Z" fill="black"/>
<path d="M120 100.8H114.286V106.4H120V100.8Z" fill="black"/>
<path d="M125.714 100.8H120V106.4H125.714V100.8Z" fill="black"/>
<path d="M131.429 100.8H125.714V106.4H131.429V100.8Z" fill="black"/>
<path d="M142.857 100.8H137.143V106.4H142.857V100.8Z" fill="black"/>
<path d="M5.71429 106.4H0V112H5.71429V106.4Z" fill="black"/>
<path d="M40 106.4H34.2857L34.2857 112H40V106.4Z" fill="black"/>
<path d="M51.4286 106.4H45.7143V112H51.4286V106.4Z" fill="black"/>
<path d="M62.8571 106.4H57.1429V112H62.8571V106.4Z" fill="black"/>
<path d="M85.7143 106.4H80V112H85.7143L85.7143 106.4Z" fill="black"/>
<path d="M97.1429 106.4H91.4286V112H97.1429V106.4Z" fill="black"/>
<path d="M120 106.4H114.286V112H120V106.4Z" fill="black"/>
<path d="M131.429 106.4H125.714V112H131.429V106.4Z" fill="black"/>
<path d="M5.71429 112H0V117.6H5.71429V112Z" fill="black"/>
<path d="M17.1429 112H11.4286V117.6H17.1429V112Z" fill="black"/>
<path d="M22.8571 112H17.1429V117.6H22.8571V112Z" fill="black"/>
<path d="M28.5714 112H22.8571V117.6H28.5714V112Z" fill="black"/>
<path d="M40 112H34.2857V117.6H40V112Z" fill="black"/>
<path d="M51.4286 112H45.7143V117.6H51.4286V112Z" fill="black"/>
<path d="M57.1429 112H51.4286V117.6H57.1429V112Z" fill="black"/>
<path d="M62.8571 112H57.1429V117.6H62.8571V112Z" fill="black"/>
<path d="M80 112H74.2857V117.6H80V112Z" fill="black"/>
<path d="M85.7143 112H80V117.6H85.7143V112Z" fill="black"/>
<path d="M97.1429 112H91.4286V117.6H97.1429V112Z" fill="black"/>
<path d="M102.857 112H97.1429V117.6H102.857V112Z" fill="black"/>
<path d="M108.571 112H102.857V117.6H108.571V112Z" fill="black"/>
<path d="M114.286 112H108.571V117.6H114.286V112Z" fill="black"/>
<path d="M120 112H114.286V117.6H120V112Z" fill="black"/>
<path d="M142.857 112H137.143V117.6H142.857V112Z" fill="black"/>
<path d="M5.71429 117.6H0V123.2H5.71429V117.6Z" fill="black"/>
<path d="M17.1429 117.6H11.4286V123.2H17.1429V117.6Z" fill="black"/>
<path d="M22.8571 117.6H17.1429V123.2H22.8571V117.6Z" fill="black"/>
<path d="M28.5714 117.6H22.8571V123.2H28.5714V117.6Z" fill="black"/>
<path d="M40 117.6H34.2857V123.2H40V117.6Z" fill="black"/>
<path d="M51.4286 117.6H45.7143V123.2H51.4286V117.6Z" fill="black"/>
<path d="M74.2857 117.6H68.5714V123.2H74.2857V117.6Z" fill="black"/>
<path d="M97.1429 117.6H91.4286V123.2H97.1429V117.6Z" fill="black"/>
<path d="M102.857 117.6H97.1429V123.2H102.857V117.6Z" fill="black"/>
<path d="M125.714 117.6H120V123.2H125.714V117.6Z" fill="black"/>
<path d="M5.71429 123.2H0V128.8H5.71429V123.2Z" fill="black"/>
<path d="M17.1429 123.2H11.4286V128.8H17.1429V123.2Z" fill="black"/>
<path d="M22.8571 123.2H17.1429V128.8H22.8571V123.2Z" fill="black"/>
<path d="M28.5714 123.2H22.8571V128.8H28.5714V123.2Z" fill="black"/>
<path d="M40 123.2H34.2857V128.8H40V123.2Z" fill="black"/>
<path d="M68.5714 123.2H62.8571V128.8H68.5714V123.2Z" fill="black"/>
<path d="M74.2857 123.2H68.5714V128.8H74.2857V123.2Z" fill="black"/>
<path d="M85.7143 123.2H80V128.8H85.7143V123.2Z" fill="black"/>
<path d="M91.4286 123.2H85.7143V128.8H91.4286V123.2Z" fill="black"/>
<path d="M97.1429 123.2H91.4286V128.8H97.1429V123.2Z" fill="black"/>
<path d="M114.286 123.2H108.571V128.8H114.286V123.2Z" fill="black"/>
<path d="M120 123.2H114.286V128.8H120V123.2Z" fill="black"/>
<path d="M131.429 123.2H125.714V128.8H131.429V123.2Z" fill="black"/>
<path d="M137.143 123.2H131.429V128.8H137.143V123.2Z" fill="black"/>
<path d="M142.857 123.2H137.143V128.8H142.857V123.2Z" fill="black"/>
<path d="M5.71429 128.8H0V134.4H5.71429V128.8Z" fill="black"/>
<path d="M40 128.8H34.2857V134.4H40V128.8Z" fill="black"/>
<path d="M57.1429 128.8H51.4286V134.4H57.1429V128.8Z" fill="black"/>
<path d="M62.8571 128.8H57.1429V134.4H62.8571V128.8Z" fill="black"/>
<path d="M68.5714 128.8H62.8571V134.4H68.5714V128.8Z" fill="black"/>
<path d="M80 128.8H74.2857V134.4H80V128.8Z" fill="black"/>
<path d="M85.7143 128.8H80V134.4H85.7143V128.8Z" fill="black"/>
<path d="M102.857 128.8H97.1429V134.4H102.857V128.8Z" fill="black"/>
<path d="M108.571 128.8H102.857V134.4H108.571V128.8Z" fill="black"/>
<path d="M114.286 128.8H108.571V134.4H114.286V128.8Z" fill="black"/>
<path d="M120 128.8H114.286V134.4H120V128.8Z" fill="black"/>
<path d="M131.429 128.8H125.714V134.4H131.429V128.8Z" fill="black"/>
<path d="M137.143 128.8H131.429V134.4H137.143V128.8Z" fill="black"/>
<path d="M142.857 128.8H137.143V134.4H142.857V128.8Z" fill="black"/>
<path d="M5.71429 134.4H0V140H5.71429V134.4Z" fill="black"/>
<path d="M11.4286 134.4H5.71429V140H11.4286V134.4Z" fill="black"/>
<path d="M17.1429 134.4H11.4286V140H17.1429V134.4Z" fill="black"/>
<path d="M22.8571 134.4H17.1429V140H22.8571V134.4Z" fill="black"/>
<path d="M28.5714 134.4H22.8571V140H28.5714V134.4Z" fill="black"/>
<path d="M34.2857 134.4H28.5714V140H34.2857L34.2857 134.4Z" fill="black"/>
<path d="M40 134.4H34.2857L34.2857 140H40V134.4Z" fill="black"/>
<path d="M51.4286 134.4H45.7143V140H51.4286V134.4Z" fill="black"/>
<path d="M68.5714 134.4H62.8571V140H68.5714V134.4Z" fill="black"/>
<path d="M74.2857 134.4H68.5714V140H74.2857V134.4Z" fill="black"/>
<path d="M97.1429 134.4H91.4286V140H97.1429V134.4Z" fill="black"/>
<path d="M125.714 134.4H120V140H125.714V134.4Z" fill="black"/>
<path d="M142.857 134.4H137.143V140H142.857V134.4Z" fill="black"/>
<mask id="mask0_1_46" style="mask-type:alpha" maskUnits="userSpaceOnUse" x="0" y="0" width="143" height="140">
<path d="M5.71429 0H0V5.6H5.71429V0Z" fill="black"/>
<path d="M11.4286 0H5.71429V5.6H11.4286V0Z" fill="black"/>
<path d="M17.1429 0H11.4286V5.6H17.1429V0Z" fill="black"/>
<path d="M22.8571 0H17.1429V5.6H22.8571V0Z" fill="black"/>
<path d="M28.5714 0H22.8571V5.6H28.5714V0Z" fill="black"/>
<path d="M34.2857 0H28.5714V5.6H34.2857V0Z" fill="black"/>
<path d="M40 0H34.2857V5.6H40V0Z" fill="black"/>
<path d="M51.4286 0H45.7143V5.6H51.4286V0Z" fill="black"/>
<path d="M57.1429 0H51.4286V5.6H57.1429V0Z" fill="black"/>
<path d="M80 0H74.2857V5.6H80V0Z" fill="black"/>
<path d="M97.1429 0H91.4286V5.6H97.1429V0Z" fill="black"/>
<path d="M108.571 0H102.857V5.6H108.571V0Z" fill="black"/>
<path d="M114.286 0H108.571V5.6H114.286V0Z" fill="black"/>
<path d="M120 0H114.286V5.6H120V0Z" fill="black"/>
<path d="M125.714 0H120V5.6H125.714V0Z" fill="black"/>
<path d="M131.429 0H125.714V5.6H131.429V0Z" fill="black"/>
<path d="M137.143 0H131.429V5.6H137.143V0Z" fill="black"/>
<path d="M142.857 0H137.143V5.6H142.857V0Z" fill="black"/>
<path d="M5.71429 5.6H0V11.2H5.71429V5.6Z" fill="black"/>
<path d="M40 5.6H34.2857L34.2857 11.2H40V5.6Z" fill="black"/>
<path d="M74.2857 5.6H68.5714V11.2H74.2857V5.6Z" fill="black"/>
<path d="M80 5.6H74.2857V11.2H80V5.6Z" fill="black"/>
<path d="M97.1429 5.6H91.4286V11.2H97.1429V5.6Z" fill="black"/>
<path d="M108.571 5.6H102.857V11.2H108.571V5.6Z" fill="black"/>
<path d="M142.857 5.6H137.143V11.2H142.857V5.6Z" fill="black"/>
<path d="M5.71429 11.2H0V16.8H5.71429V11.2Z" fill="black"/>
<path d="M17.1429 11.2H11.4286V16.8H17.1429V11.2Z" fill="black"/>
<path d="M22.8571 11.2H17.1429V16.8H22.8571V11.2Z" fill="black"/>
<path d="M28.5714 11.2H22.8571V16.8H28.5714V11.2Z" fill="black"/>
<path d="M40 11.2H34.2857V16.8H40V11.2Z" fill="black"/>
<path d="M57.1429 11.2H51.4286V16.8H57.1429V11.2Z" fill="black"/>
<path d="M62.8571 11.2H57.1429V16.8H62.8571V11.2Z" fill="black"/>
<path d="M68.5714 11.2H62.8571V16.8H68.5714V11.2Z" fill="black"/>
<path d="M74.2857 11.2H68.5714V16.8H74.2857V11.2Z" fill="black"/>
<path d="M80 11.2H74.2857V16.8H80V11.2Z" fill="black"/>
<path d="M97.1429 11.2H91.4286V16.8H97.1429V11.2Z" fill="black"/>
<path d="M108.571 11.2H102.857V16.8H108.571V11.2Z" fill="black"/>
<path d="M120 11.2H114.286V16.8H120V11.2Z" fill="black"/>
<path d="M125.714 11.2H120V16.8H125.714V11.2Z" fill="black"/>
<path d="M131.429 11.2H125.714V16.8H131.429V11.2Z" fill="black"/>
<path d="M142.857 11.2H137.143V16.8H142.857V11.2Z" fill="black"/>
<path d="M5.71429 16.8H0V22.4H5.71429V16.8Z" fill="black"/>
<path d="M17.1429 16.8H11.4286V22.4H17.1429V16.8Z" fill="black"/>
<path d="M22.8571 16.8H17.1429V22.4H22.8571V16.8Z" fill="black"/>
<path d="M28.5714 16.8H22.8571V22.4H28.5714V16.8Z" fill="black"/>
<path d="M40 16.8H34.2857V22.4H40V16.8Z" fill="black"/>
<path d="M57.1429 16.8H51.4286V22.4H57.1429V16.8Z" fill="black"/>
<path d="M62.8571 16.8H57.1429V22.4H62.8571V16.8Z" fill="black"/>
<path d="M80 16.8H74.2857V22.4H80V16.8Z" fill="black"/>
<path d="M108.571 16.8H102.857V22.4H108.571V16.8Z" fill="black"/>
<path d="M120 16.8H114.286V22.4H120V16.8Z" fill="black"/>
<path d="M125.714 16.8H120V22.4H125.714V16.8Z" fill="black"/>
<path d="M131.429 16.8H125.714V22.4H131.429V16.8Z" fill="black"/>
<path d="M142.857 16.8H137.143V22.4H142.857V16.8Z" fill="black"/>
<path d="M5.71429 22.4H0V28H5.71429V22.4Z" fill="black"/>
<path d="M17.1429 22.4H11.4286V28H17.1429V22.4Z" fill="black"/>
<path d="M22.8571 22.4H17.1429V28H22.8571V22.4Z" fill="black"/>
<path d="M28.5714 22.4H22.8571V28H28.5714V22.4Z" fill="black"/>
<path d="M40 22.4H34.2857V28H40V22.4Z" fill="black"/>
<path d="M51.4286 22.4H45.7143V28H51.4286V22.4Z" fill="black"/>
<path d="M62.8571 22.4H57.1429V28H62.8571V22.4Z" fill="black"/>
<path d="M68.5714 22.4H62.8571V28H68.5714V22.4Z" fill="black"/>
<path d="M74.2857 22.4H68.5714V28H74.2857V22.4Z" fill="black"/>
<path d="M85.7143 22.4H80V28H85.7143V22.4Z" fill="black"/>
<path d="M108.571 22.4H102.857V28H108.571V22.4Z" fill="black"/>
<path d="M120 22.4H114.286V28H120V22.4Z" fill="black"/>
<path d="M125.714 22.4H120V28H125.714V22.4Z" fill="black"/>
<path d="M131.429 22.4H125.714V28H131.429V22.4Z" fill="black"/>
<path d="M142.857 22.4H137.143V28H142.857V22.4Z" fill="black"/>
<path d="M5.71429 28H0V33.6H5.71429V28Z" fill="black"/>
<path d="M40 28H34.2857V33.6H40V28Z" fill="black"/>
<path d="M85.7143 28H80V33.6H85.7143V28Z" fill="black"/>
<path d="M108.571 28H102.857V33.6H108.571V28Z" fill="black"/>
<path d="M142.857 28H137.143V33.6H142.857V28Z" fill="black"/>
<path d="M5.71429 33.6H0V39.2H5.71429V33.6Z" fill="black"/>
<path d="M11.4286 33.6L5.71429 33.6V39.2H11.4286V33.6Z" fill="black"/>
<path d="M17.1429 33.6H11.4286V39.2H17.1429V33.6Z" fill="black"/>
<path d="M22.8571 33.6H17.1429V39.2H22.8571V33.6Z" fill="black"/>
<path d="M28.5714 33.6H22.8571V39.2H28.5714V33.6Z" fill="black"/>
<path d="M34.2857 33.6L28.5714 33.6V39.2H34.2857L34.2857 33.6Z" fill="black"/>
<path d="M40 33.6H34.2857L34.2857 39.2H40V33.6Z" fill="black"/>
<path d="M51.4286 33.6H45.7143V39.2H51.4286V33.6Z" fill="black"/>
<path d="M62.8571 33.6H57.1429V39.2H62.8571V33.6Z" fill="black"/>
<path d="M74.2857 33.6H68.5714V39.2H74.2857V33.6Z" fill="black"/>
<path d="M85.7143 33.6H80V39.2H85.7143V33.6Z" fill="black"/>
<path d="M97.1429 33.6H91.4286V39.2H97.1429V33.6Z" fill="black"/>
<path d="M108.571 33.6H102.857V39.2H108.571V33.6Z" fill="black"/>
<path d="M114.286 33.6L108.571 33.6V39.2H114.286V33.6Z" fill="black"/>
<path d="M120 33.6H114.286V39.2H120V33.6Z" fill="black"/>
<path d="M125.714 33.6H120V39.2H125.714V33.6Z" fill="black"/>
<path d="M131.429 33.6H125.714V39.2H131.429V33.6Z" fill="black"/>
<path d="M137.143 33.6L131.429 33.6V39.2H137.143V33.6Z" fill="black"/>
<path d="M142.857 33.6H137.143V39.2H142.857V33.6Z" fill="black"/>
<path d="M51.4286 39.2H45.7143V44.8H51.4286V39.2Z" fill="black"/>
<path d="M62.8571 39.2H57.1429V44.8H62.8571V39.2Z" fill="black"/>
<path d="M74.2857 39.2H68.5714V44.8H74.2857V39.2Z" fill="black"/>
<path d="M80 39.2H74.2857V44.8H80V39.2Z" fill="black"/>
<path d="M91.4286 39.2H85.7143L85.7143 44.8H91.4286V39.2Z" fill="black"/>
<path d="M97.1429 39.2H91.4286V44.8H97.1429V39.2Z" fill="black"/>
<path d="M5.71429 44.8H0V50.4H5.71429V44.8Z" fill="black"/>
<path d="M22.8571 44.8H17.1429V50.4H22.8571V44.8Z" fill="black"/>
<path d="M28.5714 44.8H22.8571V50.4H28.5714V44.8Z" fill="black"/>
<path d="M34.2857 44.8H28.5714V50.4H34.2857V44.8Z" fill="black"/>
<path d="M40 44.8H34.2857V50.4H40V44.8Z" fill="black"/>
<path d="M45.7143 44.8H40V50.4H45.7143V44.8Z" fill="black"/>
<path d="M51.4286 44.8H45.7143V50.4H51.4286V44.8Z" fill="black"/>
<path d="M57.1429 44.8H51.4286V50.4H57.1429V44.8Z" fill="black"/>
<path d="M80 44.8H74.2857V50.4H80V44.8Z" fill="black"/>
<path d="M97.1429 44.8H91.4286V50.4H97.1429V44.8Z" fill="black"/>
<path d="M102.857 44.8H97.1429V50.4H102.857V44.8Z" fill="black"/>
<path d="M108.571 44.8H102.857V50.4H108.571V44.8Z" fill="black"/>
<path d="M120 44.8H114.286V50.4H120V44.8Z" fill="black"/>
<path d="M142.857 44.8H137.143V50.4H142.857V44.8Z" fill="black"/>
<path d="M11.4286 50.4H5.71429V56H11.4286V50.4Z" fill="black"/>
<path d="M22.8571 50.4H17.1429V56H22.8571V50.4Z" fill="black"/>
<path d="M28.5714 50.4H22.8571V56H28.5714V50.4Z" fill="black"/>
<path d="M45.7143 50.4H40V56H45.7143V50.4Z" fill="black"/>
<path d="M51.4286 50.4H45.7143V56H51.4286V50.4Z" fill="black"/>
<path d="M74.2857 50.4H68.5714V56H74.2857V50.4Z" fill="black"/>
<path d="M91.4286 50.4H85.7143V56H91.4286V50.4Z" fill="black"/>
<path d="M102.857 50.4H97.1429V56H102.857V50.4Z" fill="black"/>
<path d="M108.571 50.4H102.857V56H108.571V50.4Z" fill="black"/>
<path d="M120 50.4H114.286V56H120V50.4Z" fill="black"/>
<path d="M125.714 50.4H120V56H125.714V50.4Z" fill="black"/>
<path d="M131.429 50.4H125.714V56H131.429V50.4Z" fill="black"/>
<path d="M137.143 50.4H131.429V56H137.143V50.4Z" fill="black"/>
<path d="M142.857 50.4H137.143V56H142.857V50.4Z" fill="black"/>
<path d="M5.71429 56H0V61.6H5.71429V56Z" fill="black"/>
<path d="M11.4286 56H5.71429V61.6H11.4286V56Z" fill="black"/>
<path d="M22.8571 56H17.1429V61.6H22.8571V56Z" fill="black"/>
<path d="M28.5714 56H22.8571V61.6H28.5714V56Z" fill="black"/>
<path d="M34.2857 56H28.5714V61.6H34.2857V56Z" fill="black"/>
<path d="M40 56H34.2857V61.6H40V56Z" fill="black"/>
<path d="M45.7143 56H40V61.6H45.7143V56Z" fill="black"/>
<path d="M57.1429 56H51.4286V61.6H57.1429V56Z" fill="black"/>
<path d="M68.5714 56H62.8571V61.6H68.5714V56Z" fill="black"/>
<path d="M74.2857 56H68.5714V61.6H74.2857V56Z" fill="black"/>
<path d="M85.7143 56H80V61.6H85.7143L85.7143 56Z" fill="black"/>
<path d="M97.1429 56H91.4286V61.6H97.1429V56Z" fill="black"/>
<path d="M102.857 56H97.1429V61.6H102.857V56Z" fill="black"/>
<path d="M108.571 56H102.857V61.6H108.571V56Z" fill="black"/>
<path d="M114.286 56H108.571V61.6H114.286V56Z" fill="black"/>
<path d="M120 56H114.286V61.6H120V56Z" fill="black"/>
<path d="M125.714 56H120V61.6H125.714V56Z" fill="black"/>
<path d="M131.429 56H125.714V61.6H131.429V56Z" fill="black"/>
<path d="M137.143 56H131.429V61.6H137.143V56Z" fill="black"/>
<path d="M5.71429 61.6H0V67.2H5.71429V61.6Z" fill="black"/>
<path d="M28.5714 61.6H22.8571V67.2H28.5714V61.6Z" fill="black"/>
<path d="M34.2857 61.6H28.5714V67.2H34.2857V61.6Z" fill="black"/>
<path d="M45.7143 61.6H40V67.2H45.7143V61.6Z" fill="black"/>
<path d="M57.1429 61.6H51.4286V67.2H57.1429V61.6Z" fill="black"/>
<path d="M62.8571 61.6H57.1429V67.2H62.8571V61.6Z" fill="black"/>
<path d="M85.7143 61.6H80V67.2H85.7143V61.6Z" fill="black"/>
<path d="M91.4286 61.6H85.7143V67.2H91.4286V61.6Z" fill="black"/>
<path d="M120 61.6H114.286V67.2H120V61.6Z" fill="black"/>
<path d="M131.429 61.6H125.714V67.2H131.429V61.6Z" fill="black"/>
<path d="M137.143 61.6H131.429V67.2H137.143V61.6Z" fill="black"/>
<path d="M5.71429 67.2H0V72.8H5.71429V67.2Z" fill="black"/>
<path d="M22.8571 67.2H17.1429V72.8H22.8571V67.2Z" fill="black"/>
<path d="M28.5714 67.2H22.8571V72.8H28.5714V67.2Z" fill="black"/>
<path d="M34.2857 67.2H28.5714V72.8H34.2857V67.2Z" fill="black"/>
<path d="M40 67.2H34.2857V72.8H40V67.2Z" fill="black"/>
<path d="M45.7143 67.2H40V72.8H45.7143V67.2Z" fill="black"/>
<path d="M51.4286 67.2H45.7143V72.8H51.4286V67.2Z" fill="black"/>
<path d="M62.8571 67.2H57.1429V72.8H62.8571V67.2Z" fill="black"/>
<path d="M68.5714 67.2H62.8571V72.8H68.5714V67.2Z" fill="black"/>
<path d="M80 67.2H74.2857V72.8H80V67.2Z" fill="black"/>
<path d="M85.7143 67.2H80V72.8H85.7143V67.2Z" fill="black"/>
<path d="M97.1429 67.2H91.4286V72.8H97.1429V67.2Z" fill="black"/>
<path d="M114.286 67.2H108.571V72.8H114.286V67.2Z" fill="black"/>
<path d="M125.714 67.2H120V72.8H125.714V67.2Z" fill="black"/>
<path d="M131.429 67.2H125.714V72.8H131.429V67.2Z" fill="black"/>
<path d="M142.857 67.2H137.143V72.8H142.857V67.2Z" fill="black"/>
<path d="M5.71429 72.8H0V78.4H5.71429V72.8Z" fill="black"/>
<path d="M11.4286 72.8H5.71429V78.4H11.4286V72.8Z" fill="black"/>
<path d="M45.7143 72.8H40V78.4H45.7143V72.8Z" fill="black"/>
<path d="M51.4286 72.8H45.7143V78.4H51.4286V72.8Z" fill="black"/>
<path d="M57.1429 72.8H51.4286V78.4H57.1429V72.8Z" fill="black"/>
<path d="M74.2857 72.8H68.5714V78.4H74.2857V72.8Z" fill="black"/>
<path d="M85.7143 72.8H80V78.4H85.7143V72.8Z" fill="black"/>
<path d="M91.4286 72.8H85.7143V78.4H91.4286V72.8Z" fill="black"/>
<path d="M97.1429 72.8H91.4286V78.4H97.1429V72.8Z" fill="black"/>
<path d="M102.857 72.8H97.1429V78.4H102.857V72.8Z" fill="black"/>
<path d="M120 72.8H114.286V78.4H120V72.8Z" fill="black"/>
<path d="M131.429 72.8H125.714V78.4H131.429V72.8Z" fill="black"/>
<path d="M137.143 72.8H131.429V78.4H137.143V72.8Z" fill="black"/>
<path d="M142.857 72.8H137.143V78.4H142.857V72.8Z" fill="black"/>
<path d="M5.71429 78.4H0V84H5.71429V78.4Z" fill="black"/>
<path d="M11.4286 78.4H5.71429V84H11.4286V78.4Z" fill="black"/>
<path d="M17.1429 78.4H11.4286V84H17.1429V78.4Z" fill="black"/>
<path d="M40 78.4H34.2857V84H40V78.4Z" fill="black"/>
<path d="M57.1429 78.4H51.4286V84H57.1429V78.4Z" fill="black"/>
<path d="M68.5714 78.4H62.8571V84H68.5714V78.4Z" fill="black"/>
<path d="M74.2857 78.4H68.5714V84H74.2857V78.4Z" fill="black"/>
<path d="M85.7143 78.4H80V84H85.7143V78.4Z" fill="black"/>
<path d="M102.857 78.4H97.1429V84H102.857V78.4Z" fill="black"/>
<path d="M114.286 78.4H108.571V84H114.286V78.4Z" fill="black"/>
<path d="M120 78.4H114.286V84H120V78.4Z" fill="black"/>
<path d="M131.429 78.4H125.714V84H131.429V78.4Z" fill="black"/>
<path d="M11.4286 84H5.71429V89.6H11.4286V84Z" fill="black"/>
<path d="M45.7143 84L40 84V89.6H45.7143V84Z" fill="black"/>
<path d="M74.2857 84H68.5714V89.6H74.2857V84Z" fill="black"/>
<path d="M85.7143 84H80V89.6H85.7143V84Z" fill="black"/>
<path d="M91.4286 84L85.7143 84V89.6H91.4286V84Z" fill="black"/>
<path d="M108.571 84H102.857V89.6H108.571V84Z" fill="black"/>
<path d="M120 84H114.286V89.6H120V84Z" fill="black"/>
<path d="M137.143 84L131.429 84V89.6H137.143V84Z" fill="black"/>
<path d="M5.71429 89.6H0V95.2H5.71429V89.6Z" fill="black"/>
<path d="M34.2857 89.6H28.5714V95.2H34.2857V89.6Z" fill="black"/>
<path d="M40 89.6H34.2857V95.2H40V89.6Z" fill="black"/>
<path d="M45.7143 89.6H40V95.2H45.7143V89.6Z" fill="black"/>
<path d="M57.1429 89.6H51.4286V95.2H57.1429V89.6Z" fill="black"/>
<path d="M62.8571 89.6H57.1429V95.2H62.8571V89.6Z" fill="black"/>
<path d="M74.2857 89.6H68.5714V95.2H74.2857V89.6Z" fill="black"/>
<path d="M91.4286 89.6H85.7143L85.7143 95.2H91.4286V89.6Z" fill="black"/>
<path d="M97.1429 89.6H91.4286V95.2H97.1429V89.6Z" fill="black"/>
<path d="M102.857 89.6H97.1429V95.2H102.857V89.6Z" fill="black"/>
<path d="M108.571 89.6H102.857V95.2H108.571V89.6Z" fill="black"/>
<path d="M114.286 89.6H108.571V95.2H114.286V89.6Z" fill="black"/>
<path d="M120 89.6H114.286V95.2H120V89.6Z" fill="black"/>
<path d="M125.714 89.6H120V95.2H125.714V89.6Z" fill="black"/>
<path d="M137.143 89.6H131.429V95.2H137.143V89.6Z" fill="black"/>
<path d="M51.4286 95.2H45.7143V100.8H51.4286V95.2Z" fill="black"/>
<path d="M62.8571 95.2H57.1429V100.8H62.8571V95.2Z" fill="black"/>
<path d="M74.2857 95.2H68.5714V100.8H74.2857V95.2Z" fill="black"/>
<path d="M91.4286 95.2H85.7143V100.8H91.4286V95.2Z" fill="black"/>
<path d="M97.1429 95.2H91.4286V100.8H97.1429V95.2Z" fill="black"/>
<path d="M120 95.2H114.286V100.8H120V95.2Z" fill="black"/>
<path d="M125.714 95.2H120V100.8H125.714V95.2Z" fill="black"/>
<path d="M131.429 95.2H125.714V100.8H131.429V95.2Z" fill="black"/>
<path d="M5.71429 100.8H0V106.4H5.71429V100.8Z" fill="black"/>
<path d="M11.4286 100.8H5.71429V106.4H11.4286V100.8Z" fill="black"/>
<path d="M17.1429 100.8H11.4286V106.4H17.1429V100.8Z" fill="black"/>
<path d="M22.8571 100.8H17.1429V106.4H22.8571V100.8Z" fill="black"/>
<path d="M28.5714 100.8H22.8571V106.4H28.5714V100.8Z" fill="black"/>
<path d="M34.2857 100.8H28.5714V106.4H34.2857V100.8Z" fill="black"/>
<path d="M40 100.8H34.2857V106.4H40V100.8Z" fill="black"/>
<path d="M51.4286 100.8H45.7143V106.4H51.4286V100.8Z" fill="black"/>
<path d="M74.2857 100.8H68.5714V106.4H74.2857V100.8Z" fill="black"/>
<path d="M91.4286 100.8H85.7143V106.4H91.4286V100.8Z" fill="black"/>
<path d="M97.1429 100.8H91.4286V106.4H97.1429V100.8Z" fill="black"/>
<path d="M108.571 100.8H102.857V106.4H108.571V100.8Z" fill="black"/>
<path d="M120 100.8H114.286V106.4H120V100.8Z" fill="black"/>
<path d="M125.714 100.8H120V106.4H125.714V100.8Z" fill="black"/>
<path d="M131.429 100.8H125.714V106.4H131.429V100.8Z" fill="black"/>
<path d="M142.857 100.8H137.143V106.4H142.857V100.8Z" fill="black"/>
<path d="M5.71429 106.4H0V112H5.71429V106.4Z" fill="black"/>
<path d="M40 106.4H34.2857L34.2857 112H40V106.4Z" fill="black"/>
<path d="M51.4286 106.4H45.7143V112H51.4286V106.4Z" fill="black"/>
<path d="M62.8571 106.4H57.1429V112H62.8571V106.4Z" fill="black"/>
<path d="M85.7143 106.4H80V112H85.7143L85.7143 106.4Z" fill="black"/>
<path d="M97.1429 106.4H91.4286V112H97.1429V106.4Z" fill="black"/>
<path d="M120 106.4H114.286V112H120V106.4Z" fill="black"/>
<path d="M131.429 106.4H125.714V112H131.429V106.4Z" fill="black"/>
<path d="M5.71429 112H0V117.6H5.71429V112Z" fill="black"/>
<path d="M17.1429 112H11.4286V117.6H17.1429V112Z" fill="black"/>
<path d="M22.8571 112H17.1429V117.6H22.8571V112Z" fill="black"/>
<path d="M28.5714 112H22.8571V117.6H28.5714V112Z" fill="black"/>
<path d="M40 112H34.2857V117.6H40V112Z" fill="black"/>
<path d="M51.4286 112H45.7143V117.6H51.4286V112Z" fill="black"/>
<path d="M57.1429 112H51.4286V117.6H57.1429V112Z" fill="black"/>
<path d="M62.8571 112H57.1429V117.6H62.8571V112Z" fill="black"/>
<path d="M80 112H74.2857V117.6H80V112Z" fill="black"/>
<path d="M85.7143 112H80V117.6H85.7143V112Z" fill="black"/>
<path d="M97.1429 112H91.4286V117.6H97.1429V112Z" fill="black"/>
<path d="M102.857 112H97.1429V117.6H102.857V112Z" fill="black"/>
<path d="M108.571 112H102.857V117.6H108.571V112Z" fill="black"/>
<path d="M114.286 112H108.571V117.6H114.286V112Z" fill="black"/>
<path d="M120 112H114.286V117.6H120V112Z" fill="black"/>
<path d="M142.857 112H137.143V117.6H142.857V112Z" fill="black"/>
<path d="M5.71429 117.6H0V123.2H5.71429V117.6Z" fill="black"/>
<path d="M17.1429 117.6H11.4286V123.2H17.1429V117.6Z" fill="black"/>
<path d="M22.8571 117.6H17.1429V123.2H22.8571V117.6Z" fill="black"/>
<path d="M28.5714 117.6H22.8571V123.2H28.5714V117.6Z" fill="black"/>
<path d="M40 117.6H34.2857V123.2H40V117.6Z" fill="black"/>
<path d="M51.4286 117.6H45.7143V123.2H51.4286V117.6Z" fill="black"/>
<path d="M74.2857 117.6H68.5714V123.2H74.2857V117.6Z" fill="black"/>
<path d="M97.1429 117.6H91.4286V123.2H97.1429V117.6Z" fill="black"/>
<path d="M102.857 117.6H97.1429V123.2H102.857V117.6Z" fill="black"/>
<path d="M125.714 117.6H120V123.2H125.714V117.6Z" fill="black"/>
<path d="M5.71429 123.2H0V128.8H5.71429V123.2Z" fill="black"/>
<path d="M17.1429 123.2H11.4286V128.8H17.1429V123.2Z" fill="black"/>
<path d="M22.8571 123.2H17.1429V128.8H22.8571V123.2Z" fill="black"/>
<path d="M28.5714 123.2H22.8571V128.8H28.5714V123.2Z" fill="black"/>
<path d="M40 123.2H34.2857V128.8H40V123.2Z" fill="black"/>
<path d="M68.5714 123.2H62.8571V128.8H68.5714V123.2Z" fill="black"/>
<path d="M74.2857 123.2H68.5714V128.8H74.2857V123.2Z" fill="black"/>
<path d="M85.7143 123.2H80V128.8H85.7143V123.2Z" fill="black"/>
<path d="M91.4286 123.2H85.7143V128.8H91.4286V123.2Z" fill="black"/>
<path d="M97.1429 123.2H91.4286V128.8H97.1429V123.2Z" fill="black"/>
<path d="M114.286 123.2H108.571V128.8H114.286V123.2Z" fill="black"/>
<path d="M120 123.2H114.286V128.8H120V123.2Z" fill="black"/>
<path d="M131.429 123.2H125.714V128.8H131.429V123.2Z" fill="black"/>
<path d="M137.143 123.2H131.429V128.8H137.143V123.2Z" fill="black"/>
<path d="M142.857 123.2H137.143V128.8H142.857V123.2Z" fill="black"/>
<path d="M5.71429 128.8H0V134.4H5.71429V128.8Z" fill="black"/>
<path d="M40 128.8H34.2857V134.4H40V128.8Z" fill="black"/>
<path d="M57.1429 128.8H51.4286V134.4H57.1429V128.8Z" fill="black"/>
<path d="M62.8571 128.8H57.1429V134.4H62.8571V128.8Z" fill="black"/>
<path d="M68.5714 128.8H62.8571V134.4H68.5714V128.8Z" fill="black"/>
<path d="M80 128.8H74.2857V134.4H80V128.8Z" fill="black"/>
<path d="M85.7143 128.8H80V134.4H85.7143V128.8Z" fill="black"/>
<path d="M102.857 128.8H97.1429V134.4H102.857V128.8Z" fill="black"/>
<path d="M108.571 128.8H102.857V134.4H108.571V128.8Z" fill="black"/>
<path d="M114.286 128.8H108.571V134.4H114.286V128.8Z" fill="black"/>
<path d="M120 128.8H114.286V134.4H120V128.8Z" fill="black"/>
<path d="M131.429 128.8H125.714V134.4H131.429V128.8Z" fill="black"/>
<path d="M137.143 128.8H131.429V134.4H137.143V128.8Z" fill="black"/>
<path d="M142.857 128.8H137.143V134.4H142.857V128.8Z" fill="black"/>
<path d="M5.71429 134.4H0V140H5.71429V134.4Z" fill="black"/>
<path d="M11.4286 134.4H5.71429V140H11.4286V134.4Z" fill="black"/>
<path d="M17.1429 134.4H11.4286V140H17.1429V134.4Z" fill="black"/>
<path d="M22.8571 134.4H17.1429V140H22.8571V134.4Z" fill="black"/>
<path d="M28.5714 134.4H22.8571V140H28.5714V134.4Z" fill="black"/>
<path d="M34.2857 134.4H28.5714V140H34.2857L34.2857 134.4Z" fill="black"/>
<path d="M40 134.4H34.2857L34.2857 140H40V134.4Z" fill="black"/>
<path d="M51.4286 134.4H45.7143V140H51.4286V134.4Z" fill="black"/>
<path d="M68.5714 134.4H62.8571V140H68.5714V134.4Z" fill="black"/>
<path d="M74.2857 134.4H68.5714V140H74.2857V134.4Z" fill="black"/>
<path d="M97.1429 134.4H91.4286V140H97.1429V134.4Z" fill="black"/>
<path d="M125.714 134.4H120V140H125.714V134.4Z" fill="black"/>
<path d="M142.857 134.4H137.143V140H142.857V134.4Z" fill="black"/>
</mask>
<g mask="url(#mask0_1_46)">
<rect x="-10.2041" y="-10" width="163.265" height="160" fill="black"/>
</g>
</svg>
