<?xml version="1.0" encoding="UTF-8"?>
<svg xmlns="http://www.w3.org/2000/svg" version="1.1" width="1024" height="1024" viewBox="0 0 500 500"><rect x="0" y="0" width="500" height="500" fill="#ffffff"/><g transform="scale(16.129)"><g transform="translate(1,1)"><g><g transform="translate(3.5,3.5)"><path fill-rule="evenodd" d="M-3.5 -3.5L3.5 -3.5L3.5 3.5L-3.5 3.5ZM-2.5 -2.5L-2.5 2.5L2.5 2.5L2.5 -2.5Z" fill="#000000"/><path fill-rule="evenodd" d="M-1.5 -1.5L1.5 -1.5L1.5 1.5L-1.5 1.5Z" fill="#000000"/></g></g><g><g transform="translate(25.5,3.5)"><g transform="rotate(90)"><path fill-rule="evenodd" d="M-3.5 -3.5L3.5 -3.5L3.5 3.5L-3.5 3.5ZM-2.5 -2.5L-2.5 2.5L2.5 2.5L2.5 -2.5Z" fill="#000000"/><path fill-rule="evenodd" d="M-1.5 -1.5L1.5 -1.5L1.5 1.5L-1.5 1.5Z" fill="#000000"/></g></g></g><g><g transform="translate(3.5,25.5)"><g transform="rotate(-90)"><path fill-rule="evenodd" d="M-3.5 -3.5L3.5 -3.5L3.5 3.5L-3.5 3.5ZM-2.5 -2.5L-2.5 2.5L2.5 2.5L2.5 -2.5Z" fill="#000000"/><path fill-rule="evenodd" d="M-1.5 -1.5L1.5 -1.5L1.5 1.5L-1.5 1.5Z" fill="#000000"/></g></g></g><path fill-rule="evenodd" d="M8 0L8 2L9 2L9 3L8 3L8 4L9 4L9 5L11 5L11 6L10 6L10 7L9 7L9 6L8 6L8 8L5 8L5 9L4 9L4 8L2 8L2 9L1 9L1 8L0 8L0 9L1 9L1 10L2 10L2 11L3 11L3 12L4 12L4 10L5 10L5 9L8 9L8 8L11 8L11 9L10 9L10 12L8 12L8 11L9 11L9 10L8 10L8 11L7 11L7 10L6 10L6 11L7 11L7 12L5 12L5 13L3 13L3 14L5 14L5 13L7 13L7 14L6 14L6 15L7 15L7 14L9 14L9 16L5 16L5 15L4 15L4 17L8 17L8 20L5 20L5 19L7 19L7 18L5 18L5 19L4 19L4 20L3 20L3 21L4 21L4 20L5 20L5 21L8 21L8 24L10 24L10 25L13 25L13 26L14 26L14 25L13 25L13 24L15 24L15 25L16 25L16 24L18 24L18 25L17 25L17 27L18 27L18 28L19 28L19 29L21 29L21 28L19 28L19 27L20 27L20 26L18 26L18 25L21 25L21 27L25 27L25 29L26 29L26 28L27 28L27 29L28 29L28 28L29 28L29 26L28 26L28 25L29 25L29 24L27 24L27 23L28 23L28 21L29 21L29 19L28 19L28 18L25 18L25 19L26 19L26 21L27 21L27 23L26 23L26 22L25 22L25 20L23 20L23 19L24 19L24 18L23 18L23 19L22 19L22 20L20 20L20 19L21 19L21 18L20 18L20 17L23 17L23 16L24 16L24 17L25 17L25 14L26 14L26 15L27 15L27 16L26 16L26 17L28 17L28 16L29 16L29 15L27 15L27 13L25 13L25 14L24 14L24 11L26 11L26 8L25 8L25 9L24 9L24 10L23 10L23 12L22 12L22 14L21 14L21 11L22 11L22 10L21 10L21 8L20 8L20 7L21 7L21 6L20 6L20 5L19 5L19 6L18 6L18 3L19 3L19 2L21 2L21 0L19 0L19 2L18 2L18 3L17 3L17 2L16 2L16 3L14 3L14 5L13 5L13 6L12 6L12 5L11 5L11 2L14 2L14 0L13 0L13 1L11 1L11 0L10 0L10 1L9 1L9 0ZM15 0L15 1L16 1L16 0ZM10 1L10 2L11 2L11 1ZM9 3L9 4L10 4L10 3ZM12 3L12 4L13 4L13 3ZM16 3L16 4L15 4L15 5L14 5L14 6L13 6L13 7L12 7L12 6L11 6L11 8L12 8L12 9L11 9L11 11L12 11L12 9L13 9L13 8L14 8L14 9L15 9L15 10L14 10L14 11L13 11L13 12L12 12L12 14L14 14L14 15L13 15L13 18L12 18L12 19L13 19L13 18L14 18L14 15L15 15L15 19L16 19L16 20L15 20L15 21L13 21L13 20L12 20L12 21L11 21L11 23L10 23L10 24L11 24L11 23L12 23L12 21L13 21L13 23L14 23L14 22L15 22L15 23L16 23L16 22L15 22L15 21L16 21L16 20L17 20L17 23L19 23L19 24L20 24L20 23L19 23L19 22L20 22L20 21L19 21L19 20L18 20L18 19L16 19L16 17L17 17L17 18L18 18L18 17L17 17L17 16L19 16L19 17L20 17L20 16L19 16L19 14L20 14L20 15L21 15L21 14L20 14L20 10L18 10L18 9L17 9L17 8L15 8L15 7L16 7L16 4L17 4L17 3ZM20 3L20 4L21 4L21 3ZM14 6L14 7L15 7L15 6ZM17 6L17 7L18 7L18 6ZM19 6L19 7L20 7L20 6ZM22 8L22 9L23 9L23 8ZM27 8L27 12L28 12L28 9L29 9L29 8ZM2 9L2 10L4 10L4 9ZM16 10L16 11L15 11L15 12L14 12L14 14L15 14L15 13L16 13L16 12L17 12L17 10ZM18 11L18 12L19 12L19 11ZM7 12L7 13L8 13L8 12ZM0 13L0 17L1 17L1 16L3 16L3 15L1 15L1 14L2 14L2 13ZM10 13L10 17L12 17L12 15L11 15L11 13ZM17 13L17 15L18 15L18 13ZM23 14L23 15L24 15L24 14ZM0 18L0 19L1 19L1 18ZM9 18L9 22L10 22L10 18ZM19 18L19 19L20 19L20 18ZM27 19L27 21L28 21L28 19ZM1 20L1 21L2 21L2 20ZM18 21L18 22L19 22L19 21ZM21 21L21 24L24 24L24 21ZM22 22L22 23L23 23L23 22ZM25 24L25 26L26 26L26 24ZM8 25L8 27L9 27L9 25ZM22 25L22 26L24 26L24 25ZM11 26L11 27L10 27L10 28L8 28L8 29L10 29L10 28L11 28L11 27L12 27L12 29L13 29L13 28L15 28L15 27L16 27L16 26L15 26L15 27L12 27L12 26ZM27 26L27 28L28 28L28 26ZM22 28L22 29L24 29L24 28Z" fill="#000000"/></g></g></svg>
