<svg width="40" height="40" viewBox="0 0 40 40" fill="none" xmlns="http://www.w3.org/2000/svg">
<path d="M17.9032 27.1903C19.8996 27.1903 21.7704 26.5876 23.3273 25.5581L28.8268 31.0701C29.1909 31.4216 29.6554 31.5974 30.1577 31.5974C31.1998 31.5974 31.9657 30.7813 31.9657 29.7517C31.9657 29.2746 31.8025 28.81 31.4509 28.4585L25.9891 22.9716C27.1192 21.3644 27.7846 19.4183 27.7846 17.3089C27.7846 11.8722 23.3399 7.42749 17.9032 7.42749C12.4791 7.42749 8.02179 11.8722 8.02179 17.3089C8.02179 22.7456 12.4665 27.1903 17.9032 27.1903ZM17.9032 24.5536C13.923 24.5536 10.6585 21.2891 10.6585 17.3089C10.6585 13.3287 13.923 10.0642 17.9032 10.0642C21.8834 10.0642 25.1479 13.3287 25.1479 17.3089C25.1479 21.2891 21.8834 24.5536 17.9032 24.5536Z" fill="#524FA2"/>
</svg>
