<svg width="40" height="40" viewBox="0 0 40 40" fill="none" xmlns="http://www.w3.org/2000/svg">
<path d="M17.9031 27.1903C19.8995 27.1903 21.7703 26.5876 23.3273 25.5581L28.8267 31.0701C29.1908 31.4216 29.6554 31.5974 30.1576 31.5974C31.1997 31.5974 31.9656 30.7813 31.9656 29.7517C31.9656 29.2746 31.8024 28.81 31.4509 28.4585L25.9891 22.9716C27.1191 21.3644 27.7846 19.4183 27.7846 17.3089C27.7846 11.8722 23.3398 7.42749 17.9031 7.42749C12.479 7.42749 8.02173 11.8722 8.02173 17.3089C8.02173 22.7456 12.4665 27.1903 17.9031 27.1903ZM17.9031 24.5536C13.923 24.5536 10.6584 21.2891 10.6584 17.3089C10.6584 13.3287 13.923 10.0642 17.9031 10.0642C21.8833 10.0642 25.1478 13.3287 25.1478 17.3089C25.1478 21.2891 21.8833 24.5536 17.9031 24.5536Z" fill="#ED008C"/>
</svg>
