<svg xmlns="http://www.w3.org/2000/svg" width="36" height="36" viewBox="0 0 36 36" fill="none">
    <path d="M25.848 21.6C25.992 20.412 26.1 19.224 26.1 18C26.1 16.776 25.992 15.588 25.848 14.4H31.932C32.22 15.552 32.4 16.758 32.4 18C32.4 19.242 32.22 20.448 31.932 21.6M22.662 31.608C23.742 29.61 24.57 27.45 25.146 25.2H30.456C28.7121 28.2029 25.9454 30.4776 22.662 31.608ZM22.212 21.6H13.788C13.608 20.412 13.5 19.224 13.5 18C13.5 16.776 13.608 15.57 13.788 14.4H22.212C22.374 15.57 22.5 16.776 22.5 18C22.5 19.224 22.374 20.412 22.212 21.6ZM18 32.328C16.506 30.168 15.3 27.774 14.562 25.2H21.438C20.7 27.774 19.494 30.168 18 32.328ZM10.8 10.8H5.544C7.26994 7.78899 10.0346 5.51068 13.32 4.392C12.24 6.39 11.43 8.55 10.8 10.8ZM5.544 25.2H10.8C11.43 27.45 12.24 29.61 13.32 31.608C10.0415 30.477 7.28072 28.2019 5.544 25.2ZM4.068 21.6C3.78 20.448 3.6 19.242 3.6 18C3.6 16.758 3.78 15.552 4.068 14.4H10.152C10.008 15.588 9.9 16.776 9.9 18C9.9 19.224 10.008 20.412 10.152 21.6M18 3.654C19.494 5.814 20.7 8.226 21.438 10.8H14.562C15.3 8.226 16.506 5.814 18 3.654ZM30.456 10.8H25.146C24.5826 8.57062 23.7484 6.41861 22.662 4.392C25.974 5.526 28.728 7.812 30.456 10.8ZM18 0C8.046 0 0 8.1 0 18C0 22.7739 1.89642 27.3523 5.27208 30.7279C6.94353 32.3994 8.92784 33.7252 11.1117 34.6298C13.2956 35.5344 15.6362 36 18 36C22.7739 36 27.3523 34.1036 30.7279 30.7279C34.1036 27.3523 36 22.7739 36 18C36 15.6362 35.5344 13.2956 34.6298 11.1117C33.7252 8.92784 32.3994 6.94353 30.7279 5.27208C29.0565 3.60062 27.0722 2.27475 24.8883 1.37017C22.7044 0.465584 20.3638 0 18 0Z" fill="#ED008C"/>
</svg>