<svg width="80" height="80" viewBox="0 0 80 80" fill="none" xmlns="http://www.w3.org/2000/svg">
<circle cx="40" cy="40" r="40" fill="#ED008C"/>
<g clip-path="url(#clip0_1404_1520)">
<path d="M47.848 43.6C47.992 42.412 48.1 41.224 48.1 40C48.1 38.776 47.992 37.588 47.848 36.4H53.932C54.22 37.552 54.4 38.758 54.4 40C54.4 41.242 54.22 42.448 53.932 43.6M44.662 53.608C45.742 51.61 46.57 49.45 47.146 47.2H52.456C50.7121 50.2029 47.9454 52.4776 44.662 53.608ZM44.212 43.6H35.788C35.608 42.412 35.5 41.224 35.5 40C35.5 38.776 35.608 37.57 35.788 36.4H44.212C44.374 37.57 44.5 38.776 44.5 40C44.5 41.224 44.374 42.412 44.212 43.6ZM40 54.328C38.506 52.168 37.3 49.774 36.562 47.2H43.438C42.7 49.774 41.494 52.168 40 54.328ZM32.8 32.8H27.544C29.2699 29.789 32.0346 27.5107 35.32 26.392C34.24 28.39 33.43 30.55 32.8 32.8ZM27.544 47.2H32.8C33.43 49.45 34.24 51.61 35.32 53.608C32.0415 52.477 29.2807 50.2019 27.544 47.2ZM26.068 43.6C25.78 42.448 25.6 41.242 25.6 40C25.6 38.758 25.78 37.552 26.068 36.4H32.152C32.008 37.588 31.9 38.776 31.9 40C31.9 41.224 32.008 42.412 32.152 43.6M40 25.654C41.494 27.814 42.7 30.226 43.438 32.8H36.562C37.3 30.226 38.506 27.814 40 25.654ZM52.456 32.8H47.146C46.5826 30.5706 45.7484 28.4186 44.662 26.392C47.974 27.526 50.728 29.812 52.456 32.8ZM40 22C30.046 22 22 30.1 22 40C22 44.7739 23.8964 49.3523 27.2721 52.7279C28.9435 54.3994 30.9278 55.7252 33.1117 56.6298C35.2956 57.5344 37.6362 58 40 58C44.7739 58 49.3523 56.1036 52.7279 52.7279C56.1036 49.3523 58 44.7739 58 40C58 37.6362 57.5344 35.2956 56.6298 33.1117C55.7252 30.9278 54.3994 28.9435 52.7279 27.2721C51.0565 25.6006 49.0722 24.2748 46.8883 23.3702C44.7044 22.4656 42.3638 22 40 22Z" fill="#F6EEFF"/>
</g>
<defs>
<clipPath id="clip0_1404_1520">
<rect width="36" height="36" fill="white" transform="translate(22 22)"/>
</clipPath>
</defs>
</svg>
