<svg width="36" height="36" viewBox="0 0 36 36" fill="none" xmlns="http://www.w3.org/2000/svg">
<path d="M18 34C26.8366 34 34 26.8366 34 18C34 9.16344 26.8366 2 18 2C9.16344 2 2 9.16344 2 18C2 26.8366 9.16344 34 18 34Z" fill="url(#paint0_linear_1344_2273)"/>
<path fill-rule="evenodd" clip-rule="evenodd" d="M9.24261 17.8309C13.9069 15.7988 17.0172 14.459 18.5734 13.8117C23.0168 11.9636 23.9401 11.6426 24.5419 11.6319C24.6743 11.6296 24.9702 11.6624 25.1619 11.818C25.3238 11.9493 25.3683 12.1267 25.3896 12.2513C25.4109 12.3758 25.4375 12.6595 25.4164 12.8811C25.1756 15.4111 24.1337 21.5507 23.6036 24.3843C23.3794 25.5833 22.9377 25.9854 22.5102 26.0247C21.581 26.1102 20.8755 25.4107 19.9756 24.8207C18.5674 23.8976 17.7718 23.323 16.4049 22.4222C14.8252 21.3812 15.8493 20.8091 16.7495 19.874C16.9851 19.6293 21.079 15.9056 21.1582 15.5678C21.1681 15.5256 21.1773 15.3681 21.0838 15.285C20.9902 15.2018 20.8521 15.2303 20.7525 15.2529C20.6113 15.2849 18.3616 16.7718 14.0036 19.7136C13.3651 20.1521 12.7867 20.3658 12.2685 20.3546C11.6972 20.3422 10.5983 20.0315 9.78133 19.766C8.77933 19.4403 7.98296 19.2681 8.05231 18.7149C8.08842 18.4268 8.48519 18.1321 9.24261 17.8309Z" fill="white"/>
<defs>
<linearGradient id="paint0_linear_1344_2273" x1="1602" y1="2" x2="1602" y2="3178.27" gradientUnits="userSpaceOnUse">
<stop stop-color="#2AABEE"/>
<stop offset="1" stop-color="#229ED9"/>
</linearGradient>
</defs>
</svg>
