<svg xmlns="http://www.w3.org/2000/svg" width="36" height="28" viewBox="0 0 36 28" fill="none">
    <path fill-rule="evenodd" clip-rule="evenodd" d="M2.47481 11.9768C12.1385 8.05063 18.5824 5.46223 21.8067 4.21164C31.0125 0.640965 32.9254 0.0206999 34.1722 0.000218379C34.4465 -0.0042863 35.0596 0.0590885 35.4568 0.359617C35.7921 0.613377 35.8844 0.956171 35.9286 1.19676C35.9727 1.43736 36.0277 1.98543 35.984 2.41368C35.4851 7.30167 33.3265 19.1635 32.2284 24.6382C31.7637 26.9547 30.8487 27.7314 29.9629 27.8074C28.0379 27.9726 26.5761 26.621 24.7116 25.4813C21.794 23.6979 20.1458 22.5877 17.3138 20.8473C14.041 18.8361 16.1626 17.7307 18.0278 15.9241C18.5159 15.4514 26.9977 8.25711 27.1618 7.60448C27.1824 7.52286 27.2014 7.21861 27.0076 7.05795C26.8138 6.8973 26.5277 6.95224 26.3213 6.99593C26.0286 7.05786 21.3678 9.93064 12.3388 15.6143C11.0158 16.4614 9.81749 16.8742 8.74386 16.8525C7.56026 16.8287 5.2835 16.2285 3.59096 15.7154C1.51499 15.0861 -0.134951 14.7534 0.00872134 13.6847C0.0835549 13.1281 0.905585 12.5588 2.47481 11.9768Z" fill="#7B7984"/>
</svg>