<svg width="40" height="40" viewBox="0 0 40 40" fill="none" xmlns="http://www.w3.org/2000/svg">
<g clip-path="url(#clip0_629_962)">
<path d="M20 4C28.8366 4 36 11.1634 36 20C36 28.8366 28.8366 36 20 36C11.1634 36 4 28.8366 4 20C4 11.1634 11.1634 4 20 4ZM24.9314 12.5204L20 17.454L15.0714 12.5204C14.3685 11.8175 13.2288 11.8175 12.5258 12.5204C11.8229 13.2234 11.8229 14.3631 12.5258 15.066L17.456 20.002L12.5258 24.94C11.8229 25.6429 11.8229 26.7826 12.5258 27.4856C13.2288 28.1885 14.3685 28.1885 15.0714 27.4856L20 22.55L24.9314 27.4856C25.6343 28.1885 26.774 28.1885 27.477 27.4856C28.1799 26.7826 28.1799 25.6429 27.477 24.94L22.544 20.002L27.477 15.066C28.1799 14.3631 28.1799 13.2234 27.477 12.5204C26.774 11.8175 25.6343 11.8175 24.9314 12.5204Z" fill="#ED008C"/>
</g>
<defs>
<clipPath id="clip0_629_962">
<rect width="32" height="32" fill="white" transform="translate(4 4)"/>
</clipPath>
</defs>
</svg>
