<svg width="36" height="25" viewBox="0 0 36 25" fill="none" xmlns="http://www.w3.org/2000/svg">
<g clip-path="url(#clip0_1344_2263)">
<path d="M35.2049 3.86031C34.9984 3.11418 34.5957 2.43395 34.0367 1.88736C33.4777 1.34078 32.782 0.946909 32.0189 0.744975C29.2253 0 17.9817 0 17.9817 0C17.9817 0 6.73765 0.0225499 3.944 0.767525C3.18089 0.969471 2.48521 1.36336 1.92623 1.90997C1.36725 2.45658 0.964464 3.13684 0.757996 3.883C-0.0870198 8.73647 -0.414817 16.1321 0.781199 20.7914C0.987689 21.5375 1.39048 22.2177 1.94946 22.7643C2.50844 23.3109 3.20411 23.7048 3.9672 23.9067C6.76086 24.6517 18.0047 24.6517 18.0047 24.6517C18.0047 24.6517 29.2483 24.6517 32.0419 23.9067C32.805 23.7048 33.5007 23.3109 34.0597 22.7644C34.6187 22.2178 35.0215 21.5375 35.228 20.7914C36.1193 15.931 36.3939 8.53999 35.2049 3.86031Z" fill="#FF0000"/>
<path d="M14.4031 17.6099L23.7304 12.3274L14.4031 7.04492V17.6099Z" fill="white"/>
</g>
<defs>
<clipPath id="clip0_1344_2263">
<rect width="36" height="24.75" fill="white"/>
</clipPath>
</defs>
</svg>
