<svg xmlns="http://www.w3.org/2000/svg" width="36" height="24" viewBox="0 0 36 24" fill="none">
    <path d="M35.2049 3.59984C34.9984 2.90405 34.5957 2.26972 34.0367 1.76001C33.4777 1.25031 32.782 0.883017 32.0189 0.694708C29.2253 0 17.9817 0 17.9817 0C17.9817 0 6.73765 0.0210284 3.944 0.715736C3.18089 0.904056 2.48521 1.27137 1.92623 1.7811C1.36725 2.29082 0.964464 2.92518 0.757996 3.621C-0.0870198 8.14698 -0.414817 15.0435 0.781199 19.3885C0.987689 20.0843 1.39048 20.7186 1.94946 21.2283C2.50844 21.738 3.20411 22.1053 3.9672 22.2936C6.76086 22.9883 18.0047 22.9883 18.0047 22.9883C18.0047 22.9883 29.2483 22.9883 32.0419 22.2936C32.805 22.1053 33.5007 21.738 34.0597 21.2283C34.6187 20.7186 35.0215 20.0843 35.228 19.3885C36.1193 14.8561 36.3939 7.96375 35.2049 3.59984Z" fill="#7B7984"/>
    <path d="M14.4031 16.4212L23.7304 11.4951L14.4031 6.56909V16.4212Z" fill="white"/>
</svg>